<svg width="81" height="75" viewBox="0 0 81 75" fill="none" xmlns="http://www.w3.org/2000/svg">
<g clip-path="url(#clip0_184_407)">
<path d="M18.3473 38.5817C19.6427 38.1574 20.9639 37.8158 22.3026 37.5589C23.945 37.3513 25.6098 37.4047 27.2355 37.7171C27.771 37.8424 28.2992 37.9971 28.8176 38.1805C29.3488 38.4008 29.4731 38.1805 29.5748 37.7115C30.2867 34.3125 32.069 31.2311 34.6603 28.9193C35.0615 28.5464 35.5757 28.2921 35.8582 27.7892C36.6097 27.3654 37.3612 26.936 38.1184 26.5178C40.1977 25.4438 42.4701 24.7946 44.8029 24.608C46.0355 24.5977 47.267 24.6808 48.4871 24.8566C50.1588 25.17 51.7867 25.6842 53.3352 26.3879C56.267 27.9588 58.6869 30.3375 60.3079 33.2419C61.2539 35.0053 61.8958 36.9156 62.2065 38.8924C62.2355 39.0433 62.2732 39.1924 62.3195 39.3388C62.4156 39.6609 62.1669 40.1864 62.8845 40.1468C65.6309 40.0188 68.3719 40.4952 70.9139 41.5425C72.9554 42.5238 74.8041 43.8635 76.3723 45.4979C78.8902 48.1389 80.4773 51.5294 80.8927 55.1546C80.9246 55.2778 80.974 55.3958 81.0396 55.5049V56.4542C80.8494 56.6753 80.7487 56.9594 80.7571 57.2509C80.1372 60.9059 78.3111 64.2479 75.5699 66.7438C72.6197 69.622 68.6674 71.2426 64.5458 71.2642C46.7071 71.3376 28.8685 71.2981 11.0355 71.2642C10.3538 71.2731 9.67332 71.2048 9.00697 71.0608C7.14672 70.7001 5.40939 69.8703 3.95971 68.6501C2.51003 67.4298 1.39603 65.8595 0.723333 64.088C0.497312 63.523 0.632924 62.8167 0.0283203 62.4268C0.161305 59.994 1.10636 57.6762 2.71231 55.844C4.28235 53.9695 6.45239 52.6958 8.85441 52.2389C9.48727 52.1203 9.78109 51.8942 9.67373 51.2275C9.65127 51.019 9.65127 50.8087 9.67373 50.6003C9.70764 50.233 9.74719 49.8601 9.78109 49.4702C9.91671 49.4702 9.91106 49.3233 9.93366 49.2272C10.4927 46.2648 11.9624 43.5507 14.1376 41.4634C15.4179 40.3346 16.8317 39.3668 18.3473 38.5817ZM55.4598 48.3344C54.3994 48.3381 53.3502 48.5507 52.3719 48.9599C51.3937 49.3691 50.5056 49.967 49.7585 50.7194C49.0113 51.4718 48.4197 52.364 48.0173 53.3451C47.6149 54.3262 47.4097 55.3769 47.4135 56.4373C47.4172 57.4976 47.6297 58.5469 48.0389 59.5251C48.4481 60.5033 49.046 61.3914 49.7984 62.1386C50.5508 62.8857 51.4431 63.4774 52.4241 63.8797C53.4052 64.2821 54.4559 64.4873 55.5163 64.4836C56.5767 64.4799 57.6259 64.2673 58.6041 63.8581C59.5824 63.4489 60.4704 62.851 61.2176 62.0986C61.9648 61.3462 62.5564 60.454 62.9588 59.4729C63.3611 58.4918 63.5663 57.4411 63.5626 56.3807C63.5589 55.3204 63.3464 54.2711 62.9372 53.2929C62.5279 52.3147 61.9301 51.4266 61.1776 50.6794C60.4252 49.9323 59.533 49.3406 58.5519 48.9383C57.5709 48.5359 56.5202 48.3307 55.4598 48.3344ZM29.7443 48.3062C28.8955 48.3026 28.0637 48.5439 27.3485 49.0012C26.6258 49.3599 26.03 49.9311 25.6411 50.6381C25.2523 51.3451 25.089 52.1541 25.1731 52.9565C25.2075 53.6722 25.4551 54.3612 25.884 54.9351C26.3129 55.509 26.9036 55.9416 27.5802 56.1773C28.925 56.7424 30.2698 57.2396 31.5977 57.8216C32.3944 58.172 33.129 58.6127 33.2476 59.6411C33.4285 61.1441 31.592 62.1556 30.0777 62.003C28.7258 61.9192 27.4523 61.3398 26.5009 60.3757C26.2846 60.1428 25.9849 60.005 25.6673 59.9923C25.3498 59.9796 25.04 60.093 24.8058 60.3078C24.6793 60.4069 24.5753 60.5318 24.5009 60.6742C24.4265 60.8166 24.3833 60.9733 24.3742 61.1337C24.3651 61.2941 24.3904 61.4546 24.4482 61.6045C24.5061 61.7544 24.5952 61.8903 24.7097 62.003C26.7778 64.3875 31.0326 65.4385 33.8692 63.3591C34.6736 62.819 35.2702 62.0212 35.5609 61.0969C35.8515 60.1726 35.8189 59.1769 35.4683 58.2737C35.02 57.255 34.2252 56.4282 33.225 55.94C31.7446 55.1263 30.1173 54.6517 28.5803 53.968C28.3204 53.8775 28.0917 53.7145 27.9215 53.4982C27.7513 53.2819 27.6466 53.0214 27.6197 52.7475C27.5878 52.4563 27.64 52.1621 27.7702 51.8997C27.9004 51.6372 28.1031 51.4177 28.3543 51.267C29.0167 50.8188 29.8246 50.6391 30.6145 50.7641C31.5537 50.9037 32.4464 51.2639 33.2194 51.8151C33.4018 51.9644 33.6166 52.0689 33.8466 52.1203C34.1079 52.1824 34.3828 52.1494 34.622 52.0272C34.8612 51.905 35.049 51.7016 35.1519 51.4535C35.2836 51.2362 35.3322 50.9785 35.2886 50.7281C35.2449 50.4777 35.1121 50.2517 34.9145 50.0917C33.5528 48.8825 31.948 48.3401 29.7443 48.3062ZM37.9715 56.3864C37.9715 58.5505 37.9715 60.709 37.9715 62.8732C37.9715 64.0033 38.3783 64.4553 39.5254 64.4666C41.2205 64.4666 42.9157 64.4666 44.6108 64.4666C45.594 64.4666 46.2212 63.9524 46.2043 63.1896C46.1873 62.4268 45.5714 61.9634 44.5656 61.9578C43.4355 61.9578 42.3054 61.9578 41.1753 61.9578C40.6498 61.9578 40.4916 61.777 40.5085 61.2684C40.5424 60.2965 40.5481 59.319 40.5085 58.3415C40.5085 57.7764 40.7233 57.6295 41.2488 57.6465C42.2998 57.6465 43.3564 57.6804 44.413 57.6465C44.5854 57.6598 44.7587 57.6371 44.9218 57.58C45.085 57.5229 45.2345 57.4325 45.3609 57.3146C45.4873 57.1967 45.5879 57.0538 45.6562 56.895C45.7245 56.7362 45.7592 56.5649 45.7579 56.3921C45.7579 55.6236 45.2324 55.1546 44.3452 55.1433C43.2886 55.1433 42.2319 55.1433 41.181 55.1433C40.6555 55.1433 40.4916 54.9738 40.5085 54.4596C40.5424 53.5103 40.5594 52.561 40.5085 51.6343C40.4294 50.9732 40.6837 50.8546 41.2883 50.8546C42.4467 50.8885 43.6107 50.8941 44.769 50.8546C45.1293 50.8668 45.4797 50.7356 45.7435 50.4899C46.0072 50.2442 46.1627 49.9039 46.176 49.5436C46.1251 48.7808 45.611 48.3627 44.6956 48.357C42.9552 48.357 41.2149 48.357 39.4745 48.357C38.3953 48.357 37.9715 48.7978 37.9715 49.9109C37.9658 52.0638 37.9715 54.2449 37.9715 56.3864Z" fill="#383E79"/>
<path d="M0.0282671 62.4268C0.632871 62.8167 0.497259 63.5569 0.723279 64.0881C1.39169 65.8557 2.49932 67.4239 3.94169 68.6448C5.38407 69.8657 7.11367 70.6991 8.96737 71.0665C9.63371 71.2105 10.3142 71.2788 10.9959 71.2699C28.8289 71.2699 46.6675 71.3207 64.5062 71.2699C68.6278 71.2483 72.5801 69.6277 75.5303 66.7495C78.2714 64.2536 80.0976 60.9116 80.7175 57.2566C80.709 56.9651 80.8098 56.681 81 56.4599V59.1439C80.6666 60.2175 80.5819 61.3476 80.2033 62.4099C77.8131 69.0888 73.1006 72.982 66.1279 74.1403C65.2954 74.2609 64.4545 74.3138 63.6134 74.2985C46.2438 74.2985 28.8779 74.2985 11.5157 74.2985C8.9632 74.3736 6.46165 73.5741 4.42578 72.0326C2.38991 70.4911 0.942007 68.3 0.322093 65.8228C0.0292159 64.7162 -0.0701894 63.5673 0.0282671 62.4268Z" fill="#272B57"/>
<path d="M9.74718 42.1641C9.74718 41.8477 9.69632 41.5312 9.69632 41.2205C9.69632 30.3677 9.69632 19.5131 9.69632 8.6566C9.69632 7.91073 9.53246 7.59996 8.75269 7.70166C8.28935 7.75817 7.7808 7.79207 7.53218 7.22137C7.28356 6.65067 7.67909 6.33424 8.00117 5.99521C9.69256 4.18705 11.3877 2.38266 13.0866 0.582027C13.8438 -0.197742 14.1772 -0.192092 14.9174 0.565076C16.6502 2.39961 18.3642 4.23037 20.0594 6.05737C20.3645 6.3851 20.6922 6.70718 20.4605 7.23267C20.2289 7.75817 19.7542 7.76382 19.3304 7.70166C18.4603 7.5717 18.3133 7.96159 18.319 8.74701C18.3416 17.4111 18.3416 26.0752 18.319 34.7393C18.319 35.0501 18.319 35.3665 18.2851 35.683C17.8101 35.696 17.3467 35.8323 16.9403 36.0785C14.0353 37.4176 11.549 39.5211 9.74718 42.1641Z" fill="#DF5D77"/>
<path d="M62.3421 31.106C62.3421 28.2808 62.3025 25.4216 62.3421 22.5794C62.3421 21.9127 62.1612 21.6527 61.5058 21.7544C61.4268 21.7602 61.3475 21.7602 61.2685 21.7544C60.8334 21.7544 60.3813 21.7544 60.1779 21.2968C60.0996 21.0714 60.0945 20.827 60.1636 20.5987C60.2326 20.3703 60.3721 20.1696 60.5622 20.0254C61.9974 18.5186 63.4307 17.0118 64.8622 15.505C65.2238 15.1264 65.5572 14.7139 65.9301 14.3466C66.0045 14.2439 66.1022 14.1603 66.2152 14.1027C66.3281 14.045 66.4531 14.015 66.5799 14.015C66.7068 14.015 66.8318 14.045 66.9447 14.1027C67.0577 14.1603 67.1554 14.2439 67.2298 14.3466L72.8802 20.3136C72.9971 20.4231 73.0767 20.5664 73.1081 20.7234C73.1395 20.8804 73.1211 21.0434 73.0554 21.1894C72.9907 21.35 72.8812 21.4886 72.7399 21.5888C72.5987 21.6889 72.4317 21.7464 72.2587 21.7544C71.8236 21.7997 71.2247 21.5397 70.9986 21.907C70.8536 22.3535 70.8187 22.8285 70.8969 23.2914C70.8969 28.3203 70.8875 33.3493 70.8687 38.3782C69.1883 37.7846 67.4398 37.405 65.6646 37.2481C65.4386 37.2455 65.2206 37.1647 65.0475 37.0194C64.8745 36.8742 64.7571 36.6735 64.7153 36.4514C64.5059 35.6143 64.2378 34.7929 63.9129 33.9934C63.5354 32.9584 63.006 31.9852 62.3421 31.106Z" fill="#EA5400"/>
<path d="M44.7973 21.7771C44.7973 18.0082 44.7634 14.2393 44.7973 10.4761C44.7973 9.7754 44.6165 9.49853 43.9158 9.61719C43.7801 9.62265 43.6442 9.61888 43.509 9.60589C43.1078 9.60589 42.7518 9.54938 42.5936 9.14255C42.5294 8.96746 42.5199 8.77703 42.5663 8.59643C42.6127 8.41583 42.7129 8.25357 42.8535 8.13111C43.6672 7.23079 44.4997 6.34931 45.351 5.48667C46.3342 4.44698 47.2948 3.39033 48.2836 2.38454C48.8487 1.81949 49.2668 1.81949 49.8206 2.38454C51.64 4.29441 53.4369 6.22124 55.2507 8.13111C55.3871 8.25648 55.4831 8.41965 55.5264 8.59979C55.5696 8.77994 55.5583 8.96889 55.4937 9.14255C55.3468 9.56068 54.9851 9.60589 54.5896 9.61719C53.3239 9.65109 53.3295 9.65674 53.3239 10.9394C53.3239 15.0266 53.3239 19.1119 53.3239 23.1954C50.6343 22.0532 47.7117 21.5671 44.7973 21.7771Z" fill="#FFE07F"/>
<path d="M27.275 34.1178C27.275 33.6431 27.2298 33.1685 27.2298 32.6995C27.2298 28.1395 27.2298 23.5852 27.2298 19.0253C27.2298 18.4602 27.0942 18.189 26.4895 18.285C26.337 18.285 26.1731 18.285 26.0149 18.285C25.8149 18.3097 25.6124 18.2677 25.4387 18.1655C25.265 18.0634 25.1299 17.9068 25.0543 17.72C24.9881 17.5463 24.9803 17.3557 25.0324 17.1772C25.0844 16.9987 25.1933 16.8421 25.3425 16.7311C25.8115 16.2339 26.2748 15.7254 26.7438 15.2281C28.066 13.8324 29.3826 12.4311 30.6992 11.0411C31.349 10.3574 31.6767 10.3517 32.3322 11.0411C34.0951 12.8907 35.8468 14.7497 37.5871 16.6181C37.8753 16.9289 38.1522 17.251 37.9657 17.7482C37.7793 18.2455 37.3103 18.2737 36.8356 18.2794C35.649 18.2794 35.7677 18.076 35.762 19.4095C35.762 21.1498 35.762 22.8845 35.762 24.6249C35.3982 24.6874 35.056 24.8409 34.7675 25.0713C32.2157 26.8394 30.092 29.1563 28.552 31.8519C28.1282 32.5865 27.9813 33.5131 27.275 34.1178Z" fill="#E7A663"/>
<path d="M27.275 34.1177C27.9813 33.5131 28.1282 32.5865 28.5576 31.8293C30.0976 29.1337 32.2214 26.8168 34.7732 25.0487C35.0617 24.8183 35.4038 24.6648 35.7677 24.6023C35.7677 25.6646 35.8072 26.7212 35.8298 27.7835C35.5473 28.2808 35.0331 28.535 34.6319 28.9136C32.0406 31.2255 30.2583 34.3069 29.5465 37.7058C29.4448 38.1805 29.3204 38.3952 28.7893 38.1748C28.2708 37.9914 27.7426 37.8367 27.2072 37.7115C27.2467 36.5192 27.2637 35.3156 27.275 34.1177Z" fill="#E49644"/>
<path d="M9.74711 42.1641C11.5536 39.5237 14.0438 37.4241 16.9515 36.0898C17.3579 35.8436 17.8213 35.7073 18.2963 35.6943L18.3641 38.5817C16.8553 39.3755 15.4491 40.3508 14.1771 41.486C12.0019 43.5733 10.5322 46.2874 9.97313 49.2498C9.97313 49.3459 9.97313 49.4646 9.82057 49.4928L9.75276 49.312C9.67931 46.9275 9.66236 44.543 9.74711 42.1641Z" fill="#C84C60"/>
<path d="M62.342 31.1061C62.999 31.9902 63.5208 32.9671 63.8903 34.0048C64.2151 34.8043 64.4832 35.6256 64.6926 36.4628C64.7344 36.6848 64.8518 36.8855 65.0249 37.0308C65.1979 37.176 65.416 37.2568 65.6419 37.2595C67.4172 37.4163 69.1656 37.796 70.846 38.3896V41.5369C68.3109 40.4844 65.576 40.0002 62.8336 40.1186C62.1442 40.1582 62.3929 39.6327 62.2686 39.3106C62.3062 36.5833 62.3307 33.8485 62.342 31.1061Z" fill="#CC4E08"/>
<path d="M44.7972 21.777C47.6948 21.5752 50.599 22.0611 53.273 23.1953C53.273 24.2576 53.273 25.3256 53.273 26.3935C51.737 25.6928 50.1227 25.1787 48.4644 24.8622C47.2444 24.6865 46.0128 24.6034 44.7803 24.6136L44.7972 21.777Z" fill="#FED068"/>
<path d="M9.73584 49.312L9.80365 49.4928C9.76975 49.8601 9.73019 50.233 9.69629 50.6229C9.70759 50.1709 9.71889 49.7245 9.73584 49.312Z" fill="#DF5D77"/>
<path d="M55.4597 48.3345C57.0567 48.3378 58.6169 48.8147 59.9429 49.7047C61.2688 50.5947 62.3011 51.858 62.9092 53.3347C63.5172 54.8114 63.6737 56.4353 63.3589 58.0009C63.044 59.5666 62.272 61.0037 61.1404 62.1306C60.0087 63.2575 58.5684 64.0235 57.0014 64.3317C55.4345 64.64 53.8113 64.4767 52.3371 63.8625C50.863 63.2482 49.6041 62.2106 48.7196 60.8809C47.8352 59.5512 47.3649 57.9891 47.3682 56.3921C47.3644 55.33 47.5714 54.2778 47.9771 53.2963C48.3829 52.3148 48.9793 51.4235 49.7318 50.6741C50.4844 49.9247 51.3782 49.332 52.3614 48.9304C53.3446 48.5288 54.3977 48.3262 55.4597 48.3345ZM61.082 56.3864C61.0926 55.6415 60.9538 54.9019 60.6736 54.2115C60.3934 53.5212 59.9776 52.894 59.4507 52.3672C58.9239 51.8404 58.2967 51.4245 57.6064 51.1443C56.916 50.8642 56.1765 50.7253 55.4315 50.7359C53.9477 50.768 52.5343 51.3752 51.4896 52.4294C50.4449 53.4836 49.8505 54.9024 49.8318 56.3864C49.8199 57.1223 49.9541 57.8532 50.2267 58.5367C50.4994 59.2203 50.905 59.8429 51.4201 60.3686C51.9352 60.8942 52.5495 61.3123 53.2274 61.5987C53.9054 61.8851 54.6334 62.034 55.3693 62.0369C56.1231 62.0701 56.8755 61.947 57.5794 61.6756C58.2834 61.4042 58.9236 60.9902 59.46 60.4596C59.9964 59.9291 60.4174 59.2934 60.6965 58.5925C60.9756 57.8915 61.1069 57.1405 61.082 56.3864Z" fill="#FEFFFF"/>
<path d="M29.7442 48.3062C31.9479 48.3401 33.5527 48.8713 34.9144 50.0918C35.112 50.2517 35.2448 50.4778 35.2885 50.7282C35.3321 50.9785 35.2835 51.2362 35.1518 51.4535C35.0489 51.7017 34.8611 51.905 34.6219 52.0272C34.3827 52.1494 34.1078 52.1824 33.8465 52.1203C33.6165 52.069 33.4016 51.9645 33.2193 51.8152C32.4463 51.2639 31.5536 50.9037 30.6144 50.7642C29.8245 50.6391 29.0165 50.8189 28.3542 51.2671C28.103 51.4177 27.9002 51.6373 27.77 51.8997C27.6398 52.1621 27.5876 52.4563 27.6196 52.7475C27.6464 53.0215 27.7512 53.282 27.9214 53.4983C28.0916 53.7146 28.3202 53.8776 28.5802 53.968C30.1172 54.6517 31.7445 55.0981 33.2249 55.94C34.2226 56.4371 35.0115 57.2721 35.4512 58.2963C35.8018 59.1996 35.8344 60.1953 35.5438 61.1196C35.2532 62.0438 34.6566 62.8417 33.8521 63.3818C31.0269 65.4611 26.7608 64.4102 24.6927 62.0256C24.5782 61.9129 24.489 61.7771 24.4311 61.6272C24.3733 61.4773 24.3481 61.3168 24.3572 61.1563C24.3662 60.9959 24.4094 60.8393 24.4839 60.6969C24.5583 60.5545 24.6622 60.4295 24.7887 60.3305C25.023 60.1157 25.3327 60.0022 25.6503 60.0149C25.9679 60.0276 26.2675 60.1655 26.4839 60.3983C27.4353 61.3624 28.7088 61.9418 30.0606 62.0256C31.575 62.1782 33.4114 61.1668 33.2306 59.6637C33.1119 58.6353 32.3774 58.1946 31.5806 57.8443C30.2528 57.2792 28.9079 56.7142 27.5631 56.2C26.8865 55.9642 26.2959 55.5316 25.867 54.9577C25.438 54.3838 25.1905 53.6948 25.156 52.9792C25.0719 52.1767 25.2352 51.3677 25.6241 50.6607C26.0129 49.9537 26.6087 49.3825 27.3315 49.0238C28.049 48.5555 28.8873 48.3061 29.7442 48.3062Z" fill="#FEFFFF"/>
<path d="M37.9714 56.3864C37.9714 54.2279 37.9714 52.0638 37.9714 49.8997C37.9714 48.7696 38.3952 48.3514 39.4744 48.3458C41.2148 48.3458 42.9552 48.3458 44.6955 48.3458C45.6165 48.3458 46.1251 48.7696 46.1759 49.5324C46.1708 49.7117 46.1303 49.8883 46.0568 50.0519C45.9832 50.2156 45.878 50.3631 45.7473 50.4859C45.6165 50.6088 45.4628 50.7046 45.2949 50.7679C45.127 50.8312 44.9483 50.8606 44.769 50.8546C43.6389 50.8998 42.4466 50.8941 41.2883 50.8546C40.7232 50.8546 40.4294 50.9789 40.4689 51.6344C40.5254 52.5836 40.5085 53.5329 40.4689 54.4596C40.4689 54.9738 40.6158 55.1603 41.1413 55.1433C42.1923 55.1094 43.249 55.1433 44.3056 55.1433C45.1928 55.1433 45.7126 55.6236 45.7183 56.3921C45.7179 56.5635 45.6823 56.733 45.6136 56.89C45.545 57.0471 45.4447 57.1883 45.3191 57.3049C45.1934 57.4215 45.0452 57.5111 44.8834 57.5679C44.7217 57.6247 44.55 57.6476 44.3791 57.6352C43.3224 57.6691 42.2658 57.6352 41.2148 57.6352C40.6893 57.6352 40.4463 57.7482 40.4746 58.3302C40.5141 59.3077 40.5085 60.2853 40.4746 61.2572C40.4746 61.7657 40.6158 61.9578 41.1413 61.9465C42.2714 61.9126 43.4015 61.9465 44.5316 61.9465C45.5374 61.9465 46.1533 62.4212 46.1703 63.1783C46.1872 63.9355 45.56 64.4497 44.5768 64.4554C42.8817 64.4554 41.1865 64.4554 39.4914 64.4554C38.3613 64.4554 37.9375 64.0146 37.9375 62.8619C37.9658 60.7091 37.9714 58.5506 37.9714 56.3864Z" fill="#FEFEFF"/>
<path d="M61.082 56.3864C61.1068 57.14 60.9758 57.8905 60.697 58.591C60.4182 59.2916 59.9978 59.927 59.462 60.4575C58.9262 60.9879 58.2867 61.402 57.5834 61.6738C56.8801 61.9456 56.1283 62.0692 55.375 62.0369C54.6391 62.034 53.9111 61.8851 53.2331 61.5987C52.5552 61.3123 51.9409 60.8941 51.4258 60.3685C50.9107 59.8429 50.5051 59.2203 50.2324 58.5367C49.9598 57.8531 49.8256 57.1222 49.8375 56.3864C49.8562 54.9024 50.4506 53.4836 51.4953 52.4294C52.54 51.3752 53.9534 50.768 55.4372 50.7359C56.1817 50.726 56.9206 50.8655 57.6103 51.146C58.3 51.4265 58.9265 51.8424 59.4527 52.3692C59.979 52.896 60.3943 53.5229 60.6741 54.2128C60.954 54.9028 61.0927 55.6419 61.082 56.3864Z" fill="#383E79"/>
</g>
<defs>
<clipPath id="clip0_184_407">
<rect width="81" height="74.2646" fill="white"/>
</clipPath>
</defs>
</svg>
