<svg width="66" height="82" viewBox="0 0 66 82" fill="none" xmlns="http://www.w3.org/2000/svg">
<g clip-path="url(#clip0_184_471)">
<path d="M17.9903 37.3998C21.5883 37.3622 25.181 37.3138 28.7791 37.2977C34.7185 37.26 40.658 37.4912 46.5867 37.8031C48.7812 37.891 50.8658 38.7879 52.44 40.3215C54.0141 41.855 54.9667 43.917 55.1146 46.1112C55.682 54.1494 55.7394 62.2156 55.2865 70.2611C55.2059 71.7722 55.2865 73.3047 54.8569 74.7889C53.7828 78.7682 50.4372 81.3278 46.1356 81.4999C43.2894 81.611 40.4432 81.7275 37.597 81.8494C37.3983 81.8494 37.1566 81.758 37.017 82H33.1773C32.1201 81.7303 31.0123 81.7303 29.9551 82H25.659C24.3931 81.7312 23.0851 81.7312 21.8193 82H18.1407C17.0398 81.6397 15.8959 81.8441 14.7735 81.7311C13.4525 81.5967 12.0884 81.5859 10.7835 81.5214C10.7083 81.3332 10.5364 81.2579 10.3861 81.1504C9.2016 80.3305 8.21937 79.2511 7.51402 77.9941C6.80866 76.7371 6.39875 75.3357 6.31544 73.8963C6.14359 71.8851 6.00397 69.8578 6.02545 67.8521C6.06841 64.1255 5.71934 60.4151 5.92341 56.6832C6.11137 53.1556 6.12748 49.6119 6.28322 46.079C6.41747 42.9762 7.48615 40.395 9.9833 38.4753C10.2088 38.2979 10.4666 38.1204 10.4612 37.7762H10.7298C11.2255 37.8699 11.7367 37.8384 12.2173 37.6848L13.0228 37.6042L17.9903 37.3998ZM27.7856 73.993C29.2248 73.993 30.664 73.993 32.0818 73.993C32.6911 74.0449 33.3047 74.005 33.9023 73.8747C34.5886 73.6699 35.2185 73.3091 35.7428 72.8205C36.267 72.3319 36.6715 71.7286 36.9246 71.0577C37.1777 70.3868 37.2727 69.6665 37.2021 68.9528C37.1315 68.2391 36.8972 67.5514 36.5176 66.9433C35.5509 65.33 34.6702 63.7168 33.7411 62.1036C33.5263 61.7326 33.4726 61.4691 33.8915 61.1733C34.3252 60.8194 34.7035 60.4025 35.0139 59.9365C36.3625 58.195 37.035 56.023 36.9066 53.823C36.7783 51.623 35.8578 49.5442 34.3158 47.9718C33.2506 46.8509 31.9106 46.0291 30.4293 45.5885C28.9481 45.1479 27.3774 45.1038 25.8738 45.4606C23.5719 45.9706 21.5562 47.3526 20.2489 49.3172C18.9416 51.2818 18.444 53.6766 18.8603 56.0003C19.2324 57.9775 20.2394 59.7788 21.728 61.1303C22.0126 61.3992 22.265 61.625 21.9643 62.0713C21.2876 63.1468 20.6324 64.2223 20.0202 65.3677C19.2577 66.7551 18.334 68.0564 18.4521 69.7987C18.5971 71.9496 20.525 73.9877 22.6946 73.993C24.3755 73.9984 26.0778 73.9877 27.7856 73.993Z" fill="#EA5400"/>
<path d="M21.8192 82C23.085 81.7311 24.3931 81.7311 25.6589 82H21.8192Z" fill="#F6DC6B"/>
<path d="M29.9766 82C31.0337 81.7303 32.1415 81.7303 33.1987 82H29.9766Z" fill="#F6DB66"/>
<path d="M17.9902 37.3998L13.0228 37.588C12.271 35.4855 11.5138 33.3829 10.778 31.275C9.81676 28.5379 8.87697 25.8115 7.92645 23.0583C7.06721 20.6008 6.5463 18.0842 6.95981 15.4815C7.27309 13.1895 8.1324 11.0066 9.46523 9.11699C10.7981 7.22739 12.5653 5.68657 14.6177 4.62456C15.5897 4.1621 16.6745 3.9255 17.4962 3.17266C17.5289 3.11782 17.5786 3.07509 17.6376 3.05085C17.6967 3.02662 17.762 3.02219 17.8238 3.03823C17.9097 3.16191 17.9419 3.092 17.9688 2.99521C18.103 2.99521 18.2319 2.99521 18.3124 2.86077C21.9373 1.65623 25.4817 -0.0752898 29.4234 -6.21751e-06C35.4435 0.123674 39.9168 2.9737 42.457 8.45865C44.4063 12.6584 45.9476 17.0625 47.6016 21.3644C47.7627 21.7677 47.6822 21.9022 47.3009 22.0581C45.9476 22.5367 44.6158 23.0368 43.2571 23.5261C43.2705 23.2877 43.232 23.0492 43.1443 22.8271C41.6031 18.9446 40.0081 15.0836 38.5582 11.1689C38.1065 9.90911 37.1749 8.87985 35.9671 8.30639C34.7593 7.73294 33.3738 7.662 32.1139 8.10912C30.8895 8.53931 29.6329 8.88346 28.387 9.26526C27.8363 9.40065 27.2976 9.58048 26.7759 9.803C26.3087 10.0396 25.7019 9.99121 25.3689 10.5128C21.8934 11.6017 18.4861 12.8982 15.1655 14.3953C12.33 15.659 11.256 18.0466 12.2334 20.9987C14.0378 26.4998 15.9764 31.9633 17.9902 37.3998Z" fill="#6B6068"/>
<path d="M10.4612 37.7762C10.4612 38.1204 10.2088 38.314 9.98326 38.4753C7.4861 40.395 6.44428 42.9762 6.28317 46.079C6.12744 49.6119 6.11133 53.1556 5.92337 56.6832C5.7193 60.4151 6.06837 64.1255 6.0254 67.8521C6.0254 69.8578 6.14355 71.8851 6.31539 73.8963C6.39871 75.3357 6.80862 76.7371 7.51397 77.9941C8.21933 79.2511 9.20156 80.3305 10.386 81.1504C10.5364 81.2579 10.7082 81.3332 10.7834 81.5214C7.72239 81.6612 4.98358 80.9299 2.81401 78.6069C1.37051 77.0834 0.515746 75.0952 0.402783 72.9982C-0.0483158 66.142 -0.0805371 59.2912 0.107421 52.435C0.105515 50.0892 0.248997 47.7456 0.537038 45.4175C0.80718 43.5997 1.62914 41.909 2.89144 40.5748C4.15375 39.2406 5.79531 38.3274 7.59351 37.9591C7.74387 37.9268 7.91572 37.9591 8.02849 37.8031L10.4612 37.7762Z" fill="#A83D01"/>
<path d="M10.4612 37.7762L8.05531 37.8031C6.165 32.7699 4.21024 27.7581 2.80861 22.5851C1.94474 19.3414 2.25673 15.8962 3.68918 12.8611C5.12163 9.82605 7.58184 7.39744 10.633 6.00652C11.8153 5.41363 13.0331 4.89461 14.2794 4.45245C14.4083 4.45245 14.5479 4.48472 14.6177 4.62453C12.5693 5.68916 10.8063 7.23113 9.47734 9.12057C8.14838 11.01 7.29232 13.1916 6.98127 15.4815C6.56776 18.0842 7.08867 20.6008 7.94791 23.0583C8.89844 25.7954 9.83823 28.5378 10.7995 31.2749C11.5352 33.3829 12.2924 35.4854 13.0442 37.588L12.2387 37.6687C11.7415 37.6048 11.2368 37.6358 10.7512 37.7601L10.4612 37.7762Z" fill="#474045"/>
<path d="M28.3708 9.26524C29.6167 8.88345 30.8734 8.53929 32.0978 8.1091C33.3577 7.66199 34.7432 7.73292 35.9509 8.30638C37.1587 8.87983 38.0904 9.90909 38.542 11.1688C39.992 15.0836 41.587 18.9446 43.1282 22.827C43.2159 23.0492 43.2543 23.2877 43.241 23.5261C42.0112 23.9993 40.7707 24.4564 39.5517 24.9565C39.0146 25.1716 38.8052 25.1124 38.585 24.5317C37.1565 20.7675 35.6206 17.0947 34.2351 13.3413C33.3222 10.8785 31.55 9.19533 28.3655 9.57713L28.3708 9.26524Z" fill="#473F44"/>
<path d="M59.3356 30.1134H54.148C53.2351 30.1134 52.698 29.651 52.6927 28.8927C52.6873 28.1345 53.2297 27.6667 54.1373 27.6613C57.6207 27.6613 61.106 27.6613 64.5931 27.6613C65.5168 27.6613 66.0162 28.1453 66.0001 28.9196C65.984 29.694 65.4631 30.1134 64.5233 30.1134H59.3356Z" fill="#D9303E"/>
<path d="M57.7943 19.3264C57.773 19.6838 57.6176 20.0199 57.3593 20.2674C55.9899 21.6441 54.6258 23.0261 53.2403 24.3865C53.1315 24.5237 52.9949 24.6363 52.8395 24.7169C52.6841 24.7975 52.5135 24.8443 52.3388 24.8541C52.164 24.864 51.9892 24.8367 51.8258 24.7741C51.6623 24.7115 51.514 24.615 51.3904 24.4909C51.2669 24.3668 51.171 24.218 51.1089 24.0541C51.0469 23.8903 51.0202 23.7151 51.0306 23.5402C51.041 23.3653 51.0882 23.1946 51.1692 23.0392C51.2502 22.8839 51.363 22.7474 51.5004 22.6389C52.8608 21.2515 54.232 19.8767 55.614 18.5144C55.7852 18.3063 56.0223 18.1629 56.286 18.1082C56.5497 18.0534 56.8242 18.0905 57.0639 18.2133C57.2782 18.3108 57.4606 18.4671 57.5899 18.6641C57.7191 18.8611 57.79 19.0907 57.7943 19.3264Z" fill="#DA3541"/>
<path d="M52.2844 32.8936C52.6561 32.9155 53.0047 33.0813 53.2564 33.356C54.6097 34.7111 55.9738 36.0447 57.311 37.4213C57.9232 38.0505 57.95 38.728 57.4398 39.2658C56.9297 39.8035 56.1993 39.8035 55.5495 39.1529C54.1855 37.8085 52.8644 36.4642 51.4843 35.0929C51.281 34.9172 51.1386 34.6814 51.0778 34.4195C51.017 34.1576 51.0409 33.8831 51.1459 33.6356C51.2364 33.4097 51.3943 33.2172 51.598 33.0844C51.8018 32.9516 52.0415 32.8849 52.2844 32.8936Z" fill="#DA3441"/>
<path d="M14.6177 4.62457C14.5479 4.48475 14.4083 4.46862 14.2794 4.45249C15.3174 3.94 16.395 3.51202 17.5015 3.17267C16.6745 3.9255 15.5736 4.16211 14.6177 4.62457Z" fill="#584F55"/>
<path d="M28.3708 9.26526V9.57177L25.3259 10.5128C25.6481 9.97508 26.2657 10.0396 26.7329 9.803C27.2633 9.5791 27.8111 9.39925 28.3708 9.26526Z" fill="#696065"/>
<path d="M18.2963 2.8715C18.2158 3.00593 18.0869 3.00593 17.9526 3.00593C17.9903 2.95209 18.043 2.9106 18.1042 2.88668C18.1653 2.86276 18.2322 2.85748 18.2963 2.8715Z" fill="#584F55"/>
<path d="M17.9687 2.99517C17.9419 3.09197 17.9097 3.16187 17.8237 3.03819C17.8659 3.00796 17.9169 2.99281 17.9687 2.99517Z" fill="#584F55"/>
<path d="M27.7855 73.993C26.0778 73.993 24.3754 73.993 22.6677 73.993C20.5196 73.993 18.5702 71.955 18.4252 69.7987C18.3071 68.0403 19.2307 66.755 19.9933 65.3677C20.6055 64.2492 21.2607 63.1522 21.9373 62.0713C22.2166 61.625 21.9857 61.3992 21.701 61.1303C20.2124 59.7788 19.2055 57.9775 18.8333 56.0002C18.4171 53.6766 18.9147 51.2817 20.222 49.3172C21.5293 47.3526 23.5449 45.9706 25.8468 45.4605C27.35 45.1031 28.9204 45.1463 30.4016 45.586C31.8828 46.0257 33.2231 46.8464 34.2888 47.9664C35.8308 49.5388 36.7513 51.6176 36.8797 53.8176C37.0081 56.0176 36.3356 58.1896 34.9869 59.9311C34.6765 60.3972 34.2982 60.814 33.8646 61.1679C33.4457 61.4637 33.4994 61.7057 33.7142 62.0982C34.6433 63.7114 35.524 65.3247 36.4906 66.9379C36.8699 67.5427 37.1051 68.2267 37.1782 68.937C37.2513 69.6474 37.1603 70.365 36.9121 71.0345C36.664 71.704 36.2654 72.3074 35.7472 72.798C35.229 73.2887 34.6051 73.6534 33.9236 73.864C33.3261 73.9942 32.7125 74.0341 32.1031 73.9823C30.6639 74.0038 29.2247 73.993 27.7855 73.993ZM27.7479 71.5786H32.1461C34.4123 71.5786 35.3682 69.9654 34.2459 67.9919L30.8895 62.1735C30.2504 61.055 30.3525 60.6194 31.3943 59.9096C31.55 59.8075 31.7004 59.6999 31.8507 59.587C33.024 58.6658 33.8527 57.3755 34.203 55.9244C34.5534 54.4733 34.4048 52.9464 33.7814 51.5903C33.158 50.2342 32.0961 49.1283 30.7674 48.4512C29.4387 47.7741 27.9208 47.5654 26.459 47.8589C25.1429 48.104 23.9356 48.7536 23.005 49.7172C22.0744 50.6809 21.4666 51.9109 21.266 53.2363C20.8311 56.0218 21.8621 58.2588 24.1767 59.8774C25.197 60.5925 25.3206 61.0604 24.7137 62.1412C23.5591 64.1524 22.3884 66.1528 21.2446 68.1693C20.2887 69.8632 21.2446 71.5409 23.2047 71.5571C24.703 71.5893 26.2281 71.5786 27.7479 71.5786Z" fill="#FF985E"/>
<path d="M10.7405 37.7601C11.2261 37.6359 11.7309 37.6049 12.228 37.6687C11.7474 37.8223 11.2362 37.8537 10.7405 37.7601Z" fill="#DAB72B"/>
<path d="M27.7479 71.5786C26.2282 71.5786 24.7138 71.5786 23.194 71.5786C21.25 71.5786 20.278 69.8847 21.2339 68.1908C22.3777 66.1743 23.5484 64.1739 24.703 62.1627C25.3206 61.0873 25.1971 60.6141 24.166 59.8989C21.8514 58.2856 20.8204 56.0433 21.2554 53.2578C21.4524 51.927 22.06 50.6912 22.993 49.7231C23.9261 48.7551 25.1379 48.1033 26.4591 47.8589C27.923 47.5652 29.443 47.7752 30.7728 48.4547C32.1027 49.1343 33.1644 50.2436 33.7859 51.6028C34.4075 52.9621 34.5524 54.4917 34.1973 55.9437C33.8422 57.3958 33.0078 58.6852 31.8293 59.6031C31.679 59.716 31.5286 59.8236 31.3728 59.9258C30.331 60.6356 30.229 61.0711 30.868 62.1896L34.2244 68.008C35.3468 69.96 34.3909 71.5947 32.1247 71.5947L27.7479 71.5786Z" fill="#473F43"/>
</g>
<defs>
<clipPath id="clip0_184_471">
<rect width="66" height="82" fill="white"/>
</clipPath>
</defs>
</svg>
