<svg width="24" height="24" viewBox="0 0 24 24" fill="none" xmlns="http://www.w3.org/2000/svg">
<path d="M16 7.5V21.5H5C3.9 21.5 3 20.6 3 19.5V7.5H16Z" fill="#2F356D"/>
<path d="M7 2.5V19.5C7 20.6 6.1 21.5 5 21.5H19.5C20.6 21.5 21.5 20.6 21.5 19.5V2.5H7Z" fill="#BCBEFF"/>
<path d="M10 5H19V7H10V5ZM10 8.5H14V9.5H10V8.5ZM15 8.5H19V9.5H15V8.5ZM10 10.5H14V11.5H10V10.5ZM15 10.5H19V11.5H15V10.5ZM10 12.5H14V13.5H10V12.5ZM15 12.5H19V13.5H15V12.5ZM10 14.5H14V15.5H10V14.5ZM15 14.5H19V15.5H15V14.5ZM10 16.5H14V17.5H10V16.5ZM15 16.5H19V17.5H15V16.5ZM10 18.5H14V19.5H10V18.5ZM15 18.5H19V19.5H15V18.5Z" fill="#2F356D"/>
</svg>
