<svg width="21" height="21" viewBox="0 0 21 21" fill="none" xmlns="http://www.w3.org/2000/svg">
<circle cx="10.5" cy="10.5" r="10.5" fill="#EA5400"/>
<path fill-rule="evenodd" clip-rule="evenodd" d="M10.2969 4C10.6334 4 10.9062 4.28163 10.9062 4.62903L10.9062 16.371C10.9062 16.7184 10.6334 17 10.2969 17C9.96033 17 9.6875 16.7184 9.6875 16.371L9.6875 4.62903C9.6875 4.28163 9.96033 4 10.2969 4Z" fill="white"/>
<path fill-rule="evenodd" clip-rule="evenodd" d="M4 10.5C4 10.1526 4.27283 9.87097 4.60938 9.87097H16.3906C16.7272 9.87097 17 10.1526 17 10.5C17 10.8474 16.7272 11.129 16.3906 11.129H4.60938C4.27283 11.129 4 10.8474 4 10.5Z" fill="white"/>
</svg>
