<svg width="28" height="28" viewBox="0 0 28 28" fill="none" xmlns="http://www.w3.org/2000/svg">
<path d="M14 0C6.26795 0 0 6.26795 0 14C0 21.732 6.26795 28 14 28C21.732 28 28 21.732 28 14C28 6.26795 21.732 0 14 0Z" fill="#40B3E0"/>
<path d="M20.812 8.05336L18.3113 20.6609C18.3113 20.6609 17.9616 21.5352 16.9999 21.1156L11.2295 16.6916L9.13126 15.6775L5.5991 14.4883C5.5991 14.4883 5.05704 14.296 5.00454 13.8764C4.95204 13.4567 5.6166 13.2294 5.6166 13.2294L19.6577 7.7213C19.6577 7.7213 20.8118 7.21423 20.8118 8.05358" fill="white"/>
<path d="M10.7864 20.5182C10.7864 20.5182 10.618 20.5024 10.408 19.8378C10.1983 19.1734 9.13159 15.6762 9.13159 15.6762L17.6123 10.2906C17.6123 10.2906 18.102 9.99332 18.0845 10.2906C18.0845 10.2906 18.1719 10.3431 17.9095 10.5879C17.6473 10.8328 11.2475 16.5856 11.2475 16.5856" fill="#D2E5F1"/>
<path d="M13.4425 18.3865L11.1601 20.4674C11.1601 20.4674 10.9816 20.6028 10.7865 20.518L11.2236 16.6526" fill="#B5CFE4"/>
</svg>
