<svg width="21" height="22" viewBox="0 0 21 22" fill="none" xmlns="http://www.w3.org/2000/svg">
<path fill-rule="evenodd" clip-rule="evenodd" d="M2.83442 21.5583C1.2707 21.5583 0 20.1924 0 18.5114V3.04863C0 1.36767 1.2707 -9.15527e-05 2.83442 -9.15527e-05H17.2204C18.7842 -9.15527e-05 20.0549 1.36767 20.0549 3.04863V18.5114C20.0549 20.1924 18.7842 21.5583 17.2204 21.5583H13.0256V13.011H15.264V10.7168H13.0256V9.37364C13.0256 8.82929 13.151 8.41249 13.4033 8.12025C13.6596 7.82922 14.0306 7.6837 14.5242 7.6837C14.7314 7.6837 14.9136 7.69627 15.0701 7.71723C15.2267 7.73999 15.3877 7.76634 15.5537 7.79628L15.8144 5.36736C15.4952 5.2937 15.2021 5.23561 14.9348 5.1937C14.6679 5.15357 14.4055 5.13261 14.1498 5.13261C12.8301 5.13261 11.8073 5.50031 11.0775 6.23389C10.3505 6.96927 9.98565 8.01486 9.98565 9.37364V10.7168H8.3094V13.011H9.98565V21.5583H2.83442Z" fill="white"/>
</svg>
