<svg width="21" height="22" viewBox="0 0 21 22" fill="none" xmlns="http://www.w3.org/2000/svg">
<g clip-path="url(#clip0_746_2640)">
<path fill-rule="evenodd" clip-rule="evenodd" d="M10.2984 1.94212C12.9762 1.94212 13.2938 1.95171 14.3511 2.00381C15.3277 2.05231 15.8591 2.22717 16.2134 2.37509C16.6819 2.57031 17.0162 2.80506 17.366 3.18114C17.7159 3.55901 17.9343 3.91951 18.1159 4.42134C18.2535 4.80041 18.4156 5.37231 18.4613 6.42328C18.5097 7.55989 18.5214 7.90123 18.5214 10.7787C18.5214 13.6573 18.5097 13.9987 18.4613 15.1353C18.4156 16.1869 18.2535 16.7564 18.1159 17.1372C17.9343 17.6409 17.7159 18.0002 17.366 18.3762C17.0162 18.7541 16.6819 18.9883 16.2134 19.1835C15.8591 19.3302 15.3277 19.5063 14.3511 19.5548C13.2938 19.6057 12.9762 19.6165 10.2984 19.6165C7.62048 19.6165 7.30406 19.6057 6.24561 19.5548C5.26738 19.5063 4.73704 19.3302 4.3844 19.1835C3.9159 18.9883 3.58221 18.7541 3.23236 18.3762C2.87917 18.0002 2.66414 17.6409 2.48086 17.1372C2.34326 16.7564 2.1806 16.1869 2.13547 15.1353C2.08701 13.9987 2.07698 13.6573 2.07698 10.7787C2.07698 7.90123 2.08701 7.55989 2.13547 6.42328C2.1806 5.37231 2.34326 4.80041 2.48086 4.42134C2.66414 3.91951 2.87917 3.55901 3.23236 3.18114C3.58221 2.80506 3.9159 2.57031 4.3844 2.37509C4.73704 2.22717 5.26738 2.05231 6.24561 2.00381C7.30406 1.95171 7.62048 1.94212 10.2984 1.94212ZM10.2984 6.67572e-05C7.5748 6.67572e-05 7.23387 0.0108471 6.16483 0.0647449C5.09747 0.116245 4.36658 0.298891 3.72872 0.565378C3.07081 0.840847 2.5115 1.21033 1.95219 1.80858C1.39623 2.40683 1.05195 3.00927 0.797368 3.7177C0.549467 4.40218 0.379558 5.18787 0.331649 6.33525C0.281512 7.48444 0.271484 7.85273 0.271484 10.7787C0.271484 13.7076 0.281512 14.0747 0.331649 15.2233C0.379558 16.3725 0.549467 17.1546 0.797368 17.8409C1.05195 18.5493 1.39623 19.1505 1.95219 19.75C2.5115 20.35 3.07081 20.7183 3.72872 20.992C4.36658 21.2597 5.09747 21.4435 6.16483 21.4956C7.23387 21.5459 7.5748 21.5603 10.2984 21.5603C13.0219 21.5603 13.3645 21.5459 14.4347 21.4956C15.5004 21.4435 16.2296 21.2597 16.868 20.992C17.5287 20.7183 18.0863 20.35 18.644 19.75C19.2022 19.1505 19.5431 18.5493 19.801 17.8409C20.05 17.1546 20.2183 16.3725 20.2667 15.2233C20.3147 14.0747 20.3264 13.7076 20.3264 10.7787C20.3264 7.85273 20.3147 7.48444 20.2667 6.33525C20.2183 5.18787 20.05 4.40218 19.801 3.7177C19.5431 3.00927 19.2022 2.40683 18.644 1.80858C18.0863 1.21033 17.5287 0.840847 16.868 0.565378C16.2296 0.298891 15.5004 0.116245 14.4347 0.0647449C13.3645 0.0108471 13.0219 6.67572e-05 10.2984 6.67572e-05ZM10.2984 5.24475C7.45503 5.24475 5.14872 7.72218 5.14872 10.7787C5.14872 13.837 7.45503 16.3156 10.2984 16.3156C13.1434 16.3156 15.4491 13.837 15.4491 10.7787C15.4491 7.72218 13.1434 5.24475 10.2984 5.24475ZM10.2984 14.3736C8.4522 14.3736 6.957 12.7651 6.957 10.7787C6.957 8.79411 8.4522 7.18501 10.2984 7.18501C12.1445 7.18501 13.6425 8.79411 13.6425 10.7787C13.6425 12.7651 12.1445 14.3736 10.2984 14.3736ZM16.8552 5.02438C16.8552 5.7406 16.3159 6.31968 15.653 6.31968C14.9879 6.31968 14.4492 5.7406 14.4492 5.02438C14.4492 4.31116 14.9879 3.73028 15.653 3.73028C16.3159 3.73028 16.8552 4.31116 16.8552 5.02438Z" fill="white"/>
</g>
<defs>
<clipPath id="clip0_746_2640">
<rect width="20.0549" height="21.5584" fill="white" transform="translate(0.271484)"/>
</clipPath>
</defs>
</svg>
