<svg width="82" height="82" viewBox="0 0 82 82" fill="none" xmlns="http://www.w3.org/2000/svg">
<path d="M42.9123 0C43.8376 0.210107 44.7806 0.356014 45.6825 0.636157C52.8687 2.8131 57.1851 7.58719 58.6669 14.9176C58.8351 15.5878 58.9236 16.2753 58.9304 16.9661C58.8953 17.7657 59.2584 17.8241 59.8851 17.7832C61.8721 17.649 63.8655 17.9232 65.7418 18.5886C68.8323 19.6842 71.4811 21.7521 73.2881 24.4801C75.0952 27.2081 75.9623 30.448 75.7586 33.7105C75.5549 36.9729 74.2914 40.0807 72.1589 42.5644C70.0265 45.0482 67.1408 46.773 63.9379 47.4783C63.0525 47.6784 62.1456 47.7685 61.238 47.7468C61.6772 47.2799 62.1165 46.8188 62.5499 46.3461C64.13 44.6912 65.2957 42.688 65.9521 40.4995C66.6085 38.3109 66.7372 35.9988 66.3275 33.7513C66.0171 31.748 65.2912 29.8311 64.1961 28.1228C63.101 26.4145 61.6607 24.9524 59.9671 23.8296C59.4231 23.351 58.7557 23.0336 58.0402 22.9133C57.6056 22.4806 57.0431 22.1983 56.4355 22.1079C56.3482 22.0512 56.2561 22.0024 56.1602 21.962C54.2905 21.3705 52.3236 21.1446 50.3679 21.2967C49.9579 21.2967 49.6534 21.2967 49.6475 20.713C49.6312 18.6103 49.1911 16.5323 48.3532 14.6024C47.413 12.3043 46.004 10.2258 44.2155 8.49882C42.427 6.7718 40.298 5.43387 37.9633 4.56982C35.5201 3.69547 32.9224 3.3319 30.332 3.50178C32.1886 2.03669 34.3525 1.00734 36.6631 0.490249C37.448 0.285979 38.2562 0.163416 39.0527 0H42.9123Z" fill="#272B57"/>
<path d="M30.332 3.50177C32.9157 3.33058 35.5072 3.69014 37.9457 4.55814C40.2864 5.42337 42.4206 6.76487 44.2124 8.49718C46.0043 10.2295 47.4144 12.3147 48.3531 14.6199C49.191 16.5498 49.6312 18.6278 49.6475 20.7305C49.6475 21.3142 49.9579 21.3142 50.3679 21.3142C52.3147 21.1594 54.2733 21.3794 56.1367 21.962C56.2326 22.0024 56.3248 22.0512 56.412 22.1079H49.0149C41.2997 22.1079 33.5883 22.1079 25.8809 22.1079C25.5763 22.1015 25.2737 22.1584 24.9924 22.2749C24.711 22.3914 24.4571 22.5649 24.2466 22.7845C24.0362 23.004 23.874 23.2648 23.7701 23.5502C23.6663 23.8357 23.6232 24.1395 23.6436 24.4424C23.6436 26.4443 23.6436 28.4461 23.6436 30.448C23.4035 31.8253 24.0829 32.7008 25.2249 33.3194C24.0536 33.7163 23.6202 34.6034 23.626 35.7765C23.626 37.685 23.626 39.5934 23.626 41.4961C23.5031 42.6633 23.708 43.6964 24.9204 44.2567C24.9907 44.2917 25.0024 44.4376 25.0434 44.5251C24.7173 44.6246 24.4237 44.809 24.1931 45.0594C23.9625 45.3097 23.8031 45.6169 23.7315 45.9492C23.6226 46.5399 23.5775 47.1406 23.5968 47.7409C19.4907 47.3916 15.6147 45.7034 12.5686 42.9376C10.3769 41.0241 8.66853 38.623 7.5818 35.9289C6.49508 33.2347 6.0606 30.3233 6.31357 27.4306C6.56433 23.3108 8.21703 19.3994 10.9989 16.3416C14.0522 12.7706 18.378 10.5211 23.0638 10.0676C24.5983 9.88085 25.2249 9.27971 25.9043 8.17081C27.0069 6.30082 28.5208 4.70442 30.332 3.50177Z" fill="#383E79"/>
<path d="M49.015 22.1137H56.412C57.0197 22.2041 57.5822 22.4864 58.0168 22.9191C58.2917 23.6102 58.4039 24.355 58.3447 25.0961C58.3447 26.987 58.292 28.878 58.3447 30.7631C58.3799 31.9304 57.9699 32.8 56.8161 33.2494C58.1515 34.0256 58.3272 34.3291 58.3272 35.8232C58.3272 37.7141 58.2803 39.6051 58.3272 41.4961C58.3682 42.745 58.1398 43.7956 56.8103 44.4142C57.8411 44.9045 58.3682 45.5815 58.3096 46.6612C58.3096 47.0347 58.3096 47.4082 58.3096 47.7818C58.3096 49.5618 58.3096 51.3477 58.3096 53.1278C58.3096 54.7386 57.4721 55.579 55.8381 55.5849C51.305 55.5849 46.768 55.5849 42.227 55.5849H39.7145H26.244C24.3992 55.5849 23.5675 54.727 23.5792 52.8827H24.6217H46.766C47.0657 52.9137 47.3686 52.8786 47.6532 52.7796C47.9377 52.6807 48.1968 52.5205 48.4121 52.3104C48.6275 52.1003 48.7936 51.8455 48.8988 51.5641C49.004 51.2827 49.0457 50.9817 49.0208 50.6824C49.0208 48.8965 48.9857 47.1047 49.0208 45.3188C49.0208 44.5893 48.8334 44.3792 48.0896 44.3792C40.8156 44.3636 33.5376 44.3558 26.2557 44.3558C25.8607 44.3653 25.4679 44.4182 25.0844 44.5134C25.0434 44.4259 25.0317 44.28 24.9614 44.245C23.7491 43.6613 23.5441 42.6633 23.6671 41.4844C23.9269 41.6293 24.2275 41.6846 24.5222 41.642H46.9886C47.2635 41.6707 47.5415 41.6376 47.8019 41.5452C48.0624 41.4528 48.2988 41.3034 48.4937 41.1081C48.6887 40.9127 48.8372 40.6763 48.9284 40.4162C49.0196 40.1561 49.0512 39.8789 49.0208 39.6051C49.0208 37.8542 49.0208 36.1033 49.0208 34.3524C49.0208 33.3369 49.0208 33.3311 47.9608 33.3311H25.2367C24.0653 32.7124 23.4152 31.837 23.6554 30.4596C23.9164 30.6013 24.2159 30.6565 24.5104 30.6172H46.6489C48.2243 30.6172 48.9916 29.841 48.9916 28.2827C49.0208 26.2166 49.015 24.1681 49.015 22.1137Z" fill="#CED7DF"/>
<path d="M25.0727 44.5076C25.4561 44.4124 25.8489 44.3595 26.244 44.35C33.5298 44.35 40.8136 44.35 48.0954 44.35C48.8392 44.35 49.0501 44.5601 49.0267 45.2897C48.9739 47.0756 49.0267 48.8673 49.0267 50.6532C49.0515 50.9525 49.0099 51.2536 48.9047 51.535C48.7994 51.8163 48.6333 52.0712 48.418 52.2813C48.2027 52.4914 47.9435 52.6516 47.659 52.7505C47.3745 52.8494 47.0715 52.8846 46.7718 52.8535H24.6803H23.6378C23.6378 51.1435 23.6378 49.4334 23.6378 47.7234C23.6185 47.1231 23.6636 46.5224 23.7725 45.9317C23.8431 45.6008 24.0007 45.2945 24.2292 45.0443C24.4576 44.7941 24.7487 44.6088 25.0727 44.5076ZM29.1314 51.4061C29.522 51.4145 29.9009 51.2723 30.1889 51.0092C30.4769 50.746 30.652 50.3823 30.6775 49.9937C30.6828 49.59 30.5317 49.1998 30.2558 48.9042C29.9799 48.6086 29.6002 48.4302 29.1958 48.4063C28.7907 48.4107 28.4033 48.5723 28.1157 48.8567C27.8281 49.1411 27.6631 49.5259 27.6555 49.9295C27.66 50.3187 27.8168 50.6908 28.0924 50.9666C28.3681 51.2424 28.7408 51.4001 29.1314 51.4061ZM36.6221 49.9587C36.6184 49.5611 36.4633 49.1796 36.1883 48.8915C35.9133 48.6033 35.5387 48.4299 35.1404 48.4063C34.7492 48.4175 34.3765 48.575 34.0965 48.8475C33.8166 49.12 33.6498 49.4875 33.6293 49.877C33.6185 50.2764 33.7672 50.6637 34.0429 50.9537C34.3186 51.2438 34.6986 51.4128 35.0994 51.4236C35.5001 51.4345 35.8888 51.2862 36.1798 51.0115C36.4709 50.7368 36.6405 50.3581 36.6514 49.9587H36.6221Z" fill="#F2F2F2"/>
<path d="M63.7681 69.843C64.4767 68.4481 65.1444 67.0182 66.3392 65.9444C68.064 64.3364 70.3373 63.4411 72.6993 63.4397C75.0612 63.4383 77.3356 64.3307 79.0624 65.9366C80.7892 67.5425 81.8396 69.7419 82.0012 72.0901C82.1627 74.4384 81.4234 76.7601 79.9326 78.5858C79.5635 79.1434 79.0628 79.6023 78.4743 79.9223L78.4216 79.3678C78.1405 76.8349 76.0086 74.6521 73.6308 74.4537C73.5078 74.0101 73.9354 74.0918 74.1228 73.9984C74.7854 73.6706 75.3148 73.1259 75.6225 72.4554C75.9301 71.785 75.9973 71.0296 75.8127 70.3157C75.6281 69.6018 75.203 68.9728 74.6086 68.534C74.0141 68.0952 73.2864 67.8733 72.5473 67.9053C71.8485 67.9448 71.1815 68.2092 70.6464 68.6588C70.1113 69.1084 69.737 69.7189 69.5799 70.3985C69.4228 71.0782 69.4912 71.7903 69.775 72.4279C70.0587 73.0655 70.5424 73.5941 71.1534 73.9342C71.376 74.0685 71.8679 73.9342 71.8035 74.4537C71.5092 74.4378 71.2151 74.4877 70.9426 74.5996C68.4476 75.5042 67.165 77.3135 66.9424 79.9165C65.9621 79.1935 65.1471 78.2712 64.5514 77.2107C63.9557 76.1503 63.5928 74.9757 63.487 73.765C63.4576 73.2888 63.4576 72.8113 63.487 72.3351C63.3698 71.483 63.7739 70.6893 63.7681 69.843Z" fill="#CDD6DE"/>
<path d="M35.1873 79.753C34.2671 79.2272 33.5218 78.4439 33.0437 77.5002C32.1138 75.9513 31.6352 74.1749 31.6616 72.3701L32.1359 69.8605C32.6445 68.315 33.5508 66.9294 34.7645 65.8418C35.9781 64.7543 37.4567 64.0028 39.0527 63.6624C39.287 63.604 39.5271 63.5923 39.7614 63.5573C40.5831 63.4727 41.4113 63.4727 42.2329 63.5573C45.5361 63.82 48.7632 66.4755 49.8467 69.8722C50.0933 70.6795 50.2504 71.5112 50.3152 72.3526C50.3934 74.8742 49.4645 77.3237 47.7324 79.1636C47.5065 79.4649 47.177 79.6727 46.807 79.7472C46.3854 76.759 44.7103 74.9031 41.536 74.2728C43.3633 73.6891 44.2418 72.5219 44.1832 70.9111C44.145 70.2059 43.8733 69.5334 43.4105 68.9986C42.9478 68.4638 42.3202 68.097 41.6259 67.9555C40.9317 67.8141 40.21 67.906 39.5737 68.2169C38.9375 68.5278 38.4227 69.0402 38.1098 69.6738C37.8879 70.1023 37.7691 70.5765 37.763 71.0587C37.7569 71.5409 37.8636 72.0179 38.0747 72.4518C38.4788 73.3681 39.246 73.8876 40.3646 74.3253C38.8006 74.5337 37.379 75.3393 36.3996 76.5723C35.7496 77.5225 35.3342 78.6124 35.1873 79.753Z" fill="#CDD6DE"/>
<path d="M18.6479 72.3701C18.6747 73.7226 18.4105 75.0652 17.8731 76.3075C17.3356 77.5498 16.5374 78.663 15.5321 79.5721C15.3798 79.7121 15.2568 79.8989 15.0167 79.9164L14.9464 79.2919C14.6653 76.829 12.4807 74.6229 10.1556 74.4536C10.0619 74.1035 10.384 74.156 10.548 74.0801C11.2371 73.7947 11.8056 73.2801 12.1568 72.6239C12.5079 71.9677 12.62 71.2106 12.474 70.4813C12.3279 69.752 11.9327 69.0958 11.3557 68.6242C10.7787 68.1526 10.0556 67.8949 9.30931 67.8949C8.56306 67.8949 7.83988 68.1526 7.26287 68.6242C6.68587 69.0958 6.2907 69.752 6.14466 70.4813C5.99861 71.2106 6.11071 71.9677 6.46186 72.6239C6.81302 73.2801 7.38153 73.7947 8.07061 74.0801C8.22289 74.1502 8.56843 74.0801 8.4513 74.4478C8.13045 74.4348 7.81014 74.4844 7.50836 74.5937C5.16567 75.3408 3.71906 77.2609 3.49651 79.9281C2.33618 79.022 1.41132 77.8514 0.799777 76.5148C0.18824 75.1781 -0.0920623 73.7146 -0.017527 72.2475C0.0468969 68.1621 3.72492 64.1759 7.8012 63.5573C9.99434 63.2361 12.2311 63.6908 14.1228 64.8423C16.0144 65.9938 17.4415 67.7694 18.1559 69.8605L18.6479 72.3701Z" fill="#CDD6DF"/>
<path d="M58.3448 47.7526C58.3448 47.3791 58.3448 47.0055 58.3448 46.632C58.4033 45.5698 57.8762 44.8811 56.8455 44.385C58.1749 43.8014 58.4033 42.7217 58.3624 41.4669C58.2979 39.5759 58.3624 37.685 58.3624 35.794C58.3624 34.2999 58.1866 33.9964 56.8513 33.2202C58.0227 32.7708 58.4151 31.9304 58.3799 30.7339C58.3155 28.8488 58.3799 26.9579 58.3799 25.0669C58.4391 24.3258 58.3269 23.5811 58.0519 22.89C58.7674 23.0103 59.4349 23.3277 59.9788 23.8063C61.6724 24.929 63.1127 26.3912 64.2078 28.0994C65.3029 29.8077 66.0288 31.7246 66.3392 33.728C66.7489 35.9754 66.6203 38.2875 65.9639 40.4761C65.3074 42.6647 64.1417 44.6679 62.5616 46.3227C62.1282 46.7954 61.689 47.2565 61.2497 47.7234C60.2599 48.0502 59.2994 47.6067 58.3448 47.7526Z" fill="#383E79"/>
<path d="M35.1873 79.753C35.343 78.6144 35.7664 77.5285 36.423 76.5839C37.408 75.3457 38.839 74.5395 40.4115 74.3369C39.2987 73.8992 38.5256 73.3798 38.1215 72.4635C37.9104 72.0295 37.8037 71.5525 37.8098 71.0703C37.8159 70.5881 37.9347 70.1139 38.1566 69.6854C38.4695 69.0518 38.9843 68.5395 39.6205 68.2286C40.2568 67.9177 40.9785 67.8257 41.6727 67.9672C42.367 68.1086 42.9946 68.4754 43.4573 69.0102C43.9201 69.545 44.1918 70.2176 44.23 70.9227C44.2886 72.5393 43.4101 73.7183 41.5828 74.2844C44.7279 74.9147 46.4029 76.7707 46.8539 79.7589C46.8539 79.9981 46.6664 80.1207 46.4907 80.2549C43.4921 82.5894 38.4904 82.5486 35.5504 80.1907C35.4597 80.1512 35.3796 80.091 35.3165 80.0149C35.2535 79.9389 35.2092 79.8492 35.1873 79.753ZM41.0791 74.3778C40.9781 74.3376 40.8744 74.3044 40.7687 74.2786C40.6926 74.2786 40.5227 74.1793 40.5989 74.3603C40.675 74.5412 40.8449 74.4828 41.0791 74.3778Z" fill="#456377"/>
<path d="M10.1556 74.4536C12.4983 74.6229 14.6652 76.829 14.9464 79.2919L15.0166 79.9164C13.806 81.0533 12.2461 81.7503 10.589 81.8949C9.33669 82.0945 8.05591 82.0215 6.83463 81.681C5.61336 81.3404 4.48055 80.7405 3.51404 79.9223C3.73659 77.2551 5.1832 75.3349 7.52589 74.5879C7.82767 74.4785 8.14798 74.429 8.46883 74.442L10.1556 74.4536Z" fill="#456377"/>
<path d="M73.6308 74.4537C76.0086 74.6521 78.1404 76.8349 78.4216 79.3678L78.4743 79.9223C75.7568 82.1343 72.7288 82.5019 69.4666 81.3989C68.5173 81.1155 67.6511 80.6068 66.9424 79.9165C67.1649 77.3135 68.4476 75.5042 70.9425 74.5996C71.215 74.4877 71.5092 74.4378 71.8035 74.4537H73.6308Z" fill="#456376"/>
<path d="M18.6478 72.3701L18.1559 69.8605H32.1359L31.6615 72.3701H18.6478Z" fill="#4A667A"/>
<path d="M50.3094 72.3701C50.2445 71.5287 50.0874 70.697 49.8408 69.8897L63.7681 69.8547C63.7681 70.7009 63.3699 71.4947 63.4694 72.3468L50.3094 72.3701Z" fill="#4A667A"/>
<path d="M42.2329 63.5631C41.4112 63.4785 40.583 63.4785 39.7614 63.5631V55.5849H42.2739C42.2544 58.2424 42.2407 60.9018 42.2329 63.5631Z" fill="#4A667A"/>
<path d="M49.0149 22.1137C49.0149 24.1681 49.0149 26.1991 49.0149 28.271C49.0149 29.8118 48.2184 30.6055 46.6722 30.6055H24.5104C24.2158 30.6448 23.9163 30.5896 23.6553 30.4479C23.6553 28.4461 23.6553 26.4442 23.6553 24.4424C23.6349 24.1395 23.678 23.8357 23.7818 23.5502C23.8857 23.2648 24.0479 23.004 24.2583 22.7845C24.4688 22.5649 24.7227 22.3914 25.004 22.2749C25.2854 22.1584 25.588 22.1015 25.8926 22.1079C33.6 22.1001 41.3075 22.102 49.0149 22.1137ZM30.6775 27.3664C30.6868 26.967 30.5366 26.5803 30.2598 26.2914C29.983 26.0024 29.6024 25.8349 29.2016 25.8256C28.8009 25.8163 28.4128 25.966 28.1229 26.2419C27.8329 26.5177 27.6648 26.897 27.6555 27.2963C27.6461 27.6957 27.7964 28.0824 28.0732 28.3713C28.35 28.6603 28.7306 28.8278 29.1313 28.8371C29.5321 28.8464 29.9201 28.6967 30.2101 28.4209C30.5001 28.145 30.6682 27.7657 30.6775 27.3664ZM36.6221 27.4306C36.6477 27.2262 36.6311 27.0188 36.5734 26.8211C36.5156 26.6234 36.418 26.4395 36.2864 26.2807C36.1547 26.122 35.992 25.9917 35.808 25.8978C35.6241 25.804 35.4228 25.7486 35.2166 25.7351C35.0104 25.7216 34.8036 25.7501 34.6089 25.8191C34.4142 25.8881 34.2357 25.996 34.0843 26.1361C33.9329 26.2763 33.8119 26.4458 33.7286 26.6343C33.6453 26.8228 33.6016 27.0262 33.6 27.2321C33.5971 27.6178 33.7423 27.9899 34.0057 28.2724C34.2692 28.5549 34.631 28.7264 35.0171 28.7518C35.4033 28.7771 35.7846 28.6544 36.0829 28.4088C36.3813 28.1632 36.5742 27.8133 36.6221 27.4306Z" fill="#F2F2F2"/>
<path d="M25.2367 33.3019H47.9608C49.0208 33.3019 49.0208 33.3019 49.0208 34.3233C49.0208 36.0742 49.0208 37.8251 49.0208 39.576C49.0512 39.8498 49.0196 40.127 48.9284 40.3871C48.8372 40.6471 48.6887 40.8836 48.4937 41.0789C48.2988 41.2743 48.0624 41.4237 47.8019 41.5161C47.5415 41.6085 47.2635 41.6415 46.9885 41.6128H24.5104C24.2158 41.6555 23.9152 41.6001 23.6553 41.4553C23.6553 39.5526 23.6553 37.6441 23.6553 35.7357C23.6319 34.5859 24.0478 33.6988 25.2367 33.3019ZM29.1431 37.3115C28.7524 37.3174 28.3793 37.4739 28.1019 37.7481C27.8245 38.0224 27.6645 38.393 27.6555 38.7822C27.657 39.1858 27.8173 39.5728 28.1021 39.8598C28.3868 40.1468 28.7733 40.3111 29.1782 40.3172C29.5833 40.2962 29.9647 40.121 30.2438 39.8277C30.5228 39.5344 30.6781 39.1455 30.6776 38.7414C30.655 38.3523 30.4831 37.9867 30.1974 37.7205C29.9117 37.4543 29.5342 37.3078 29.1431 37.3115ZM35.0994 37.3115C34.8992 37.3122 34.7012 37.3527 34.517 37.4306C34.3327 37.5085 34.1659 37.6223 34.0263 37.7652C33.8866 37.9081 33.777 38.0774 33.7039 38.263C33.6307 38.4487 33.5954 38.647 33.6001 38.8464C33.6195 39.2413 33.79 39.6138 34.0765 39.8873C34.3629 40.1608 34.7436 40.3147 35.1404 40.3172C35.5455 40.2992 35.9281 40.1269 36.2094 39.8358C36.4906 39.5447 36.6488 39.1571 36.6514 38.753C36.6317 38.3588 36.4586 37.9877 36.1688 37.7186C35.879 37.4494 35.4954 37.3034 35.0994 37.3115Z" fill="#F2F2F2"/>
<path d="M29.1314 51.4061C28.7409 51.4001 28.3681 51.2424 28.0925 50.9666C27.8168 50.6908 27.66 50.3187 27.6555 49.9295C27.6631 49.5259 27.8282 49.1411 28.1158 48.8567C28.4033 48.5723 28.7907 48.4107 29.1958 48.4062C29.6003 48.4302 29.9799 48.6086 30.2558 48.9042C30.5318 49.1998 30.6828 49.59 30.6776 49.9937C30.652 50.3823 30.477 50.746 30.1889 51.0091C29.9009 51.2723 29.5221 51.4145 29.1314 51.4061Z" fill="#EE7563"/>
<path d="M36.6221 49.9587C36.6112 50.3581 36.4416 50.7368 36.1506 51.0115C35.8595 51.2862 35.4708 51.4345 35.0701 51.4236C34.6693 51.4128 34.2893 51.2437 34.0136 50.9537C33.7379 50.6637 33.5892 50.2763 33.6 49.877C33.6209 49.4826 33.7918 49.1109 34.078 48.8377C34.3641 48.5644 34.744 48.4102 35.1404 48.4062C35.5387 48.4299 35.9133 48.6033 36.1883 48.8915C36.4633 49.1796 36.6184 49.561 36.6221 49.9587Z" fill="#EE7563"/>
<path d="M73.6308 74.4537H71.8035C71.8679 73.9459 71.3759 74.0685 71.1534 73.9342C70.5424 73.594 70.0586 73.0654 69.7749 72.4279C69.4912 71.7903 69.4227 71.0782 69.5799 70.3985C69.737 69.7188 70.1112 69.1084 70.6463 68.6588C71.1814 68.2092 71.8485 67.9448 72.5473 67.9053C73.2863 67.8733 74.014 68.0952 74.6085 68.534C75.203 68.9728 75.6281 69.6018 75.8127 70.3157C75.9973 71.0296 75.9301 71.785 75.6224 72.4554C75.3148 73.1259 74.7853 73.6706 74.1227 73.9984C73.9353 74.121 73.5078 74.0101 73.6308 74.4537Z" fill="#456377"/>
<path d="M10.1556 74.4537H8.45131C8.56845 74.086 8.2229 74.156 8.07063 74.086C7.37711 73.7902 6.80817 73.2636 6.46101 72.5961C6.11384 71.9287 6.00999 71.1619 6.16719 70.4266C6.28562 69.8872 6.54168 69.3873 6.91063 68.9754C7.27958 68.5634 7.74893 68.2532 8.27333 68.0748C8.79774 67.8964 9.35945 67.8559 9.90418 67.9571C10.4489 68.0582 10.9582 68.2977 11.3829 68.6524C11.8076 69.0071 12.1333 69.4649 12.3286 69.9817C12.5238 70.4984 12.582 71.0567 12.4975 71.6024C12.4129 72.1481 12.1886 72.6628 11.846 73.0969C11.5035 73.5309 11.0544 73.8696 10.5422 74.0801C10.384 74.156 10.0619 74.121 10.1556 74.4537Z" fill="#456477"/>
<path d="M41.0791 74.3778C40.8448 74.4829 40.6574 74.5062 40.5988 74.3778C40.5402 74.2494 40.6925 74.2844 40.7686 74.2961C40.8739 74.3162 40.9776 74.3435 41.0791 74.3778Z" fill="#456377"/>
<path d="M30.6775 27.3781C30.6729 27.5758 30.6292 27.7707 30.549 27.9517C30.4688 28.1326 30.3537 28.296 30.2101 28.4326C30.0665 28.5692 29.8973 28.6762 29.7123 28.7476C29.5272 28.8191 29.3298 28.8535 29.1313 28.8489C28.9329 28.8443 28.7373 28.8008 28.5558 28.7208C28.3742 28.6409 28.2102 28.5261 28.0732 28.3831C27.9361 28.24 27.8287 28.0714 27.757 27.887C27.6853 27.7025 27.6508 27.5058 27.6554 27.3081C27.6648 26.9087 27.8329 26.5294 28.1229 26.2536C28.4128 25.9778 28.8009 25.828 29.2016 25.8373C29.6024 25.8466 29.983 26.0142 30.2598 26.3031C30.5366 26.5921 30.6868 26.9788 30.6775 27.3781Z" fill="#EE7563"/>
<path d="M36.6221 27.4306C36.5742 27.8133 36.3813 28.1633 36.0829 28.4089C35.7846 28.6545 35.4033 28.7772 35.0171 28.7518C34.631 28.7265 34.2691 28.555 34.0057 28.2725C33.7423 27.99 33.5971 27.6178 33.6 27.2322C33.6016 27.0263 33.6453 26.8228 33.7286 26.6344C33.8119 26.4459 33.9329 26.2764 34.0843 26.1362C34.2356 25.996 34.4142 25.8881 34.6089 25.8192C34.8036 25.7502 35.0104 25.7216 35.2166 25.7351C35.4228 25.7487 35.6241 25.8041 35.808 25.8979C35.992 25.9917 36.1547 26.122 36.2863 26.2808C36.418 26.4395 36.5156 26.6234 36.5734 26.8212C36.6311 27.0189 36.6477 27.2263 36.6221 27.4306Z" fill="#EE7563"/>
<path d="M29.1431 37.3115C29.5342 37.3078 29.9117 37.4543 30.1974 37.7205C30.4831 37.9867 30.655 38.3522 30.6776 38.7414C30.6781 39.1455 30.5228 39.5344 30.2438 39.8277C29.9647 40.121 29.5833 40.2962 29.1783 40.3172C28.7733 40.3111 28.3869 40.1468 28.1021 39.8598C27.8174 39.5728 27.657 39.1858 27.6555 38.7822C27.6646 38.393 27.8245 38.0223 28.1019 37.7481C28.3793 37.4739 28.7525 37.3174 29.1431 37.3115Z" fill="#EE7563"/>
<path d="M35.0994 37.3115C35.4904 37.311 35.8666 37.4604 36.1501 37.7288C36.4335 37.9971 36.6026 38.3639 36.6221 38.753C36.6199 39.1523 36.4657 39.5359 36.1907 39.8262C35.9156 40.1166 35.5402 40.292 35.1404 40.3172C34.7487 40.3073 34.3753 40.1502 34.095 39.8774C33.8148 39.6047 33.6484 39.2363 33.6293 38.8464C33.6247 38.6494 33.659 38.4534 33.7303 38.2697C33.8017 38.0859 33.9087 37.918 34.0452 37.7754C34.1817 37.6329 34.3451 37.5185 34.526 37.4389C34.7068 37.3593 34.9017 37.316 35.0994 37.3115Z" fill="#EE7563"/>
</svg>
