<svg width="16" height="12" viewBox="0 0 16 12" fill="none" xmlns="http://www.w3.org/2000/svg">
<path fill-rule="evenodd" clip-rule="evenodd" d="M4.65119 3.35987C3.64383 4.14252 2.83761 5.08731 2.35799 5.71341L2.35528 5.71695L2.35527 5.71694C2.29231 5.798 2.25814 5.89771 2.25814 6.00034C2.25814 6.10297 2.29231 6.20268 2.35527 6.28373L2.35782 6.28702L2.35781 6.28703C2.88949 6.98047 3.81575 8.05759 4.96805 8.87576C5.26826 9.08891 5.33883 9.50508 5.12567 9.80529C4.91251 10.1055 4.49634 10.1761 4.19613 9.96292C2.8893 9.03504 1.86939 7.84114 1.30084 7.0998C1.0571 6.78515 0.924805 6.3984 0.924805 6.00034C0.924805 5.60234 1.05706 5.21564 1.30073 4.90102C1.81662 4.22774 2.70157 3.18613 3.83316 2.30697C4.95812 1.43295 6.39506 0.666672 8.00009 0.666672C9.44164 0.666672 10.7456 1.28473 11.8065 2.03943C12.1065 2.25284 12.1768 2.66907 11.9633 2.9691C11.7499 3.26913 11.3337 3.33934 11.0337 3.12592C10.0946 2.45795 9.05987 2.00001 8.00009 2.00001C6.81712 2.00001 5.66606 2.57139 4.65119 3.35987Z" fill="white"/>
<path fill-rule="evenodd" clip-rule="evenodd" d="M6.979 3.52794C7.30451 3.39393 7.65334 3.3257 8.00535 3.32717C8.35737 3.32865 8.70561 3.3998 9.02999 3.53654C9.35437 3.67327 9.64846 3.87288 9.89531 4.12384C10.1535 4.38633 10.15 4.80843 9.88752 5.06662C9.62503 5.32481 9.20294 5.32132 8.94475 5.05883C8.82132 4.93335 8.67427 4.83354 8.51208 4.76518C8.3499 4.69681 8.17577 4.66123 7.99977 4.66049C7.82376 4.65976 7.64935 4.69387 7.48659 4.76088C7.32383 4.82789 7.17596 4.92645 7.05148 5.0509C6.92701 5.17534 6.82841 5.32319 6.76137 5.48593C6.69432 5.64867 6.66016 5.82308 6.66086 5.99909C6.66155 6.17509 6.69709 6.34922 6.76542 6.51143C6.83375 6.67363 6.93352 6.82071 7.05897 6.94416C7.3214 7.20241 7.32479 7.62451 7.06653 7.88694C6.80828 8.14937 6.38619 8.15276 6.12376 7.89451C5.87285 7.6476 5.67332 7.35345 5.53666 7.02904C5.4 6.70463 5.32893 6.35637 5.32754 6.00436C5.32614 5.65234 5.39446 5.30353 5.52855 4.97805C5.66264 4.65257 5.85984 4.35686 6.10879 4.10798C6.35773 3.85909 6.65349 3.66196 6.979 3.52794Z" fill="white"/>
<path fill-rule="evenodd" clip-rule="evenodd" d="M13.8047 0.195262C14.0651 0.455612 14.0651 0.877722 13.8047 1.13807L3.13807 11.8047C2.87772 12.0651 2.45561 12.0651 2.19526 11.8047C1.93491 11.5444 1.93491 11.1223 2.19526 10.8619L12.8619 0.195262C13.1223 -0.0650874 13.5444 -0.0650874 13.8047 0.195262Z" fill="white"/>
<path fill-rule="evenodd" clip-rule="evenodd" d="M12.5843 3.51989C12.8495 3.26444 13.2715 3.2723 13.5269 3.53745C13.9428 3.96909 14.334 4.42381 14.6987 4.89945C14.9426 5.21406 15.075 5.60079 15.0752 5.99889C15.0754 6.39708 14.9433 6.78401 14.6996 7.09888C14.1837 7.77215 13.2988 8.81382 12.1671 9.69303C11.0421 10.567 9.60521 11.3333 8.00017 11.3333H7.99714V11.3333C7.48219 11.331 6.9702 11.2552 6.47665 11.1083C6.12376 11.0032 5.92284 10.632 6.02788 10.2791C6.13292 9.92625 6.50415 9.72533 6.85704 9.83037C7.2286 9.94097 7.61401 9.99809 8.00167 10C9.18411 9.99952 10.3346 9.42828 11.3491 8.64013C12.3564 7.85748 13.1627 6.91269 13.6423 6.28659L13.6448 6.28336C13.7078 6.20216 13.7419 6.1023 13.7419 5.99954C13.7418 5.89677 13.7076 5.79695 13.6445 5.71581L13.6417 5.71225L13.6417 5.71224C13.3072 5.2758 12.9483 4.85857 12.5667 4.46254C12.3113 4.19738 12.3191 3.77535 12.5843 3.51989Z" fill="white"/>
</svg>
