<svg width="16" height="12" viewBox="0 0 16 12" fill="none" xmlns="http://www.w3.org/2000/svg">
<path fill-rule="evenodd" clip-rule="evenodd" d="M4.65111 3.35995C3.64375 4.1426 2.83753 5.08738 2.35791 5.71349L2.35516 5.71707L2.35515 5.71706C2.29227 5.79801 2.25814 5.89758 2.25814 6.00008C2.25814 6.10258 2.29227 6.20215 2.35515 6.2831L2.35792 6.28666L2.35791 6.28667C2.83753 6.91278 3.64375 7.85756 4.65111 8.64021C5.66598 9.4287 6.81704 10.0001 8.00001 10.0001C9.18298 10.0001 10.334 9.4287 11.3489 8.64021C12.3459 7.86558 13.1459 6.93213 13.6273 6.30602C13.6596 6.2536 13.7093 6.14398 13.7236 6.02201C13.7325 5.94594 13.727 5.87851 13.7028 5.81625C13.6872 5.78054 13.6669 5.74595 13.6419 5.71317C13.1622 5.08706 12.3561 4.14246 11.3489 3.35995C10.334 2.57146 9.18298 2.00008 8.00001 2.00008C6.81704 2.00008 5.66598 2.57146 4.65111 3.35995ZM14.9429 5.32555C14.8863 5.18167 14.8066 5.03814 14.6982 4.8996C14.1822 4.22628 13.2977 3.18556 12.1669 2.30705C11.042 1.43303 9.60504 0.666748 8.00001 0.666748C6.39498 0.666748 4.95804 1.43303 3.83308 2.30705C2.7015 3.1862 1.81656 4.22779 1.30067 4.90106C1.05704 5.21559 0.924805 5.60218 0.924805 6.00008C0.924805 6.39797 1.05703 6.78455 1.30065 7.09907C1.81654 7.77235 2.70149 8.81395 3.83308 9.69312C4.95804 10.5671 6.39498 11.3334 8.00001 11.3334C9.60504 11.3334 11.042 10.5671 12.1669 9.69312C13.2994 8.81326 14.1849 7.77072 14.7006 7.09749L14.7006 7.0974C15.0986 6.57766 15.1791 5.90671 14.9429 5.32555Z" fill="white"/>
<path fill-rule="evenodd" clip-rule="evenodd" d="M7.9998 4.66675C7.26342 4.66675 6.66646 5.2637 6.66646 6.00008C6.66646 6.73646 7.26342 7.33341 7.9998 7.33341C8.73618 7.33341 9.33313 6.73646 9.33313 6.00008C9.33313 5.2637 8.73618 4.66675 7.9998 4.66675ZM5.33313 6.00008C5.33313 4.52732 6.52704 3.33341 7.9998 3.33341C9.47256 3.33341 10.6665 4.52732 10.6665 6.00008C10.6665 7.47284 9.47256 8.66675 7.9998 8.66675C6.52704 8.66675 5.33313 7.47284 5.33313 6.00008Z" fill="white"/>
</svg>
