<svg width="530" height="556" viewBox="0 0 530 556" fill="none" xmlns="http://www.w3.org/2000/svg">
<path d="M-97.2485 -21.9147L3.10567 -131.863C11.3565 -140.903 23.3827 -145.528 35.6869 -144.395L565.983 -95.5375C587.259 -93.5773 603.565 -75.2153 603.015 -53.8368L586.367 592.579C585.723 617.574 562.638 635.431 538.231 629.815L60.9699 519.993C46.5291 516.67 34.9385 505.663 30.8279 491.369L-105.914 15.8663C-109.76 2.49052 -106.483 -11.7969 -97.2485 -21.9147Z" fill="#DD7432"/>
<g filter="url(#filter0_i_563_1076)">
<path d="M-52.6192 11.6811L-38.1978 -65.5371C-34.7492 -84.0024 -18.9162 -97.5803 -0.141056 -98.1737L483.905 -113.47C505.324 -114.147 523.472 -97.823 525.058 -76.4515L572.428 561.687C574.46 589.049 548.969 610.286 522.423 603.348L93.3886 491.213C79.4967 487.582 68.6166 476.784 64.881 462.92L-51.9216 29.4313C-53.4816 23.6416 -53.72 17.5753 -52.6192 11.6811Z" fill="url(#paint0_linear_563_1076)"/>
</g>
<defs>
<filter id="filter0_i_563_1076" x="-53.2991" y="-113.491" width="637.841" height="720.165" filterUnits="userSpaceOnUse" color-interpolation-filters="sRGB">
<feFlood flood-opacity="0" result="BackgroundImageFix"/>
<feBlend mode="normal" in="SourceGraphic" in2="BackgroundImageFix" result="shape"/>
<feColorMatrix in="SourceAlpha" type="matrix" values="0 0 0 0 0 0 0 0 0 0 0 0 0 0 0 0 0 0 127 0" result="hardAlpha"/>
<feOffset dx="12" dy="2"/>
<feGaussianBlur stdDeviation="9"/>
<feComposite in2="hardAlpha" operator="arithmetic" k2="-1" k3="1"/>
<feColorMatrix type="matrix" values="0 0 0 0 0 0 0 0 0 0 0 0 0 0 0 0 0 0 0.25 0"/>
<feBlend mode="normal" in2="shape" result="effect1_innerShadow_563_1076"/>
</filter>
<linearGradient id="paint0_linear_563_1076" x1="439.399" y1="-31.2536" x2="-4.8717" y2="374.04" gradientUnits="userSpaceOnUse">
<stop stop-color="#444B8C"/>
<stop offset="1" stop-color="#2F356C"/>
</linearGradient>
</defs>
</svg>
