<svg width="269" height="92" viewBox="0 0 269 92" fill="none" xmlns="http://www.w3.org/2000/svg">
<g clip-path="url(#clip0_44_200)">
<path fill-rule="evenodd" clip-rule="evenodd" d="M18.3185 10.0936C9.4037 18.0336 4.4875 27.2253 7.3379 30.6239C10.1883 34.0224 19.7259 30.3408 28.6408 22.4008C37.5557 14.4608 42.4718 5.26913 39.6215 1.87059C36.7711 -1.52795 27.2334 2.15364 18.3185 10.0936ZM18.9626 10.8229C15.1121 14.0524 13.464 17.9776 14.6279 19.4512C15.7917 20.9248 19.3268 19.3888 23.1773 16.1593C27.0279 12.9297 29.2059 9.11713 28.0421 7.64353C26.8782 6.16994 22.8132 7.59341 18.9626 10.8229Z" fill="#333333"/>
<path d="M20.5885 83.2792C35.9959 94.5115 87.977 41.922 84.0789 17.4543C80.158 11.599 77.9487 8.78576 73.9197 7.71582C81.6754 19.7395 59.4833 50.7759 43.0883 63.8335C26.9961 75.6426 17.8204 82.0595 12.6704 71.1982C14.2308 77.4458 15.5278 77.3175 20.5885 83.2792Z" fill="#333333"/>
<path d="M40.608 89.1531C55.9056 84.1622 88.8042 50.8689 89.3948 32.0007C90.9029 32.2141 91.5737 34.3566 92.5252 41.0696C91.8755 54.5208 67.1277 87.5097 46.16 91.3442C39.6638 91.3727 38.6419 90.8536 40.608 89.1531Z" fill="#333333"/>
<path d="M43.5614 82.5799C38.7418 82.1416 33.8157 80.3482 32.1029 79.5366C30.0911 82.5759 29.805 88.7955 32.5163 89.3359C32.9931 90.2782 41.6593 91.4123 45.7467 91.3445C41.4531 90.9866 41.4351 87.023 43.5614 82.5799Z" fill="#EA5400"/>
<path d="M11.1346 73.8761C10.8983 72.0705 11.5102 68.1299 15.3875 61.7031C33.8165 34.2793 77.7367 9.58523 88.6859 24.6362C91.6841 31.717 92.7022 34.9833 92.466 41.3133C90.6769 29.5988 82.2792 29.5993 64.6468 36.018C46.4126 43.5227 16.5141 69.4393 20.3489 83.0059C16.3426 79.7231 14.2673 77.7641 11.1346 73.8761Z" fill="#EA5400"/>
<path d="M6.23291 44.965C7.08343 36.9795 12.2181 25.8939 14.6791 21.3494C15.0728 22.7898 16.161 27.0132 16.8054 26.3403C30.0124 12.5484 56.6144 -1.41421 68.6044 2.72458C73.5177 3.75639 81.0822 12.2437 84.0792 17.454C72.5883 4.13179 43.4139 13.6332 20.8808 35.1049C21.2115 36.03 23.9718 40.116 25.3106 42.0435C17.9396 43.2981 13.8015 43.9934 6.23291 44.965Z" fill="#EA5400"/>
<path fill-rule="evenodd" clip-rule="evenodd" d="M76.3664 79.0535C85.0099 71.3552 89.7764 62.4434 87.0128 59.1482C84.2492 55.8531 75.002 59.4226 66.3585 67.121C57.7151 74.8192 52.9485 83.7311 55.7122 87.0262C58.4758 90.3212 67.7231 86.7517 76.3664 79.0535ZM75.742 78.3463C79.4754 75.2152 81.0733 71.4095 79.9449 69.9808C78.8165 68.552 75.389 70.0413 71.6557 73.1724C67.9224 76.3037 65.8106 80.0003 66.939 81.4289C68.0675 82.8577 72.0087 81.4776 75.742 78.3463Z" fill="#EA5400"/>
</g>
<path d="M111.56 67.7276C112.004 67.7276 112.475 67.7415 112.974 67.7692C113.474 67.797 113.966 67.8316 114.451 67.8732C114.951 67.9148 115.408 67.9703 115.824 68.0397L115.679 69.3294C115.041 69.3017 114.396 69.2809 113.744 69.267C113.106 69.2393 112.468 69.2254 111.83 69.2254C111.206 69.2115 110.714 69.2254 110.353 69.267C109.993 69.3086 109.729 69.4195 109.563 69.5998C109.41 69.7801 109.334 70.0852 109.334 70.5151C109.334 71.0421 109.459 71.3888 109.709 71.5552C109.958 71.7216 110.326 71.8603 110.811 71.9713L113.765 72.6369C114.569 72.8311 115.159 73.1293 115.533 73.5314C115.921 73.9336 116.116 74.5646 116.116 75.4244C116.116 76.2565 115.956 76.8806 115.637 77.2966C115.332 77.7127 114.861 77.99 114.223 78.1287C113.585 78.2674 112.773 78.3367 111.789 78.3367C111.428 78.3367 110.887 78.3229 110.166 78.2951C109.459 78.2674 108.675 78.1842 107.816 78.0455L107.94 76.7558C108.273 76.7696 108.627 76.7904 109.001 76.8182C109.376 76.832 109.764 76.839 110.166 76.839C110.582 76.839 111.005 76.839 111.435 76.839C112.198 76.839 112.794 76.8043 113.224 76.735C113.654 76.6656 113.959 76.5339 114.139 76.3397C114.32 76.1317 114.41 75.8266 114.41 75.4244C114.41 74.9252 114.264 74.5923 113.973 74.4259C113.682 74.2595 113.293 74.1208 112.808 74.0099L109.896 73.3442C109.341 73.2055 108.897 73.0252 108.564 72.8034C108.232 72.5676 107.989 72.2694 107.836 71.9089C107.684 71.5344 107.607 71.0698 107.607 70.5151C107.607 69.7246 107.746 69.1283 108.024 68.7261C108.301 68.324 108.731 68.0535 109.313 67.9148C109.896 67.7762 110.645 67.7138 111.56 67.7276ZM131.089 67.7276C131.963 67.7276 132.629 67.9634 133.086 68.4349C133.558 68.9064 133.794 69.5998 133.794 70.5151V78.1079H132.046V71.0144C132.032 70.3903 131.907 69.9396 131.672 69.6622C131.436 69.371 131.034 69.2254 130.465 69.2254C130.105 69.2254 129.758 69.2878 129.425 69.4126C129.106 69.5235 128.752 69.7038 128.364 69.9535C127.976 70.2031 127.504 70.529 126.95 70.9312L126.846 69.683C127.581 69.0312 128.295 68.5458 128.988 68.2269C129.682 67.894 130.382 67.7276 131.089 67.7276ZM120.21 67.9773L120.335 69.9119L120.522 70.2239V78.1079H118.754V67.9773H120.21ZM124.453 67.7276C125.313 67.7276 125.972 67.9634 126.43 68.4349C126.887 68.8925 127.123 69.586 127.137 70.5151V78.1079H125.431V71.0144C125.431 70.3626 125.299 69.9049 125.036 69.6414C124.772 69.3641 124.377 69.2254 123.85 69.2254C123.503 69.2254 123.164 69.2809 122.831 69.3918C122.512 69.5027 122.151 69.683 121.749 69.9327C121.361 70.1823 120.882 70.5151 120.314 70.9312L120.189 69.683C120.924 69.0312 121.638 68.5458 122.332 68.2269C123.025 67.894 123.732 67.7276 124.453 67.7276ZM140.346 67.7276C140.79 67.7276 141.261 67.7415 141.76 67.7692C142.26 67.797 142.752 67.8316 143.237 67.8732C143.736 67.9148 144.194 67.9703 144.61 68.0397L144.465 69.3294C143.827 69.3017 143.182 69.2809 142.53 69.267C141.892 69.2393 141.254 69.2254 140.616 69.2254C139.992 69.2115 139.5 69.2254 139.139 69.267C138.779 69.3086 138.515 69.4195 138.349 69.5998C138.196 69.7801 138.12 70.0852 138.12 70.5151C138.12 71.0421 138.245 71.3888 138.494 71.5552C138.744 71.7216 139.111 71.8603 139.597 71.9713L142.551 72.6369C143.355 72.8311 143.944 73.1293 144.319 73.5314C144.707 73.9336 144.901 74.5646 144.901 75.4244C144.901 76.2565 144.742 76.8806 144.423 77.2966C144.118 77.7127 143.646 77.99 143.008 78.1287C142.37 78.2674 141.559 78.3367 140.575 78.3367C140.214 78.3367 139.673 78.3229 138.952 78.2951C138.245 78.2674 137.461 78.1842 136.601 78.0455L136.726 76.7558C137.059 76.7696 137.413 76.7904 137.787 76.8182C138.161 76.832 138.55 76.839 138.952 76.839C139.368 76.839 139.791 76.839 140.221 76.839C140.984 76.839 141.58 76.8043 142.01 76.735C142.44 76.6656 142.745 76.5339 142.925 76.3397C143.105 76.1317 143.196 75.8266 143.196 75.4244C143.196 74.9252 143.05 74.5923 142.759 74.4259C142.468 74.2595 142.079 74.1208 141.594 74.0099L138.682 73.3442C138.127 73.2055 137.683 73.0252 137.35 72.8034C137.017 72.5676 136.775 72.2694 136.622 71.9089C136.47 71.5344 136.393 71.0698 136.393 70.5151C136.393 69.7246 136.532 69.1283 136.809 68.7261C137.087 68.324 137.517 68.0535 138.099 67.9148C138.682 67.7762 139.43 67.7138 140.346 67.7276ZM153.759 72.1793V73.5314H147.415V72.1793H153.759ZM161.669 67.7276C162.417 67.7276 163.048 67.8316 163.562 68.0397C164.089 68.2338 164.484 68.5666 164.747 69.0382C165.011 69.5097 165.143 70.1545 165.143 70.9728V78.1079H163.749L163.478 75.9029L163.354 75.6741V70.9728C163.354 70.3487 163.208 69.9049 162.917 69.6414C162.639 69.3641 162.099 69.2254 161.294 69.2254C160.767 69.2254 160.102 69.2531 159.297 69.3086C158.507 69.3641 157.723 69.4265 156.947 69.4958L156.78 68.1853C157.252 68.1021 157.765 68.0258 158.319 67.9564C158.888 67.8871 159.464 67.8316 160.046 67.79C160.628 67.7484 161.169 67.7276 161.669 67.7276ZM164.31 71.8673L164.29 73.1986L159.443 73.2194C158.957 73.2333 158.618 73.365 158.423 73.6146C158.229 73.8504 158.132 74.1832 158.132 74.6131V75.258C158.132 75.785 158.257 76.1733 158.507 76.4229C158.756 76.6587 159.158 76.7766 159.713 76.7766C160.102 76.7766 160.538 76.7072 161.024 76.5685C161.523 76.416 162.022 76.1872 162.521 75.8821C163.021 75.577 163.478 75.1887 163.894 74.7172V76.0277C163.742 76.2218 163.52 76.4507 163.229 76.7142C162.951 76.9638 162.612 77.2134 162.209 77.463C161.821 77.6988 161.384 77.8999 160.899 78.0663C160.427 78.2189 159.914 78.2951 159.36 78.2951C158.763 78.2951 158.236 78.1911 157.779 77.9831C157.321 77.7612 156.96 77.4422 156.697 77.0262C156.447 76.5963 156.322 76.0762 156.322 75.466V74.3635C156.322 73.573 156.565 72.9628 157.051 72.5329C157.55 72.0891 158.243 71.8673 159.131 71.8673H164.31ZM172.628 67.7276C172.933 67.7276 173.273 67.7415 173.647 67.7692C174.022 67.797 174.403 67.8455 174.791 67.9148C175.193 67.9842 175.561 68.0813 175.894 68.2061L175.665 69.3502C175.207 69.3086 174.722 69.2809 174.209 69.267C173.709 69.2393 173.28 69.2254 172.919 69.2254C172.115 69.2254 171.477 69.3363 171.005 69.5582C170.534 69.7801 170.194 70.1684 169.986 70.7231C169.778 71.2779 169.674 72.0475 169.674 73.0322C169.674 74.0168 169.778 74.7934 169.986 75.362C170.194 75.9167 170.534 76.3051 171.005 76.5269C171.477 76.7488 172.115 76.8598 172.919 76.8598C173.127 76.8598 173.397 76.8528 173.73 76.839C174.063 76.8251 174.417 76.8043 174.791 76.7766C175.179 76.7488 175.547 76.7072 175.894 76.6518L176.081 77.8375C175.568 78.0178 175.006 78.1495 174.396 78.2327C173.8 78.3159 173.203 78.3575 172.607 78.3575C171.442 78.3575 170.506 78.1842 169.799 77.8375C169.091 77.4908 168.578 76.9291 168.259 76.1525C167.954 75.3759 167.802 74.3358 167.802 73.0322C167.802 71.7286 167.961 70.6885 168.28 69.9119C168.599 69.1352 169.112 68.5805 169.819 68.2477C170.527 67.901 171.463 67.7276 172.628 67.7276ZM181.016 64.9817V75.3204C181.016 75.8058 181.12 76.1525 181.328 76.3605C181.536 76.5685 181.89 76.6726 182.389 76.6726H183.929L184.137 78.0247C183.915 78.0802 183.658 78.1287 183.367 78.1703C183.076 78.2119 182.792 78.2397 182.514 78.2535C182.237 78.2813 182.015 78.2951 181.848 78.2951C181.003 78.2951 180.358 78.0594 179.914 77.5879C179.47 77.1163 179.248 76.4368 179.248 75.5492V64.9817H181.016ZM184.241 67.9773V69.371H177.418V68.0813L179.415 67.9773H184.241ZM188.232 67.9773V78.1079H186.484V67.9773H188.232ZM187.774 63.6712C188.135 63.6712 188.315 63.8515 188.315 64.2121V65.3978C188.315 65.7584 188.135 65.9386 187.774 65.9386H186.942C186.582 65.9386 186.401 65.7584 186.401 65.3978V64.2121C186.401 63.8515 186.582 63.6712 186.942 63.6712H187.774ZM200.568 67.9773L196.866 77.6711C196.81 77.8097 196.727 77.9207 196.616 78.0039C196.519 78.0732 196.394 78.1079 196.242 78.1079H194.64C194.501 78.1079 194.376 78.0732 194.265 78.0039C194.154 77.9207 194.071 77.8097 194.016 77.6711L190.313 67.9773H192.206L194.702 75.0708C194.813 75.362 194.917 75.6602 195.014 75.9653C195.111 76.2704 195.208 76.5616 195.306 76.839H195.576C195.687 76.5477 195.791 76.2565 195.888 75.9653C195.999 75.6602 196.103 75.362 196.2 75.0708L198.696 67.9773H200.568ZM207.275 67.7276C208.024 67.7276 208.655 67.8316 209.168 68.0397C209.695 68.2338 210.09 68.5666 210.354 69.0382C210.617 69.5097 210.749 70.1545 210.749 70.9728V78.1079H209.355L209.085 75.9029L208.96 75.6741V70.9728C208.96 70.3487 208.814 69.9049 208.523 69.6414C208.246 69.3641 207.705 69.2254 206.9 69.2254C206.373 69.2254 205.708 69.2531 204.903 69.3086C204.113 69.3641 203.329 69.4265 202.553 69.4958L202.386 68.1853C202.858 68.1021 203.371 68.0258 203.926 67.9564C204.494 67.8871 205.07 67.8316 205.652 67.79C206.235 67.7484 206.776 67.7276 207.275 67.7276ZM209.917 71.8673L209.896 73.1986L205.049 73.2194C204.564 73.2333 204.224 73.365 204.03 73.6146C203.836 73.8504 203.739 74.1832 203.739 74.6131V75.258C203.739 75.785 203.863 76.1733 204.113 76.4229C204.363 76.6587 204.765 76.7766 205.32 76.7766C205.708 76.7766 206.145 76.7072 206.63 76.5685C207.129 76.416 207.629 76.1872 208.128 75.8821C208.627 75.577 209.085 75.1887 209.501 74.7172V76.0277C209.348 76.2218 209.126 76.4507 208.835 76.7142C208.558 76.9638 208.218 77.2134 207.816 77.463C207.427 77.6988 206.991 77.8999 206.505 78.0663C206.034 78.2189 205.521 78.2951 204.966 78.2951C204.37 78.2951 203.843 78.1911 203.385 77.9831C202.927 77.7612 202.567 77.4422 202.303 77.0262C202.054 76.5963 201.929 76.0762 201.929 75.466V74.3635C201.929 73.573 202.171 72.9628 202.657 72.5329C203.156 72.0891 203.849 71.8673 204.737 71.8673H209.917ZM216.445 64.9817V75.3204C216.445 75.8058 216.549 76.1525 216.757 76.3605C216.965 76.5685 217.319 76.6726 217.818 76.6726H219.357L219.565 78.0247C219.344 78.0802 219.087 78.1287 218.796 78.1703C218.505 78.2119 218.22 78.2397 217.943 78.2535C217.665 78.2813 217.444 78.2951 217.277 78.2951C216.431 78.2951 215.786 78.0594 215.343 77.5879C214.899 77.1163 214.677 76.4368 214.677 75.5492V64.9817H216.445ZM219.669 67.9773V69.371H212.846V68.0813L214.843 67.9773H219.669ZM225.99 67.7276C227.516 67.7276 228.618 68.005 229.298 68.5597C229.991 69.1144 230.338 69.9396 230.338 71.0352C230.352 71.9366 230.165 72.6439 229.776 73.157C229.388 73.6562 228.771 73.9059 227.925 73.9059H222.017V72.5329H227.467C227.925 72.5329 228.223 72.3804 228.362 72.0753C228.501 71.7563 228.57 71.4096 228.57 71.0352C228.556 70.3834 228.362 69.9188 227.987 69.6414C227.613 69.3641 226.975 69.2254 226.074 69.2254C225.339 69.2254 224.756 69.3363 224.326 69.5582C223.91 69.7662 223.612 70.1407 223.432 70.6815C223.265 71.2085 223.182 71.9505 223.182 72.9074C223.182 73.9891 223.286 74.8142 223.494 75.3828C223.716 75.9514 224.063 76.3397 224.534 76.5477C225.006 76.7558 225.63 76.8598 226.406 76.8598C226.947 76.8598 227.537 76.839 228.175 76.7974C228.826 76.7419 229.409 76.6795 229.922 76.6102L230.109 77.7959C229.79 77.9207 229.395 78.0247 228.923 78.1079C228.466 78.1911 227.987 78.2535 227.488 78.2951C227.003 78.3367 226.566 78.3575 226.178 78.3575C225.013 78.3575 224.077 78.1842 223.369 77.8375C222.662 77.4769 222.142 76.9083 221.809 76.1317C221.49 75.3412 221.331 74.3011 221.331 73.0114C221.331 71.68 221.49 70.633 221.809 69.8702C222.142 69.0936 222.648 68.5458 223.328 68.2269C224.021 67.894 224.909 67.7276 225.99 67.7276ZM234.043 75.6533C234.293 75.6533 234.466 75.7018 234.563 75.7989C234.66 75.8959 234.709 76.0693 234.709 76.3189V77.4422C234.709 77.6919 234.66 77.8652 234.563 77.9623C234.466 78.0594 234.293 78.1079 234.043 78.1079H233.461C233.225 78.1079 233.052 78.0594 232.941 77.9623C232.843 77.8652 232.795 77.6919 232.795 77.4422V76.3189C232.795 76.0693 232.843 75.8959 232.941 75.7989C233.052 75.7018 233.225 75.6533 233.461 75.6533H234.043ZM242.042 67.7276C243.207 67.7276 244.136 67.901 244.829 68.2477C245.537 68.5944 246.043 69.163 246.348 69.9535C246.653 70.7301 246.806 71.7632 246.806 73.053C246.806 74.3427 246.653 75.3828 246.348 76.1733C246.043 76.9499 245.537 77.5116 244.829 77.8583C244.136 78.205 243.207 78.3783 242.042 78.3783C240.891 78.3783 239.962 78.205 239.254 77.8583C238.561 77.5116 238.055 76.9499 237.736 76.1733C237.431 75.3828 237.278 74.3427 237.278 73.053C237.278 71.7632 237.431 70.7301 237.736 69.9535C238.055 69.163 238.561 68.5944 239.254 68.2477C239.962 67.901 240.891 67.7276 242.042 67.7276ZM242.042 69.2254C241.307 69.2254 240.724 69.3433 240.294 69.579C239.878 69.8009 239.58 70.1892 239.4 70.7439C239.22 71.2987 239.13 72.0683 239.13 73.053C239.13 74.0376 239.22 74.8073 239.4 75.362C239.58 75.9167 239.878 76.312 240.294 76.5477C240.724 76.7696 241.307 76.8806 242.042 76.8806C242.777 76.8806 243.359 76.7696 243.789 76.5477C244.219 76.312 244.524 75.9167 244.705 75.362C244.885 74.8073 244.975 74.0376 244.975 73.053C244.975 72.0683 244.885 71.2987 244.705 70.7439C244.524 70.1892 244.219 69.8009 243.789 69.579C243.359 69.3433 242.777 69.2254 242.042 69.2254ZM250.953 67.9773L251.181 69.9119L251.348 70.2239V78.1079H249.58V67.9773H250.953ZM255.924 67.7276L255.716 69.3918H255.134C254.538 69.3918 253.941 69.5166 253.345 69.7662C252.749 70.002 252.02 70.3418 251.161 70.7855L251.015 69.683C251.764 69.0728 252.513 68.5944 253.262 68.2477C254.024 67.901 254.759 67.7276 255.467 67.7276H255.924ZM261.863 67.7276C262.944 67.7276 263.797 67.8386 264.421 68.0605C265.059 68.2824 265.51 68.6291 265.773 69.1006C266.051 69.5721 266.189 70.1892 266.189 70.952C266.189 71.687 266.051 72.2972 265.773 72.7826C265.51 73.2541 265.059 73.6077 264.421 73.8435C263.783 74.0654 262.923 74.1763 261.842 74.1763C260.76 74.1763 259.9 74.0654 259.262 73.8435C258.638 73.6077 258.188 73.2541 257.91 72.7826C257.647 72.311 257.515 71.7078 257.515 70.9728C257.515 70.21 257.647 69.5929 257.91 69.1214C258.188 68.636 258.645 68.2824 259.283 68.0605C259.921 67.8386 260.781 67.7276 261.863 67.7276ZM261.842 69.0798C260.829 69.0798 260.122 69.2254 259.72 69.5166C259.332 69.794 259.137 70.2724 259.137 70.952C259.137 71.6176 259.332 72.0961 259.72 72.3873C260.122 72.6785 260.829 72.8242 261.842 72.8242C262.868 72.8242 263.575 72.6785 263.964 72.3873C264.352 72.0961 264.546 71.6176 264.546 70.952C264.546 70.2724 264.352 69.794 263.964 69.5166C263.575 69.2254 262.868 69.0798 261.842 69.0798ZM267.375 67.9773L267.271 68.955L264.692 69.163L263.964 67.9773H267.375ZM258.992 73.5106L260.011 73.6562C259.775 73.8643 259.616 74.1208 259.533 74.4259C259.45 74.7172 259.47 74.9876 259.595 75.2372C259.734 75.4868 260.018 75.6463 260.448 75.7157L264.234 76.3189C265.191 76.4576 265.857 76.7558 266.231 77.2134C266.605 77.6711 266.793 78.3229 266.793 79.1688C266.793 79.9593 266.64 80.5834 266.335 81.041C266.044 81.4987 265.545 81.8246 264.837 82.0187C264.13 82.2129 263.173 82.3099 261.967 82.3099C261.051 82.3099 260.282 82.2545 259.658 82.1435C259.033 82.0465 258.527 81.8731 258.139 81.6235C257.765 81.3877 257.494 81.0757 257.328 80.6874C257.161 80.2991 257.078 79.8137 257.078 79.2312C257.078 78.7874 257.14 78.413 257.265 78.1079C257.404 77.8167 257.612 77.5532 257.889 77.3174C258.181 77.0817 258.555 76.8528 259.013 76.631L260.261 75.9445L261.072 76.2357L260.053 77.0054C259.775 77.2134 259.54 77.4214 259.346 77.6295C259.165 77.8236 259.027 78.0316 258.929 78.2535C258.846 78.4893 258.805 78.7666 258.805 79.0856C258.805 79.5571 258.895 79.9177 259.075 80.1673C259.255 80.417 259.574 80.5834 260.032 80.6666C260.49 80.7637 261.128 80.8122 261.946 80.8122C262.764 80.8122 263.395 80.7637 263.839 80.6666C264.296 80.5695 264.615 80.3961 264.796 80.1465C264.976 79.8969 265.066 79.5433 265.066 79.0856C265.066 78.7389 265.018 78.4754 264.92 78.2951C264.837 78.1148 264.671 77.9762 264.421 77.8791C264.172 77.782 263.804 77.6988 263.319 77.6295L259.678 77.1302C259.248 77.0747 258.902 76.9361 258.638 76.7142C258.389 76.4923 258.215 76.2288 258.118 75.9237C258.021 75.6186 257.993 75.3135 258.035 75.0084C258.077 74.6894 258.181 74.3982 258.347 74.1347C258.513 73.8573 258.728 73.6493 258.992 73.5106Z" fill="#EA5400"/>
<path d="M121.751 20.4282C124.825 20.4282 127.234 20.7452 128.978 21.3792C130.721 22.0131 131.958 23.1067 132.687 24.66C133.447 26.2132 133.828 28.3845 133.828 31.174C133.828 33.9635 133.463 36.1348 132.734 37.6881C132.037 39.2413 130.88 40.3349 129.263 40.9689C127.647 41.5711 125.459 41.8723 122.702 41.8723C121.243 41.8723 119.817 41.8089 118.422 41.6821C117.028 41.5553 115.728 41.3968 114.523 41.2066C113.319 41.0164 112.289 40.8262 111.433 40.636C110.577 40.4141 109.99 40.2081 109.673 40.0179L109.816 36.4043C111.686 36.4043 113.62 36.4043 115.617 36.4043C117.646 36.4043 119.643 36.4043 121.608 36.4043C122.876 36.3726 123.859 36.2141 124.556 35.9288C125.285 35.6435 125.792 35.1205 126.077 34.3597C126.394 33.5989 126.553 32.537 126.553 31.174C126.553 29.7793 126.394 28.7015 126.077 27.9407C125.792 27.18 125.285 26.657 124.556 26.3717C123.859 26.0547 122.876 25.8962 121.608 25.8962C118.692 25.8962 116.188 25.912 114.095 25.9437C112.003 25.9754 110.593 26.0388 109.864 26.1339L109.15 20.9037C110.482 20.7452 111.734 20.6342 112.907 20.5708C114.08 20.5074 115.347 20.4757 116.711 20.4757C118.105 20.444 119.785 20.4282 121.751 20.4282ZM116.425 20.9037V53.7117H109.15V20.9037H116.425ZM151.191 20.4282C154.075 20.4282 156.405 20.7293 158.18 21.3316C159.987 21.9022 161.302 22.9007 162.127 24.3271C162.982 25.7219 163.41 27.6713 163.41 30.1755C163.41 31.697 163.204 33.0442 162.792 34.2171C162.412 35.3582 161.762 36.2775 160.843 36.9748C159.923 37.6722 158.671 38.116 157.086 38.3062V38.5439C157.657 38.639 158.243 38.8609 158.846 39.2096C159.48 39.5583 160.066 40.0813 160.605 40.7787C161.144 41.4443 161.54 42.3477 161.794 43.4889L164.647 53.7117H156.991L154.471 43.7266C154.186 42.6489 153.758 41.904 153.188 41.4919C152.649 41.0798 151.888 40.8738 150.905 40.8738C148.75 40.8738 146.927 40.8738 145.437 40.8738C143.979 40.8421 142.743 40.8104 141.728 40.7787C140.746 40.747 139.858 40.7153 139.066 40.6836L139.208 35.4058H151.048C152.316 35.4058 153.314 35.279 154.043 35.0254C154.804 34.7401 155.327 34.2488 155.612 33.5514C155.929 32.854 156.088 31.8872 156.088 30.651C156.088 29.383 155.929 28.4162 155.612 27.7506C155.327 27.0532 154.804 26.5777 154.043 26.3241C153.314 26.0388 152.316 25.8962 151.048 25.8962C148.068 25.8962 145.548 25.912 143.488 25.9437C141.427 25.9754 140.017 26.023 139.256 26.0864L138.543 20.9037C139.874 20.7452 141.126 20.6342 142.299 20.5708C143.472 20.5074 144.756 20.4757 146.15 20.4757C147.545 20.444 149.225 20.4282 151.191 20.4282ZM145.723 20.9037V53.7117H138.543V20.9037H145.723ZM182.264 20.238C184.864 20.238 187.067 20.5233 188.874 21.0939C190.68 21.6327 192.123 22.552 193.2 23.8516C194.31 25.1196 195.118 26.863 195.625 29.0819C196.133 31.2691 196.386 34.011 196.386 37.3077C196.386 40.6043 196.133 43.3621 195.625 45.581C195.118 47.7682 194.31 49.5116 193.2 50.8113C192.123 52.0792 190.68 52.9985 188.874 53.569C187.067 54.1079 184.864 54.3773 182.264 54.3773C179.665 54.3773 177.462 54.1079 175.655 53.569C173.849 52.9985 172.39 52.0792 171.281 50.8113C170.171 49.5116 169.363 47.7682 168.856 45.581C168.349 43.3621 168.095 40.6043 168.095 37.3077C168.095 34.011 168.349 31.2691 168.856 29.0819C169.363 26.863 170.171 25.1196 171.281 23.8516C172.39 22.552 173.849 21.6327 175.655 21.0939C177.462 20.5233 179.665 20.238 182.264 20.238ZM182.264 25.9913C180.584 25.9913 179.269 26.3241 178.318 26.9898C177.399 27.6555 176.733 28.8125 176.321 30.4608C175.941 32.0774 175.75 34.3597 175.75 37.3077C175.75 40.2239 175.941 42.5062 176.321 44.1546C176.733 45.8029 177.399 46.9599 178.318 47.6255C179.269 48.2912 180.584 48.6241 182.264 48.6241C183.913 48.6241 185.197 48.2912 186.116 47.6255C187.067 46.9599 187.732 45.8029 188.113 44.1546C188.525 42.5062 188.731 40.2239 188.731 37.3077C188.731 34.3597 188.525 32.0774 188.113 30.4608C187.732 28.8125 187.067 27.6555 186.116 26.9898C185.197 26.3241 183.913 25.9913 182.264 25.9913ZM227.242 20.9037L219.159 36.8797L227.86 53.7117H220.443L212.265 36.8797L219.872 20.9037H227.242ZM206.178 20.9037L213.786 36.8797L205.608 53.7117H198.19L206.844 36.8797L198.809 20.9037H206.178ZM216.544 34.5499V39.0194H209.079V34.5499H216.544ZM257.366 20.9037L246.288 43.2987H239.441L228.315 20.9037H235.875L241.39 32.9808C241.675 33.6148 241.913 34.2963 242.103 35.0254C242.294 35.7544 242.468 36.4518 242.626 37.1175H243.102C243.292 36.4518 243.482 35.7544 243.673 35.0254C243.863 34.2963 244.085 33.6148 244.338 32.9808L249.806 20.9037H257.366ZM246.478 38.8767V53.7117H239.203V38.8767H246.478Z" fill="#333333"/>
<defs>
<clipPath id="clip0_44_200">
<rect width="96.8649" height="90.8108" fill="white" transform="translate(0.621582 0.594482)"/>
</clipPath>
</defs>
</svg>
