<svg width="82" height="87" viewBox="0 0 82 87" fill="none" xmlns="http://www.w3.org/2000/svg">
<g clip-path="url(#clip0_184_495)">
<path d="M34.1504 24.3281C34.1504 18.9662 34.1504 13.6043 34.1504 8.24249C34.2099 6.43203 34.8516 4.68819 35.9813 3.26683C37.1111 1.84547 38.6694 0.821423 40.4276 0.34495C40.6468 0.290484 40.8051 0.248122 40.8234 0H68.1912C68.1912 0.405468 68.5748 0.375209 68.8001 0.459933C70.5519 1.03561 72.0697 2.15847 73.1274 3.66122C74.1851 5.16396 74.7259 6.96615 74.6694 8.79925C74.6694 18.353 74.6694 27.9087 74.6694 37.4664C74.6835 38.3662 74.6367 39.2659 74.5294 40.1594C74.2593 41.764 73.5405 43.2607 72.4553 44.4785C71.37 45.6963 69.962 46.5861 68.3922 47.0463C66.4256 47.5547 64.4407 47.3126 62.4619 47.3671C61.9865 47.3587 61.521 47.5031 61.1347 47.7786C60.4201 48.414 59.6334 48.9644 58.7906 49.4186C58.7906 47.3792 58.7906 47.3792 56.7509 47.3792C52.489 47.3792 48.2757 47.3368 44.0381 47.3792C41.8338 47.5163 39.6398 46.9822 37.7487 45.8481C37.7487 40.9401 37.6635 36.0321 37.7487 31.1242C37.8157 28.1346 36.6893 25.8955 34.1504 24.3281ZM51.3078 34.9368C51.6093 35.0299 51.8804 35.2012 52.0932 35.433C53.6733 36.7549 55.6917 37.4452 57.7555 37.3696C61.6522 37.3272 65.5549 37.3696 69.4516 37.3696C71.1381 37.3696 71.9174 36.601 71.9174 34.9489C71.9174 31.106 71.8565 27.2571 71.9174 23.4142C71.9722 21.2114 70.7606 20.5639 69.0984 20.5881C66.8822 20.6244 64.6599 20.5881 62.4437 20.5881C61.3538 20.5881 61.3538 20.5881 61.7496 19.6198C61.9992 19.0146 62.2732 18.4094 62.4924 17.8043C62.9326 16.6274 63.1147 15.3707 63.0265 14.1183C62.9383 12.8658 62.5818 11.6465 61.981 10.5422C61.8583 10.2184 61.6193 9.95129 61.31 9.79256C61.0007 9.63383 60.6432 9.59472 60.3066 9.68281C59.9841 9.76155 59.7013 9.95409 59.5109 10.2246C59.3204 10.4951 59.2354 10.8252 59.2716 11.1534C59.2323 13.3502 58.383 15.4563 56.8849 17.072C55.7889 18.2823 54.7478 19.5714 53.6093 20.7575C52.8543 21.5382 52.3307 22.573 51.3017 23.0753C51.3017 22.7364 51.2652 22.3975 51.2591 22.0586C51.2591 20.9935 51.1312 20.8483 50.0962 20.8483C48.501 20.8483 46.9119 20.8483 45.3167 20.8483C44.5069 20.8483 44.2086 21.1509 44.2147 21.9497C44.2147 26.5309 44.2147 31.106 44.2147 35.6872C44.2147 36.5042 44.5557 36.8128 45.3228 36.8068H49.1646C51.1434 36.837 51.1434 36.837 51.3078 34.9368Z" fill="#F7F2F1"/>
<path d="M58.7663 49.4186C59.6076 48.9739 60.3942 48.4337 61.1104 47.8088C61.4968 47.5333 61.9622 47.389 62.4377 47.3973C64.4164 47.3429 66.4013 47.5849 68.3679 47.0766C69.9378 46.6164 71.3458 45.7266 72.431 44.5087C73.5163 43.2909 74.235 41.7943 74.5051 40.1897C74.6125 39.2962 74.6592 38.3964 74.6451 37.4967C74.6451 27.943 74.6451 18.3872 74.6451 8.82951C74.7099 6.99433 74.1757 5.18756 73.1222 3.67907C72.0688 2.17057 70.5526 1.0413 68.8002 0.459933C68.5627 0.375209 68.1913 0.405467 68.1913 0H75.0226C75.0774 0.121035 75.1383 0.121035 75.1931 0H75.4975C75.7106 0.544658 76.289 0.453881 76.7152 0.635434C78.0569 1.19213 79.2338 2.07928 80.1349 3.21326C81.0361 4.34723 81.6319 5.69066 81.8661 7.11686C81.9905 7.86663 82.0394 8.62685 82.0122 9.38627C82.0122 19.1417 82.0122 28.8991 82.0122 38.6586C82.0615 40.724 81.3498 42.7362 80.011 44.3165C78.6722 45.8969 76.7986 46.9366 74.7425 47.24C73.4491 47.4372 72.1358 47.4717 70.8337 47.3429C70.1911 47.3123 69.5488 47.4107 68.9453 47.6321C68.3417 47.8536 67.7892 48.1936 67.3207 48.6319C64.6782 50.7076 61.981 52.7168 59.3082 54.7502C59.1803 54.847 59.0464 55.0528 58.8881 54.8955C58.8008 54.7543 58.7644 54.5879 58.7846 54.4234C58.7602 52.7531 58.7663 51.0889 58.7663 49.4186Z" fill="#F0E8E3"/>
<path d="M75.1627 0C75.1079 0.121035 75.047 0.121035 74.9922 0H75.1627Z" fill="white"/>
<path d="M28.1776 60.9411L20.2138 66.9929C19.8972 66.8416 20.019 66.5814 20.019 66.3877C20.019 64.8869 19.9764 63.3619 20.019 61.8913C20.019 61.1651 19.8607 60.923 19.0814 60.929C15.0691 60.9714 11.0567 60.929 7.04441 60.929C6.11363 60.9635 5.18566 60.8074 4.31814 60.4704C3.45061 60.1334 2.66206 59.6227 2.00145 58.9701C1.34084 58.3174 0.822278 57.5367 0.477976 56.6765C0.133673 55.8163 -0.0290186 54.8949 3.59025e-06 53.9695C3.59025e-06 46.1708 3.59025e-06 38.3661 3.59025e-06 30.5553C-0.0266035 29.6396 0.134324 28.7281 0.473013 27.8761C0.811701 27.0241 1.32108 26.2494 1.97022 25.5991C2.61937 24.9488 3.39472 24.4364 4.2492 24.093C5.10368 23.7497 6.01945 23.5826 6.9409 23.6018C12.0918 23.6018 17.2427 23.6018 22.3935 23.6018C22.4361 23.6381 22.4788 23.6926 22.5275 23.6987C26.2719 24.3765 28.275 27.4992 28.1898 31.0334C28.1289 33.5146 28.1898 35.9958 28.1898 38.477C27.0042 38.332 25.8073 38.3016 24.6158 38.3863C23.9583 38.3863 23.8487 38.1381 23.9644 37.5632C24.1896 36.4618 24.3662 35.3483 24.5732 34.2348C24.6179 34.0635 24.6279 33.8851 24.6027 33.7099C24.5775 33.5347 24.5175 33.3663 24.4264 33.2143C24.3352 33.0623 24.2146 32.9299 24.0715 32.8245C23.9285 32.7192 23.7658 32.6432 23.593 32.6008C23.4216 32.548 23.2406 32.5335 23.0629 32.5583C22.8852 32.5831 22.7153 32.6467 22.5652 32.7444C22.4151 32.8421 22.2886 32.9716 22.1947 33.1236C22.1008 33.2756 22.0419 33.4463 22.0221 33.6235C21.8273 34.4466 21.6873 35.2817 21.5533 36.1169C21.188 38.3923 21.1941 38.3621 18.9292 38.3863C18.1255 38.3863 18.022 38.0716 18.1316 37.4301C18.3203 36.371 18.4847 35.318 18.6613 34.259C18.8257 33.3028 18.4482 32.6916 17.6201 32.5766C16.7921 32.4616 16.2198 32.9639 16.0676 33.8898C15.8667 35.1667 15.5988 36.4376 15.4587 37.7266C15.3857 38.3318 15.1117 38.3863 14.6185 38.3742C13.2242 38.3742 11.83 38.3742 10.4357 38.3742C10.1804 38.3452 9.92191 38.3793 9.68299 38.4732C9.44407 38.5671 9.23209 38.7181 9.06579 38.9128C8.90361 39.1119 8.80388 39.354 8.77898 39.609C8.75408 39.864 8.80512 40.1206 8.92575 40.347C9.03936 40.5783 9.22187 40.7692 9.44845 40.8937C9.67504 41.0182 9.93472 41.0703 10.1922 41.043C11.4992 41.0753 12.8082 41.0753 14.1193 41.043C14.6733 41.043 14.996 41.0793 14.7768 41.7813C14.642 42.3309 14.5625 42.8924 14.5394 43.4576C14.4785 44.0628 14.2228 44.3291 13.553 44.2928C12.4449 44.2323 11.3307 44.2928 10.2226 44.2928C10.0389 44.2705 9.85256 44.2873 9.67585 44.3418C9.49913 44.3964 9.33607 44.4876 9.19741 44.6094C9.05876 44.7312 8.94766 44.8809 8.87144 45.0485C8.79523 45.2161 8.75564 45.3979 8.75528 45.5818C8.75528 46.3443 9.36413 46.8466 10.253 46.8527C11.142 46.8587 12.1892 46.889 13.1573 46.8527C13.8026 46.8224 13.9488 47.0826 13.8453 47.6515C13.6565 48.7045 13.4982 49.7636 13.3034 50.8166C13.1086 51.8696 13.4252 52.5111 14.3202 52.6866C15.2152 52.8621 15.7449 52.3053 15.9032 51.2281C16.025 50.4232 16.1467 49.6123 16.2746 48.8074C16.5851 46.8648 16.5912 46.8648 18.5882 46.8648C18.8135 46.8648 19.0449 46.8648 19.2701 46.8648C19.672 46.8648 19.8059 46.9374 19.7207 47.3973C19.4893 48.6077 19.3249 49.818 19.1484 50.986C19.0083 51.9967 19.331 52.5413 20.0982 52.6502C21.0662 52.7894 21.5411 52.4142 21.7238 51.3733C21.9491 50.0661 22.2048 48.765 22.3814 47.4518C22.4422 46.9616 22.6432 46.8466 23.0815 46.8466C24.7924 46.8466 26.4972 46.8466 28.2081 46.8466C28.1918 51.5468 28.1817 56.245 28.1776 60.9411Z" fill="#383E79"/>
<path d="M37.7487 56.0272L44.1112 56.0816C44.4339 56.1845 44.7566 56.2753 45.0732 56.3903C45.9247 56.6814 46.6715 57.2144 47.2213 57.9233C47.7711 58.6322 48.0996 59.4858 48.1661 60.3784C48.1966 62.3875 48.1661 64.3967 48.1661 66.4301C48.1097 66.3686 48.0569 66.3039 48.0078 66.2365C46.7049 64.1305 43.685 63.9429 42.4916 65.831C42.1872 66.3091 42.0533 65.8673 41.8828 65.6918C41.5266 65.2548 41.0619 64.9178 40.5346 64.714C40.0072 64.5103 39.4355 64.4468 38.8759 64.5299C38.3164 64.613 37.7883 64.8399 37.3439 65.188C36.8996 65.5361 36.5543 65.9935 36.3422 66.5148C35.9908 67.4001 35.9056 68.3678 36.0969 69.3002C36.2882 70.2327 36.7478 71.0899 37.4199 71.7678C38.7417 73.0572 40.2628 74.1278 41.9254 74.9389C42.0166 74.9958 42.1221 75.026 42.2298 75.026C42.3375 75.026 42.4431 74.9958 42.5343 74.9389C44.7139 73.7285 46.9119 72.5182 48.1357 70.1701C48.1357 72.851 48.1357 75.538 48.1357 78.2189C48.1264 78.7569 47.9909 79.2854 47.7399 79.7621C47.3303 80.6535 46.6581 81.4002 45.8124 81.9038C44.9666 82.4073 43.987 82.6439 43.0031 82.5823C39.9588 82.5823 36.9694 82.4733 33.9616 82.5823C33.2752 82.6017 32.592 82.4811 31.9543 82.2277C31.3166 81.9744 30.738 81.5938 30.2541 81.1095C29.7702 80.6251 29.3914 80.0473 29.1411 79.4117C28.8907 78.7761 28.7742 78.0962 28.7986 77.414C28.9082 71.9675 28.7986 66.4483 28.7986 60.9654C28.9995 57.9879 30.9113 56.124 33.7912 56.0635C35.1306 56.0393 36.4397 56.0393 37.7487 56.0272Z" fill="#EA5400"/>
<path d="M37.7487 56.0271C36.4458 56.0271 35.1368 56.0271 33.8338 56.0271C30.954 56.0695 29.0422 57.9516 28.8413 60.9291H28.1837C28.1837 56.2329 28.1837 51.5387 28.1837 46.8466C29.3344 45.9994 29.3344 45.1582 28.1837 44.2928V41.0309C29.3588 40.2321 29.371 39.2154 28.1837 38.4952C28.1837 36.014 28.1289 33.5328 28.1837 31.0515C28.2689 27.5173 26.2658 24.3946 22.5214 23.7168C22.4727 23.7168 22.4301 23.6563 22.3875 23.62C25.4317 23.62 28.476 23.62 31.5202 23.62C32.4209 23.7079 33.3 23.9474 34.12 24.3281C36.6589 25.8955 37.7731 28.1346 37.7366 31.1242C37.6574 36.0321 37.7366 40.9401 37.7366 45.8481C37.7447 49.2451 37.7487 52.6382 37.7487 56.0271Z" fill="#272B57"/>
<path d="M48.1418 66.4059C48.1418 64.3967 48.1905 62.3875 48.1418 60.3541C48.0712 59.4665 47.7415 58.6187 47.1931 57.9146C46.6448 57.2105 45.9017 56.6807 45.055 56.3902C44.7383 56.2753 44.4461 56.1845 44.093 56.0816C46.4553 56.0816 48.8176 55.9908 51.18 56.0816C52.3877 56.1628 53.5194 56.6965 54.3466 57.5749C55.1738 58.4533 55.6349 59.6109 55.6368 60.8141C55.6733 66.4624 55.6733 72.1228 55.6368 77.7953C55.6368 80.6396 53.4997 82.6367 50.3885 82.6367C49.2697 82.6052 48.1809 82.9992 47.3442 83.7381C46.0352 84.8577 44.6105 85.8441 43.0823 87.0303V82.6004C44.0662 82.6621 45.0458 82.4255 45.8916 81.9219C46.7373 81.4184 47.4095 80.6716 47.8191 79.7803C48.0701 79.3035 48.2056 78.7751 48.2149 78.2371C48.2149 75.5562 48.2149 72.8692 48.2149 70.1882C48.6249 68.956 48.5991 67.6216 48.1418 66.4059Z" fill="#A83D01"/>
<path d="M51.3018 23.0996C52.3307 22.5852 52.8543 21.5624 53.6093 20.7817C54.7479 19.5714 55.789 18.3247 56.8849 17.0962C58.383 15.4806 59.2323 13.3745 59.2716 11.1776C59.2291 10.8456 59.3112 10.5096 59.5021 10.2339C59.693 9.95815 59.9795 9.76198 60.3067 9.68283C60.6398 9.58472 60.9977 9.61267 61.3114 9.76129C61.625 9.90991 61.8723 10.1687 62.0054 10.4877C62.6107 11.5961 62.9696 12.8206 63.0578 14.0787C63.146 15.3368 62.9615 16.599 62.5168 17.7801C62.2976 18.3853 62.0236 18.9904 61.774 19.5956C61.3782 20.5578 61.3782 20.5578 62.4681 20.5639C64.6843 20.5639 66.9066 20.6002 69.1228 20.5639C70.785 20.5639 71.9966 21.1691 71.9418 23.3901C71.8566 27.2329 71.9418 31.0818 71.9418 34.9247C71.9418 36.5768 71.1625 37.3454 69.476 37.3454C65.5793 37.3454 61.6766 37.3454 57.7799 37.3454C55.7161 37.4211 53.6977 36.7308 52.1176 35.4088C51.9048 35.177 51.6337 35.0058 51.3322 34.9126C51.316 31.0032 51.3058 27.0655 51.3018 23.0996Z" fill="#EA5400"/>
<path d="M51.3017 23.0995C51.3017 27.0453 51.3017 30.991 51.3017 34.9368C51.1191 36.837 51.1191 36.837 49.1525 36.837H45.3167C44.5496 36.837 44.2086 36.5344 44.2086 35.7174C44.2086 31.1363 44.2086 26.5611 44.2086 21.98C44.2086 21.1811 44.5009 20.8604 45.3106 20.8785C46.9058 20.9148 48.4949 20.8785 50.0901 20.8785C51.1252 20.8785 51.2408 21.0056 51.253 22.0889C51.2652 22.4217 51.2835 22.7606 51.3017 23.0995Z" fill="#383E79"/>
<path d="M28.1776 44.3049C29.3223 45.1703 29.3223 46.0115 28.1776 46.8587C26.4668 46.8587 24.762 46.8587 23.0511 46.8587C22.6127 46.8587 22.4118 46.9555 22.3509 47.4639C22.1744 48.7771 21.9186 50.0782 21.6934 51.3854C21.5107 52.4263 21.0358 52.8015 20.0677 52.6623C19.3006 52.5534 18.9779 52.0087 19.1179 50.9981C19.2945 49.7877 19.4589 48.5774 19.6903 47.4094C19.7755 46.9495 19.6415 46.8526 19.2397 46.8769C19.0144 46.8769 18.7831 46.8769 18.5578 46.8769C16.5608 46.8769 16.5547 46.8769 16.2442 48.8195C16.1163 49.6243 15.9945 50.4353 15.8728 51.2402C15.7145 52.3174 15.1239 52.862 14.2897 52.6986C13.4556 52.5352 13.072 51.924 13.273 50.8286C13.4739 49.7333 13.6261 48.7166 13.8148 47.6636C13.9183 47.0947 13.7722 46.8345 13.1268 46.8647C12.1588 46.9071 11.1907 46.8647 10.2226 46.8647C9.25455 46.8647 8.73094 46.3564 8.72485 45.5939C8.72522 45.4099 8.76481 45.2282 8.84102 45.0606C8.91723 44.893 9.02833 44.7433 9.16699 44.6215C9.30565 44.4997 9.46871 44.4085 9.64543 44.3539C9.82214 44.2993 10.0085 44.2826 10.1922 44.3049C11.3003 44.3049 12.4145 44.2625 13.5226 44.3049C14.1923 44.3412 14.448 44.0749 14.5089 43.4697C14.5321 42.9045 14.6116 42.343 14.7464 41.7934C14.9656 41.0914 14.6429 41.049 14.0888 41.0551C12.7818 41.0793 11.4728 41.0793 10.1617 41.0551C9.90429 41.0824 9.64462 41.0303 9.41803 40.9057C9.19144 40.7812 9.00894 40.5904 8.89533 40.3591C8.7747 40.1327 8.72366 39.8761 8.74856 39.6211C8.77346 39.3661 8.87319 39.124 9.03537 38.9248C9.20167 38.7302 9.41364 38.5792 9.65256 38.4853C9.89148 38.3913 10.15 38.3573 10.4053 38.3862C11.7995 38.3862 13.1938 38.3862 14.5881 38.3862C15.0813 38.3862 15.3552 38.3257 15.4283 37.7387C15.5866 36.4497 15.8545 35.1788 16.0371 33.9019C16.1894 32.976 16.7617 32.4797 17.5897 32.5887C18.4178 32.6976 18.8074 33.3149 18.6309 34.271C18.4543 35.3301 18.2899 36.3831 18.1012 37.4422C17.9916 38.0837 18.1012 38.4104 18.8987 38.3983C21.1637 38.3983 21.1576 38.3983 21.5229 36.1289C21.6568 35.2938 21.7969 34.4587 21.9917 33.6356C22.0115 33.4584 22.0704 33.2876 22.1643 33.1357C22.2582 32.9837 22.3847 32.8542 22.5348 32.7565C22.6849 32.6588 22.8548 32.5952 23.0325 32.5704C23.2102 32.5456 23.3912 32.5601 23.5625 32.6129C23.7354 32.6552 23.898 32.7313 24.0411 32.8366C24.1842 32.9419 24.3048 33.0744 24.3959 33.2264C24.4871 33.3784 24.547 33.5468 24.5723 33.722C24.5975 33.8972 24.5874 34.0755 24.5428 34.2468C24.348 35.3604 24.1714 36.4739 23.9339 37.5753C23.8183 38.1805 23.9339 38.3923 24.5854 38.3983C25.7769 38.3136 26.9738 38.344 28.1594 38.4891C29.3162 39.1851 29.304 40.226 28.1594 41.0248C26.7651 41.0248 25.3708 41.0611 23.9826 41.0551C23.4956 41.0551 23.252 41.1943 23.2338 41.7268C23.2025 42.2599 23.1313 42.7899 23.0207 43.3124C22.8319 44.2867 22.8197 44.2867 23.8365 44.2867L28.1776 44.3049ZM18.6004 44.3049C20.2747 44.3049 20.2748 44.3049 20.4878 42.689C20.4878 42.6346 20.4878 42.5741 20.4878 42.5196C20.6827 41.0793 20.6827 41.0793 19.2701 41.0793C17.474 41.0793 17.474 41.0793 17.2488 42.8282C17.0478 44.3049 17.0478 44.3049 18.6004 44.3049Z" fill="#F5F2F1"/>
<path d="M48.1419 66.4059C48.5683 67.6207 48.5683 68.9432 48.1419 70.158C46.9242 72.494 44.7201 73.6982 42.5405 74.9268C42.4492 74.9837 42.3437 75.0139 42.236 75.0139C42.1283 75.0139 42.0228 74.9837 41.9316 74.9268C40.269 74.1157 38.7479 73.0451 37.4261 71.7556C36.754 71.0778 36.2944 70.2206 36.1031 69.2881C35.9118 68.3556 35.997 67.388 36.3484 66.5027C36.5605 65.9813 36.9058 65.524 37.3501 65.1759C37.7945 64.8277 38.3226 64.6009 38.8821 64.5178C39.4417 64.4347 40.0134 64.4981 40.5408 64.7019C41.0681 64.9057 41.5328 65.2427 41.889 65.6797C42.0473 65.8552 42.1812 66.2849 42.4978 65.8189C43.7155 63.9307 46.7111 64.1183 48.014 66.2243C48.0536 66.2869 48.0962 66.3475 48.1419 66.4059Z" fill="#F7F2F0"/>
<path d="M28.1776 44.3049H23.8304C22.8136 44.3049 22.8258 44.3049 23.0145 43.3306C23.1246 42.812 23.1958 42.2861 23.2276 41.7571C23.2276 41.2246 23.4894 41.0854 23.9765 41.0854C25.3647 41.0854 26.759 41.0854 28.1532 41.0551C28.1593 42.1263 28.1715 43.2156 28.1776 44.3049Z" fill="#383E79"/>
<path d="M18.6004 44.3049C17.0539 44.3049 17.0539 44.3049 17.2427 42.8282C17.4679 41.0793 17.4679 41.0793 19.2641 41.0793C20.6888 41.0793 20.6888 41.0793 20.4818 42.5196C20.4818 42.5741 20.4818 42.6346 20.4818 42.6891C20.2748 44.3049 20.2748 44.3049 18.6004 44.3049Z" fill="#383E79"/>
</g>
<defs>
<clipPath id="clip0_184_495">
<rect width="82" height="87" fill="white"/>
</clipPath>
</defs>
</svg>
