<svg width="776" height="907" viewBox="0 0 776 907" fill="none" xmlns="http://www.w3.org/2000/svg">
<path d="M60.1904 156.992L173.816 28.0084C182.042 18.6707 194.263 13.8763 206.8 15.0683L793.488 70.8454C814.783 72.87 831.13 91.3243 830.592 112.732L811.834 858.808C811.204 883.859 788.052 901.627 763.619 895.811L233.669 769.661C219.151 766.205 207.545 754.991 203.54 740.546L51.9344 193.827C48.3177 180.784 51.4187 166.949 60.1904 156.992Z" fill="#DD7432"/>
<g filter="url(#filter0_i_139_1201)">
<path d="M87.9994 166.55L193.939 25.053C201.07 15.529 212.07 9.67356 223.953 9.07678L740.285 -16.8547C763.399 -18.0156 782.672 0.622564 782.286 23.7628L770.044 756.797C769.614 782.494 745.411 801.124 720.46 794.963L241.732 676.745C227.914 673.332 216.949 662.833 212.941 649.176L81.6382 201.788C78.0893 189.696 80.4465 176.638 87.9994 166.55Z" fill="url(#paint0_linear_139_1201)"/>
</g>
<g filter="url(#filter1_f_139_1201)">
<ellipse cx="389" cy="245" rx="140" ry="107" fill="url(#paint1_radial_139_1201)" fill-opacity="0.4"/>
</g>
<path d="M706.993 543.626L698.57 538.784L700.442 537.69L708.865 542.532L706.993 543.626Z" fill="#42E8E0"/>
<path d="M714.168 547.843L709.957 545.344L711.829 544.251L716.04 546.75L714.168 547.843Z" fill="#42E8E0"/>
<path d="M705.121 547.531L701.534 545.5L703.406 544.407L706.993 546.594L705.121 547.531Z" fill="#42E8E0"/>
<path d="M711.205 551.123L706.993 548.624L708.865 547.531L713.076 550.03L711.205 551.123Z" fill="#42E8E0"/>
<path d="M713.856 557.684L697.166 547.999L699.038 546.906L715.728 556.59L713.856 557.684Z" fill="#42E8E0"/>
<path d="M666.283 576.74L649.749 567.056L651.621 565.962L668.154 575.646L666.283 576.74Z" fill="#42E8E0"/>
<path d="M672.834 580.332L668.466 577.989L670.338 576.896L674.549 579.395L672.834 580.332Z" fill="#42E8E0"/>
<path d="M696.542 552.685L692.955 550.499L694.671 549.405L698.414 551.592L696.542 552.685Z" fill="#42E8E0"/>
<path d="M702.626 556.122L698.258 553.622L700.13 552.529L704.341 555.028L702.626 556.122Z" fill="#42E8E0"/>
<path d="M697.634 558.308L688.588 552.998L690.459 551.904L699.506 557.215L697.634 558.308Z" fill="#42E8E0"/>
<path d="M703.874 561.901L699.662 559.402L701.378 558.308L705.745 560.808L703.874 561.901Z" fill="#42E8E0"/>
<path d="M709.957 565.494L705.745 562.994L707.617 561.901L711.828 564.4L709.957 565.494Z" fill="#42E8E0"/>
<path d="M719.939 571.117L711.984 566.587L713.7 565.494L721.811 570.023L719.939 571.117Z" fill="#42E8E0"/>
<path d="M706.525 573.46L702.158 570.96L704.029 569.867L708.241 572.366L706.525 573.46Z" fill="#42E8E0"/>
<path d="M716.352 579.083L708.397 574.553L710.269 573.46L718.224 578.146L716.352 579.083Z" fill="#42E8E0"/>
<path d="M684.064 560.495L679.853 557.996L681.725 556.903L685.936 559.402L684.064 560.495Z" fill="#42E8E0"/>
<path d="M690.303 564.088L686.092 561.589L687.964 560.495L692.175 562.994L690.303 564.088Z" fill="#42E8E0"/>
<path d="M700.286 569.867L692.175 565.181L694.047 564.088L702.002 568.774L700.286 569.867Z" fill="#42E8E0"/>
<path d="M716.82 574.397L712.608 571.898L714.48 570.804L718.692 573.303L716.82 574.397Z" fill="#42E8E0"/>
<path d="M722.903 577.989L718.692 575.49L720.563 574.397L724.775 576.896L722.903 577.989Z" fill="#42E8E0"/>
<path d="M679.385 584.237L675.173 581.738L677.045 580.645L681.257 583.144L679.385 584.237Z" fill="#42E8E0"/>
<path d="M689.367 590.017L681.257 585.331L683.128 584.237L691.239 588.923L689.367 590.017Z" fill="#42E8E0"/>
<path d="M675.485 565.494L671.274 562.994L673.146 561.901L677.357 564.4L675.485 565.494Z" fill="#42E8E0"/>
<path d="M685.468 571.273L677.357 566.587L679.229 565.494L687.184 570.179L685.468 571.273Z" fill="#42E8E0"/>
<path d="M680.477 589.86L676.265 587.361L677.981 586.268L682.348 588.767L680.477 589.86Z" fill="#42E8E0"/>
<path d="M690.459 595.64L682.348 590.954L684.22 589.86L692.175 594.546L690.459 595.64Z" fill="#42E8E0"/>
<path d="M726.49 565.025L722.279 562.526L724.151 561.432L728.362 563.932L726.49 565.025Z" fill="#42E8E0"/>
<path d="M720.095 561.276L715.884 558.777L717.756 557.684L721.967 560.183L720.095 561.276Z" fill="#42E8E0"/>
<path d="M736.473 570.648L728.518 566.118L730.234 565.025L738.345 569.711L736.473 570.648Z" fill="#42E8E0"/>
<path d="M688.12 557.684L684.22 555.497L686.092 554.403L689.835 556.746L688.12 557.684Z" fill="#42E8E0"/>
<path d="M699.35 564.244L690.147 558.933L691.863 557.84L701.222 563.151L699.35 564.244Z" fill="#42E8E0"/>
<path d="M710.737 570.804L701.378 565.494L703.25 564.4L712.608 569.711L710.737 570.804Z" fill="#42E8E0"/>
<path d="M685 565.962L675.641 560.651L677.513 559.558L686.716 564.869L685 565.962Z" fill="#42E8E0"/>
<path d="M689.835 568.774L687.028 567.212L688.9 566.118L691.707 567.68L689.835 568.774Z" fill="#42E8E0"/>
<path d="M694.671 571.585L691.863 570.023L693.735 568.93L696.543 570.492L694.671 571.585Z" fill="#42E8E0"/>
<path d="M703.874 576.896L696.854 572.835L698.57 571.741L705.589 575.803L703.874 576.896Z" fill="#42E8E0"/>
<path d="M705.745 577.989L698.726 573.928L700.598 572.835L707.617 576.896L705.745 577.989Z" fill="#42E8E0"/>
<path d="M724.619 573.928L721.811 572.21L723.683 571.117L726.491 572.835L724.619 573.928Z" fill="#42E8E0"/>
<path d="M657.548 581.582L648.345 576.271L650.217 575.334L659.419 580.489L657.548 581.582Z" fill="#42E8E0"/>
<path d="M663.631 585.174L659.419 582.675L661.291 581.582L665.503 584.081L663.631 585.174Z" fill="#42E8E0"/>
<path d="M669.87 588.767L665.659 586.268L667.53 585.174L671.742 587.674L669.87 588.767Z" fill="#42E8E0"/>
<path d="M679.853 594.546L671.742 589.86L673.614 588.767L681.568 593.453L679.853 594.546Z" fill="#42E8E0"/>
<path d="M666.127 596.577L661.915 594.078L663.787 593.141L667.998 595.484L666.127 596.577Z" fill="#42E8E0"/>
<path d="M676.109 602.356L667.998 597.67L669.87 596.577L677.825 601.263L676.109 602.356Z" fill="#42E8E0"/>
<path d="M643.978 583.769L639.766 581.27L641.638 580.332L645.849 582.675L643.978 583.769Z" fill="#42E8E0"/>
<path d="M650.217 587.361L645.849 584.862L647.721 583.769L651.932 586.268L650.217 587.361Z" fill="#42E8E0"/>
<path d="M660.043 593.141L652.088 588.455L653.96 587.361L661.915 592.047L660.043 593.141Z" fill="#42E8E0"/>
<path d="M647.877 581.113L644.134 578.77L645.849 577.833L649.749 580.02L647.877 581.113Z" fill="#42E8E0"/>
<path d="M659.264 587.674L649.905 582.207L651.777 581.113L661.135 586.58L659.264 587.674Z" fill="#42E8E0"/>
<path d="M670.494 594.078L661.291 588.767L663.163 587.674L672.366 593.141L670.494 594.078Z" fill="#42E8E0"/>
<path d="M637.27 584.862L628.068 579.551L629.783 578.458L639.142 583.925L637.27 584.862Z" fill="#42E8E0"/>
<path d="M642.262 587.83L639.298 586.112L641.17 585.018L643.977 586.736L642.262 587.83Z" fill="#42E8E0"/>
<path d="M647.097 590.641L644.289 588.923L646.161 587.83L648.969 589.548L647.097 590.641Z" fill="#42E8E0"/>
<path d="M656.144 595.796L649.125 591.735L650.997 590.798L658.016 594.859L656.144 595.796Z" fill="#42E8E0"/>
<path d="M658.016 596.889L650.997 592.828L652.868 591.891L659.887 595.952L658.016 596.889Z" fill="#42E8E0"/>
<path d="M655.676 575.49L652.868 573.928L654.74 572.835L657.548 574.553L655.676 575.49Z" fill="#42E8E0"/>
<path d="M664.723 580.801L657.704 576.74L659.575 575.646L666.594 579.708L664.723 580.801Z" fill="#42E8E0"/>
<path d="M674.082 586.112L667.062 582.051L668.934 580.957L675.953 585.018L674.082 586.112Z" fill="#42E8E0"/>
<path d="M662.539 562.994L659.575 561.276L661.447 560.339L664.255 561.901L662.539 562.994Z" fill="#42E8E0"/>
<path d="M671.586 568.305L664.567 564.244L666.439 563.151L673.458 567.212L671.586 568.305Z" fill="#42E8E0"/>
<path d="M680.789 573.616L673.77 569.555L675.641 568.461L682.66 572.522L680.789 573.616Z" fill="#42E8E0"/>
<path opacity="0.1" d="M616.681 367.903L542.747 325.105L642.73 267.468L716.508 310.11L616.681 367.903Z" fill="#42E8E0"/>
<path d="M402.366 460.06C382.244 460.06 361.967 455.686 346.681 446.783C331.707 438.192 323.44 426.633 323.44 414.45C323.44 402.267 331.707 390.708 346.681 382.117C377.409 364.31 427.478 364.31 458.206 382.117C473.18 390.708 481.447 402.267 481.447 414.45C481.447 426.633 473.18 438.192 458.362 446.783C442.608 455.686 422.487 460.06 402.366 460.06ZM402.366 369.153C382.244 369.153 362.123 373.526 346.837 382.429C332.019 391.02 323.908 402.267 323.908 414.294C323.908 426.321 332.019 437.724 346.837 446.158C377.409 463.809 427.166 463.809 457.738 446.158L457.894 446.471L457.738 446.158C472.556 437.567 480.667 426.321 480.667 414.294C480.667 402.267 472.556 390.864 457.738 382.429C442.452 373.682 422.331 369.153 402.366 369.153Z" fill="#42E8E0"/>
<path d="M583.44 325.969L450.436 397.186L450.657 397.599L583.66 326.382L583.44 325.969Z" fill="#42E8E0"/>
<path d="M371.17 379.149C388.328 369.153 416.404 369.153 433.562 379.149C436.369 380.711 438.709 382.586 440.581 384.46C450.407 374.776 448.068 361.967 433.562 353.689C416.404 343.692 388.328 343.692 371.17 353.689C356.664 361.967 354.48 374.776 364.151 384.46C366.023 382.429 368.362 380.711 371.17 379.149Z" fill="#5351AF"/>
<path d="M468.813 371.808C465.693 368.84 461.95 366.029 457.582 363.529C450.719 359.624 442.92 356.501 434.497 354.314C450.563 364.467 450.095 380.243 433.094 390.239C415.468 400.392 387.08 400.392 369.454 390.239C352.92 380.711 351.984 365.716 366.334 355.407C359.471 357.438 352.92 360.249 347.149 363.529C342.782 366.029 339.038 368.84 335.919 371.808H324.376V395.55C324.376 407.109 332.019 418.667 347.305 427.414C377.877 445.065 427.166 445.065 457.738 427.414C473.024 418.667 480.667 407.109 480.667 395.55V371.808H468.813V371.808Z" fill="url(#paint2_linear_139_1201)"/>
<path opacity="0.3" d="M457.582 363.529C450.719 359.624 442.92 356.501 434.497 354.314C450.563 364.467 450.095 380.243 433.094 390.239C424.671 395.081 413.596 397.737 402.366 397.893V440.691C422.331 440.691 442.296 436.318 457.582 427.414C472.868 418.667 480.511 407.109 480.511 395.55V371.808H468.969C465.693 368.84 461.95 366.029 457.582 363.529Z" fill="#0F054C"/>
<path opacity="0.5" d="M457.582 363.529C450.719 359.624 442.92 356.501 434.497 354.314C450.563 364.467 450.095 380.243 433.094 390.239C424.671 395.081 413.596 397.737 402.366 397.893V440.691C422.331 440.691 442.296 436.318 457.582 427.414C472.868 418.667 480.511 407.109 480.511 395.55V371.808H468.969C465.693 368.84 461.95 366.029 457.582 363.529Z" fill="url(#paint3_radial_139_1201)"/>
<path d="M457.582 341.818C427.01 324.167 377.721 324.167 347.149 341.818C316.577 359.468 316.577 388.053 347.149 405.703C377.721 423.353 427.01 423.353 457.582 405.703C487.998 387.896 487.998 359.312 457.582 341.818ZM433.562 392.114C415.936 402.267 387.548 402.267 369.922 392.114C352.296 381.961 352.296 365.56 369.922 355.407C387.548 345.254 415.936 345.254 433.562 355.407C451.031 365.404 451.031 381.961 433.562 392.114Z" fill="#5351AF"/>
<path d="M457.582 403.204C427.01 420.854 377.721 420.854 347.149 403.204C332.487 394.769 324.844 383.679 324.376 372.433C323.752 384.46 331.395 396.487 347.149 405.547C377.721 423.197 427.01 423.197 457.582 405.547C473.336 396.487 480.979 384.304 480.355 372.433C479.887 383.679 472.244 394.613 457.582 403.204Z" fill="white"/>
<path d="M433.562 352.908C415.936 342.755 387.548 342.755 369.922 352.908C360.563 358.219 356.196 365.404 356.82 372.433C357.288 366.185 361.655 360.093 369.922 355.251C387.548 345.098 415.936 345.098 433.562 355.251C441.828 360.093 446.196 366.185 446.664 372.433C447.288 365.404 442.92 358.219 433.562 352.908Z" fill="white"/>
<path d="M453.995 341.662C425.607 325.261 379.593 325.261 351.204 341.662C322.816 358.062 322.816 384.616 351.204 401.173C379.593 417.574 425.607 417.574 453.995 401.173C482.383 384.772 482.383 358.219 453.995 341.662ZM433.25 389.146C416.248 398.986 388.795 398.986 371.794 389.146C354.792 379.305 354.792 363.373 371.794 353.689C388.795 343.848 416.248 343.848 433.25 353.689C450.251 363.529 450.251 379.462 433.25 389.146Z" fill="url(#paint4_linear_139_1201)"/>
<path opacity="0.4" d="M468.813 349.94C465.693 346.972 461.95 344.161 457.582 341.662C450.719 337.757 442.92 334.633 434.497 332.446C450.563 342.599 450.095 358.375 433.094 368.372C415.468 378.524 387.08 378.524 369.454 368.372C352.92 358.843 351.984 343.848 366.334 333.539C359.471 335.57 352.92 338.382 347.149 341.662C342.782 344.161 339.038 346.972 335.919 349.94H324.376V373.682C324.376 385.241 332.019 396.8 347.305 405.547C377.877 423.197 427.166 423.197 457.738 405.547C473.024 396.8 480.667 385.241 480.667 373.682V349.94H468.813Z" fill="#42E8E0"/>
<path d="M371.17 343.536C388.328 333.539 416.404 333.539 433.562 343.536C436.369 345.098 438.709 346.972 440.581 348.847C450.407 339.163 448.068 326.354 433.562 318.076C416.404 308.079 388.328 308.079 371.17 318.076C356.664 326.354 354.48 339.163 364.151 348.847C366.023 346.972 368.362 345.254 371.17 343.536Z" fill="#5351AF"/>
<path d="M468.813 336.195C465.693 333.227 461.95 330.415 457.582 327.916C450.719 324.011 442.92 320.887 434.497 318.701C450.563 328.853 450.095 344.629 433.094 354.626C415.468 364.779 387.08 364.779 369.454 354.626C352.92 345.098 351.984 330.103 366.334 319.794C359.471 321.825 352.92 324.636 347.149 327.916C342.782 330.415 339.038 333.227 335.919 336.195H324.376V359.937C324.376 371.496 332.019 383.054 347.305 391.801C377.877 409.452 427.166 409.452 457.738 391.801C473.024 383.054 480.667 371.496 480.667 359.937V336.195H468.813V336.195Z" fill="url(#paint5_linear_139_1201)"/>
<path opacity="0.3" d="M457.582 327.916C450.719 324.011 442.92 320.887 434.497 318.701C450.563 328.853 450.095 344.629 433.094 354.626C424.671 359.468 413.596 362.124 402.366 362.28V405.078C422.331 405.078 442.296 400.705 457.582 391.801C472.868 383.054 480.511 371.496 480.511 359.937V336.195H468.969C465.693 333.227 461.95 330.572 457.582 327.916Z" fill="#0F054C"/>
<path opacity="0.5" d="M457.582 327.916C450.719 324.011 442.92 320.887 434.497 318.701C450.563 328.853 450.095 344.629 433.094 354.626C424.671 359.468 413.596 362.124 402.366 362.28V405.078C422.331 405.078 442.296 400.705 457.582 391.801C472.868 383.054 480.511 371.496 480.511 359.937V336.195H468.969C465.693 333.227 461.95 330.572 457.582 327.916Z" fill="url(#paint6_radial_139_1201)"/>
<path d="M457.582 306.205C427.01 288.554 377.721 288.554 347.149 306.205C316.577 323.855 316.577 352.439 347.149 370.09C377.721 387.74 427.01 387.74 457.582 370.09C487.998 352.439 487.998 323.855 457.582 306.205ZM433.562 356.501C415.936 366.653 387.548 366.653 369.922 356.501C352.296 346.348 352.296 329.947 369.922 319.794C387.548 309.641 415.936 309.641 433.562 319.794C451.031 329.947 451.031 346.348 433.562 356.501Z" fill="#5351AF"/>
<path d="M457.582 367.591C427.01 385.241 377.721 385.241 347.149 367.591C332.487 359.156 324.844 348.066 324.376 336.82C323.752 348.847 331.395 360.874 347.149 369.934C377.721 387.584 427.01 387.584 457.582 369.934C473.336 360.874 480.979 348.691 480.355 336.82C479.887 348.066 472.244 359.156 457.582 367.591Z" fill="white"/>
<path d="M433.562 317.295C415.936 307.142 387.548 307.142 369.922 317.295C360.563 322.606 356.196 329.791 356.82 336.82C357.288 330.572 361.655 324.48 369.922 319.638C387.548 309.485 415.936 309.485 433.562 319.638C441.828 324.48 446.196 330.572 446.664 336.82C447.288 329.947 442.92 322.762 433.562 317.295Z" fill="white"/>
<path d="M453.995 306.205C425.607 289.804 379.593 289.804 351.204 306.205C322.816 322.606 322.816 349.159 351.204 365.716C379.593 382.117 425.607 382.117 453.995 365.716C482.383 349.315 482.383 322.606 453.995 306.205ZM433.25 353.689C416.248 363.529 388.795 363.529 371.794 353.689C354.792 343.848 354.792 327.916 371.794 318.232C388.795 308.392 416.248 308.392 433.25 318.232C450.251 328.072 450.251 343.848 433.25 353.689Z" fill="url(#paint7_linear_139_1201)"/>
<path opacity="0.4" d="M468.813 314.483C465.693 311.515 461.95 308.704 457.582 306.205C450.719 302.3 442.92 299.176 434.497 296.989C450.563 307.142 450.095 322.918 433.094 332.915C415.468 343.067 387.08 343.067 369.454 332.915C352.92 323.387 351.984 308.235 366.334 298.082C359.471 300.113 352.92 302.925 347.149 306.205C342.782 308.704 339.038 311.515 335.919 314.483H324.376V338.225C324.376 349.784 332.019 361.343 347.305 370.09C377.877 387.74 427.166 387.74 457.738 370.09C473.024 361.343 480.667 349.784 480.667 338.225V314.483H468.813Z" fill="#42E8E0"/>
<path d="M371.17 308.079C388.328 298.082 416.404 298.082 433.562 308.079C436.369 309.641 438.709 311.515 440.581 313.39C450.407 303.706 448.068 290.897 433.562 282.619C416.404 272.622 388.328 272.622 371.17 282.619C356.664 290.897 354.48 303.706 364.151 313.39C366.023 311.515 368.362 309.641 371.17 308.079Z" fill="#5351AF"/>
<path d="M468.813 300.738C465.693 297.77 461.95 294.958 457.582 292.459C450.719 288.554 442.92 285.43 434.497 283.244C450.563 293.396 450.095 309.172 433.094 319.169C415.468 329.322 387.08 329.322 369.454 319.169C352.92 309.641 351.984 294.646 366.334 284.337C359.471 286.368 352.92 289.179 347.149 292.459C342.782 294.958 339.038 297.77 335.919 300.738H324.376V324.48C324.376 336.039 332.019 347.597 347.305 356.344C377.877 373.995 427.166 373.995 457.738 356.344C473.024 347.597 480.667 336.039 480.667 324.48V300.738H468.813Z" fill="url(#paint8_linear_139_1201)"/>
<path opacity="0.3" d="M457.582 292.459C450.719 288.554 442.92 285.43 434.497 283.244C450.563 293.396 450.095 309.172 433.094 319.169C424.671 324.011 413.596 326.667 402.366 326.823V369.621C422.331 369.621 442.296 365.248 457.582 356.344C472.868 347.597 480.511 336.039 480.511 324.48V300.738H468.969C465.693 297.77 461.95 294.958 457.582 292.459Z" fill="#0F054C"/>
<path opacity="0.5" d="M457.582 292.459C450.719 288.554 442.92 285.43 434.497 283.244C450.563 293.396 450.095 309.172 433.094 319.169C424.671 324.011 413.596 326.667 402.366 326.823V369.621C422.331 369.621 442.296 365.248 457.582 356.344C472.868 347.597 480.511 336.039 480.511 324.48V300.738H468.969C465.693 297.77 461.95 294.958 457.582 292.459Z" fill="url(#paint9_radial_139_1201)"/>
<path d="M457.582 270.748C427.01 253.097 377.721 253.097 347.149 270.748C316.577 288.398 316.577 316.982 347.149 334.633C377.721 352.283 427.01 352.283 457.582 334.633C487.998 316.982 487.998 288.398 457.582 270.748ZM433.562 321.044C415.936 331.196 387.548 331.196 369.922 321.044C352.296 310.891 352.296 294.49 369.922 284.337C387.548 274.184 415.936 274.184 433.562 284.337C451.031 294.49 451.031 310.891 433.562 321.044Z" fill="#5351AF"/>
<path d="M457.582 332.134C427.01 349.784 377.721 349.784 347.149 332.134C332.487 323.699 324.844 312.609 324.376 301.363C323.752 313.39 331.395 325.417 347.149 334.477C377.721 352.127 427.01 352.127 457.582 334.477C473.336 325.417 480.979 313.234 480.355 301.363C479.887 312.609 472.244 323.699 457.582 332.134Z" fill="white"/>
<path d="M433.562 281.838C415.936 271.685 387.548 271.685 369.922 281.838C360.563 287.149 356.196 294.334 356.82 301.363C357.288 295.115 361.655 289.023 369.922 284.181C387.548 274.028 415.936 274.028 433.562 284.181C441.828 289.023 446.196 295.115 446.664 301.363C447.288 294.334 442.92 287.305 433.562 281.838Z" fill="white"/>
<path d="M453.995 270.748C425.607 254.347 379.593 254.347 351.204 270.748C322.816 287.149 322.816 313.702 351.204 330.259C379.593 346.66 425.607 346.66 453.995 330.259C482.383 313.702 482.383 287.149 453.995 270.748ZM433.25 318.232C416.248 328.072 388.795 328.072 371.794 318.232C354.792 308.391 354.792 292.459 371.794 282.775C388.795 272.935 416.248 272.935 433.25 282.775C450.251 292.459 450.251 308.391 433.25 318.232Z" fill="url(#paint10_linear_139_1201)"/>
<path opacity="0.4" d="M468.813 279.026C465.693 276.059 461.95 273.247 457.582 270.748C450.719 266.843 442.92 263.719 434.497 261.532C450.563 271.685 450.095 287.461 433.094 297.458C415.468 307.611 387.08 307.611 369.454 297.458C352.92 287.93 351.984 272.935 366.334 262.625C359.471 264.656 352.92 267.468 347.149 270.748C342.782 273.247 339.038 276.059 335.919 279.026H324.376V302.768C324.376 314.327 332.019 325.886 347.305 334.633C377.877 352.283 427.166 352.283 457.738 334.633C473.024 325.886 480.667 314.327 480.667 302.768V279.026H468.813Z" fill="#42E8E0"/>
<path d="M371.17 272.622C388.328 262.625 416.404 262.625 433.562 272.622C436.369 274.184 438.709 276.058 440.581 277.933C450.407 268.249 448.068 255.44 433.562 247.162C416.404 237.165 388.328 237.165 371.17 247.162C356.664 255.44 354.324 268.092 364.151 277.777C366.023 275.902 368.362 274.184 371.17 272.622Z" fill="#5351AF"/>
<path d="M468.813 265.281C465.693 262.313 461.95 259.501 457.582 257.002C450.719 253.097 442.92 249.973 434.497 247.787C450.563 257.94 450.095 273.716 433.094 283.712C415.468 293.865 387.08 293.865 369.454 283.712C352.92 274.028 351.984 259.033 366.334 248.724C359.471 250.754 352.92 253.566 347.149 256.846C342.782 259.345 339.038 262.157 335.919 265.125H324.376V288.867C324.376 300.425 332.019 311.984 347.305 320.731C377.877 338.382 427.166 338.382 457.738 320.731C473.024 311.984 480.667 300.425 480.667 288.867V265.281H468.813Z" fill="url(#paint11_linear_139_1201)"/>
<path d="M468.813 265.281C465.693 262.313 461.95 259.501 457.582 257.002C450.719 253.097 442.92 249.973 434.497 247.787C450.563 257.94 450.095 273.716 433.094 283.712C415.468 293.865 387.08 293.865 369.454 283.712C352.92 274.028 351.984 259.033 366.334 248.724C359.471 250.754 352.92 253.566 347.149 256.846C342.782 259.345 339.038 262.157 335.919 265.125H324.376V288.867C324.376 300.425 332.019 311.984 347.305 320.731C377.877 338.382 427.166 338.382 457.738 320.731C473.024 311.984 480.667 300.425 480.667 288.867V265.281H468.813Z" fill="url(#paint12_linear_139_1201)"/>
<path opacity="0.3" d="M457.582 257.002C450.719 253.097 442.92 249.973 434.497 247.787C450.563 257.94 450.095 273.716 433.094 283.712C424.671 288.554 413.596 291.21 402.366 291.366V334.008C422.331 334.008 442.296 329.634 457.582 320.731C472.868 311.984 480.511 300.425 480.511 288.867V265.281H468.969C465.693 262.313 461.95 259.501 457.582 257.002Z" fill="#0F054C"/>
<path opacity="0.5" d="M457.582 257.002C450.719 253.097 442.92 249.973 434.497 247.787C450.563 257.94 450.095 273.716 433.094 283.712C424.671 288.554 413.596 291.21 402.366 291.366V334.008C422.331 334.008 442.296 329.634 457.582 320.731C472.868 311.984 480.511 300.425 480.511 288.867V265.281H468.969C465.693 262.313 461.95 259.501 457.582 257.002Z" fill="url(#paint13_radial_139_1201)"/>
<path d="M457.582 235.291C427.01 217.64 377.721 217.64 347.149 235.291C316.577 252.941 316.577 281.525 347.149 299.176C377.721 316.826 427.01 316.826 457.582 299.176C487.998 281.525 487.998 252.941 457.582 235.291ZM433.562 285.587C415.936 295.739 387.548 295.739 369.922 285.587C352.296 275.434 352.296 259.033 369.922 248.88C387.548 238.727 415.936 238.727 433.562 248.88C451.031 258.877 451.031 275.434 433.562 285.587Z" fill="url(#paint14_linear_139_1201)"/>
<path d="M457.582 296.677C427.01 314.327 377.721 314.327 347.149 296.677C332.487 288.242 324.844 277.152 324.376 265.906C323.752 277.933 331.395 289.96 347.149 299.02C377.721 316.67 427.01 316.67 457.582 299.02C473.336 289.96 480.979 277.777 480.355 265.906C479.887 277.152 472.244 288.086 457.582 296.677Z" fill="white"/>
<path d="M453.995 236.853C425.607 220.452 379.593 220.452 351.204 236.853C322.816 253.254 322.816 279.807 351.204 296.364C379.593 312.765 425.607 312.765 453.995 296.364C482.383 279.963 482.383 253.254 453.995 236.853ZM433.25 284.337C416.248 294.177 388.795 294.177 371.794 284.337C354.792 274.497 354.792 258.564 371.794 248.88C388.795 239.04 416.248 239.04 433.25 248.88C450.251 258.721 450.251 274.497 433.25 284.337Z" fill="#24126A"/>
<path d="M484.567 615.633C480.979 615.633 477.548 614.852 475.052 613.446L349.645 540.97C347.149 539.565 345.745 537.534 345.745 535.191C345.745 532.536 347.773 529.88 351.205 527.85L590.477 389.458C597.028 385.71 606.854 385.241 612.47 388.521L737.877 460.997C740.373 462.403 741.776 464.433 741.776 466.776C741.776 469.432 739.749 472.087 736.317 474.118L497.045 612.509C493.458 614.54 488.778 615.633 484.567 615.633ZM602.799 386.959C598.588 386.959 594.064 388.052 590.633 390.083L351.205 528.318C347.929 530.193 346.057 532.692 346.057 535.191C346.057 537.222 347.305 539.096 349.645 540.346L475.052 612.822C480.511 615.946 490.182 615.633 496.577 611.884L735.849 473.493C739.125 471.618 740.997 469.119 740.997 466.62C740.997 464.59 739.749 462.715 737.409 461.466L612.002 388.99C609.662 387.584 606.23 386.959 602.799 386.959Z" fill="#42E8E0"/>
<path d="M741.464 433.35L723.371 436.474L612.158 372.12C606.542 368.84 596.872 369.309 590.321 373.057L377.721 495.985L345.745 501.608V512.855C345.745 514.885 346.993 516.916 349.489 518.322L474.896 590.798C480.511 594.078 490.182 593.609 496.733 589.86L736.005 451.469C739.437 449.438 741.308 446.939 741.308 444.44V433.35H741.464Z" fill="url(#paint15_linear_139_1201)"/>
<path d="M475.052 579.551L349.645 507.075C344.029 503.795 344.809 498.172 351.204 494.423L590.477 356.032C596.872 352.283 606.698 351.971 612.314 355.095L737.721 427.571C743.336 430.851 742.556 436.474 736.161 440.223L496.889 578.614C490.338 582.363 480.667 582.675 475.052 579.551Z" fill="#24126A"/>
<path d="M736.161 440.223L496.889 578.614C490.494 582.363 480.667 582.675 475.052 579.551L349.645 507.075C347.461 505.826 346.213 504.108 345.901 502.233C345.589 504.576 346.837 506.763 349.645 508.481L475.052 580.957C480.667 584.237 490.338 583.769 496.889 580.02L736.161 441.785C740.061 439.598 741.776 436.63 741.464 433.975C740.997 436.162 739.281 438.348 736.161 440.223Z" fill="white"/>
<path opacity="0.51" d="M475.364 576.74L354.324 506.763C348.865 503.639 349.645 498.172 355.884 494.58L590.633 358.843C596.872 355.251 606.231 354.782 611.69 357.906L732.73 427.883C738.189 431.007 737.409 436.474 731.17 440.066L496.265 575.803C490.182 579.395 480.667 579.864 475.364 576.74Z" fill="#453C9E"/>
<g opacity="0.3">
<path opacity="0.5" d="M475.364 576.74L354.324 506.763C348.865 503.639 349.645 498.172 355.884 494.58L590.633 358.843C596.872 355.251 606.231 354.782 611.69 357.906L732.73 427.883C738.189 431.007 737.409 436.474 731.17 440.066L496.265 575.803C490.182 579.395 480.667 579.864 475.364 576.74Z" fill="url(#paint16_radial_139_1201)"/>
<g opacity="0.3">
<g opacity="0.3">
<path opacity="0.3" d="M371.17 522.227C388.328 512.23 416.404 512.23 433.562 522.227C436.369 523.789 438.709 525.663 440.581 527.537C450.407 517.853 448.068 505.045 433.562 496.766C416.404 486.77 388.328 486.77 371.17 496.766C356.664 505.045 354.48 517.853 364.151 527.537C366.023 525.663 368.362 523.945 371.17 522.227Z" fill="#5351AF"/>
<path opacity="0.3" d="M468.813 514.885C465.693 511.918 461.95 509.106 457.582 506.607C450.719 502.702 442.92 499.578 434.497 497.391C450.563 507.544 450.095 523.32 433.094 533.317C415.468 543.47 387.08 543.47 369.454 533.317C352.92 523.789 351.984 508.794 366.334 498.485C359.471 500.515 352.92 503.327 347.149 506.607C342.782 509.106 339.038 511.918 335.919 514.885H324.376V538.627C324.376 550.186 332.019 561.745 347.305 570.492C377.877 588.142 427.166 588.142 457.738 570.492C473.024 561.745 480.667 550.186 480.667 538.627V514.885H468.813V514.885Z" fill="url(#paint17_linear_139_1201)"/>
<path opacity="0.3" d="M457.582 506.763C450.719 502.858 442.92 499.734 434.497 497.547C450.563 507.7 450.095 523.476 433.094 533.473C424.671 538.315 413.596 540.97 402.366 541.127V583.925C422.331 583.925 442.296 579.551 457.582 570.648C472.868 561.901 480.511 550.342 480.511 538.784V515.042H468.969C465.693 512.074 461.95 509.262 457.582 506.763Z" fill="#0F054C"/>
<path opacity="0.5" d="M457.582 506.763C450.719 502.858 442.92 499.734 434.497 497.547C450.563 507.7 450.095 523.476 433.094 533.473C424.671 538.315 413.596 540.97 402.366 541.127V583.925C422.331 583.925 442.296 579.551 457.582 570.648C472.868 561.901 480.511 550.342 480.511 538.784V515.042H468.969C465.693 512.074 461.95 509.262 457.582 506.763Z" fill="url(#paint18_radial_139_1201)"/>
<path opacity="0.3" d="M457.582 484.895C427.01 467.245 377.721 467.245 347.149 484.895C316.577 502.546 316.577 531.13 347.149 548.78C377.721 566.431 427.01 566.431 457.582 548.78C487.998 531.13 487.998 502.546 457.582 484.895ZM433.562 535.347C415.936 545.5 387.548 545.5 369.922 535.347C352.296 525.194 352.296 508.794 369.922 498.641C387.548 488.488 415.936 488.488 433.562 498.641C451.031 508.637 451.031 525.194 433.562 535.347Z" fill="#5351AF"/>
<g opacity="0.3">
<path opacity="0.3" d="M457.582 546.437C427.01 564.088 377.721 564.088 347.149 546.437C332.487 538.003 324.844 526.913 324.376 515.666C323.752 527.694 331.395 539.721 347.149 548.78C377.721 566.431 427.01 566.431 457.582 548.78C473.336 539.721 480.979 527.537 480.355 515.666C479.887 526.756 472.244 537.846 457.582 546.437Z" fill="white"/>
<path opacity="0.3" d="M433.562 496.142C415.936 485.989 387.548 485.989 369.922 496.142C360.563 501.452 356.196 508.637 356.82 515.666C357.288 509.418 361.655 503.327 369.922 498.485C387.548 488.332 415.936 488.332 433.562 498.485C441.828 503.327 446.196 509.418 446.664 515.666C447.288 508.637 442.92 501.452 433.562 496.142Z" fill="white"/>
</g>
<path opacity="0.3" d="M453.995 484.895C425.607 468.495 379.593 468.495 351.204 484.895C322.816 501.296 322.816 527.85 351.204 544.407C379.593 560.808 425.607 560.808 453.995 544.407C482.383 528.006 482.383 501.296 453.995 484.895ZM433.25 532.38C416.248 542.22 388.795 542.22 371.794 532.38C354.792 522.539 354.792 506.607 371.794 496.923C388.795 487.082 416.248 487.082 433.25 496.923C450.251 506.763 450.251 522.539 433.25 532.38Z" fill="url(#paint19_linear_139_1201)"/>
</g>
<path opacity="0.4" d="M468.813 493.174C465.693 490.206 461.95 487.394 457.582 484.895C450.719 480.99 442.92 477.866 434.497 475.68C450.563 485.833 450.095 501.609 433.094 511.605C415.468 521.758 387.08 521.758 369.454 511.605C352.92 502.077 351.984 487.082 366.334 476.773C359.471 478.804 352.92 481.615 347.149 484.895C342.782 487.394 339.038 490.206 335.919 493.174H324.376V516.916C324.376 528.475 332.019 540.033 347.305 548.78C377.877 566.431 427.166 566.431 457.738 548.78C473.024 540.033 480.667 528.475 480.667 516.916V493.174H468.813V493.174Z" fill="#42E8E0"/>
<g opacity="0.3">
<path opacity="0.3" d="M371.17 486.77C388.328 476.773 416.404 476.773 433.562 486.77C436.369 488.332 438.709 490.206 440.581 492.08C450.407 482.396 448.068 469.588 433.562 461.309C416.404 451.313 388.328 451.313 371.17 461.309C356.664 469.588 354.48 482.396 364.151 492.08C366.023 490.206 368.362 488.332 371.17 486.77Z" fill="#5351AF"/>
<path opacity="0.3" d="M468.813 479.428C465.693 476.461 461.95 473.649 457.582 471.15C450.719 467.245 442.92 464.121 434.497 461.934C450.563 472.087 450.095 487.863 433.094 497.86C415.468 508.013 387.08 508.013 369.454 497.86C352.92 488.332 351.984 473.337 366.334 463.028C359.471 465.058 352.92 467.87 347.149 471.15C342.782 473.649 339.038 476.461 335.919 479.428H324.376V503.171C324.376 514.729 332.019 526.288 347.305 535.035C377.877 552.685 427.166 552.685 457.738 535.035C473.024 526.288 480.667 514.729 480.667 503.171V479.428H468.813V479.428Z" fill="url(#paint20_linear_139_1201)"/>
<path opacity="0.3" d="M457.582 471.15C450.719 467.245 442.92 464.121 434.497 461.934C450.563 472.087 450.095 487.863 433.094 497.86C424.671 502.702 413.596 505.357 402.366 505.513V548.312C422.331 548.312 442.296 543.938 457.582 535.035C472.868 526.288 480.511 514.729 480.511 503.171V479.428H468.969C465.693 476.461 461.95 473.805 457.582 471.15Z" fill="#0F054C"/>
<path opacity="0.5" d="M457.582 471.15C450.719 467.245 442.92 464.121 434.497 461.934C450.563 472.087 450.095 487.863 433.094 497.86C424.671 502.702 413.596 505.357 402.366 505.513V548.312C422.331 548.312 442.296 543.938 457.582 535.035C472.868 526.288 480.511 514.729 480.511 503.171V479.428H468.969C465.693 476.461 461.95 473.805 457.582 471.15Z" fill="url(#paint21_radial_139_1201)"/>
<path opacity="0.3" d="M457.582 449.438C427.01 431.788 377.721 431.788 347.149 449.438C316.577 467.089 316.577 495.673 347.149 513.323C377.721 530.974 427.01 530.974 457.582 513.323C487.998 495.673 487.998 467.089 457.582 449.438ZM433.562 499.734C415.936 509.887 387.548 509.887 369.922 499.734C352.296 489.581 352.296 473.18 369.922 463.028C387.548 452.875 415.936 452.875 433.562 463.028C451.031 473.18 451.031 489.581 433.562 499.734Z" fill="#5351AF"/>
<g opacity="0.3">
<path opacity="0.3" d="M457.582 510.824C427.01 528.475 377.721 528.475 347.149 510.824C332.487 502.39 324.844 491.299 324.376 480.053C323.752 492.08 331.395 504.108 347.149 513.167C377.721 530.818 427.01 530.818 457.582 513.167C473.336 504.108 480.979 491.924 480.355 480.053C479.887 491.299 472.244 502.39 457.582 510.824Z" fill="white"/>
<path opacity="0.3" d="M433.562 460.528C415.936 450.376 387.548 450.376 369.922 460.528C360.563 465.839 356.196 473.024 356.82 480.053C357.288 473.805 361.655 467.714 369.922 462.871C387.548 452.719 415.936 452.719 433.562 462.871C441.828 467.714 446.196 473.805 446.664 480.053C447.288 473.18 442.92 465.995 433.562 460.528Z" fill="white"/>
</g>
<path opacity="0.3" d="M453.995 449.438C425.607 433.038 379.593 433.038 351.204 449.438C322.816 465.839 322.816 492.393 351.204 508.95C379.593 525.351 425.607 525.351 453.995 508.95C482.383 492.393 482.383 465.839 453.995 449.438ZM433.25 496.923C416.248 506.763 388.795 506.763 371.794 496.923C354.792 487.082 354.792 471.15 371.794 461.466C388.795 451.625 416.248 451.625 433.25 461.466C450.251 471.15 450.251 487.082 433.25 496.923Z" fill="url(#paint22_linear_139_1201)"/>
</g>
<path opacity="0.4" d="M468.813 457.717C465.693 454.749 461.95 451.938 457.582 449.438C450.719 445.533 442.92 442.409 434.497 440.223C450.563 450.376 450.095 466.152 433.094 476.148C415.468 486.301 387.08 486.301 369.454 476.148C352.92 466.62 351.984 451.625 366.334 441.316C359.471 443.347 352.92 446.158 347.149 449.438C342.782 451.938 339.038 454.749 335.919 457.717H324.376V481.459C324.376 493.018 332.019 504.576 347.305 513.323C377.877 530.974 427.166 530.974 457.738 513.323C473.024 504.576 480.667 493.018 480.667 481.459V457.717H468.813V457.717Z" fill="#42E8E0"/>
<g opacity="0.3">
<path opacity="0.3" d="M371.17 451.313C388.328 441.316 416.404 441.316 433.562 451.313C436.369 452.875 438.709 454.749 440.581 456.623C450.407 446.939 448.068 434.131 433.562 425.852C416.404 415.856 388.328 415.856 371.17 425.852C356.664 434.131 354.48 446.939 364.151 456.623C366.023 454.749 368.362 452.875 371.17 451.313Z" fill="#5351AF"/>
<path opacity="0.3" d="M468.813 443.971C465.693 441.004 461.95 438.192 457.582 435.693C450.719 431.788 442.92 428.664 434.497 426.477C450.563 436.63 450.095 452.406 433.094 462.403C415.468 472.556 387.08 472.556 369.454 462.403C352.92 452.875 351.984 437.88 366.334 427.571C359.471 429.601 352.92 432.413 347.149 435.693C342.782 438.192 339.038 441.004 335.919 443.971H324.376V467.714C324.376 479.272 332.019 490.831 347.305 499.578C377.877 517.228 427.166 517.228 457.738 499.578C473.024 490.831 480.667 479.272 480.667 467.714V443.971H468.813V443.971Z" fill="url(#paint23_linear_139_1201)"/>
<path opacity="0.3" d="M457.582 435.693C450.719 431.788 442.92 428.664 434.497 426.477C450.563 436.63 450.095 452.406 433.094 462.403C424.671 467.245 413.596 469.9 402.366 470.057V512.855C422.331 512.855 442.296 508.481 457.582 499.578C472.868 490.831 480.511 479.272 480.511 467.714V443.971H468.969C465.693 441.004 461.95 438.192 457.582 435.693Z" fill="#0F054C"/>
<path opacity="0.5" d="M457.582 435.693C450.719 431.788 442.92 428.664 434.497 426.477C450.563 436.63 450.095 452.406 433.094 462.403C424.671 467.245 413.596 469.9 402.366 470.057V512.855C422.331 512.855 442.296 508.481 457.582 499.578C472.868 490.831 480.511 479.272 480.511 467.714V443.971H468.969C465.693 441.004 461.95 438.192 457.582 435.693Z" fill="url(#paint24_radial_139_1201)"/>
<path opacity="0.3" d="M457.582 413.981C427.01 396.331 377.721 396.331 347.149 413.981C316.577 431.632 316.577 460.216 347.149 477.866C377.721 495.517 427.01 495.517 457.582 477.866C487.998 460.216 487.998 431.632 457.582 413.981ZM433.562 464.277C415.936 474.43 387.548 474.43 369.922 464.277C352.296 454.124 352.296 437.723 369.922 427.571C387.548 417.418 415.936 417.418 433.562 427.571C451.031 437.723 451.031 454.124 433.562 464.277Z" fill="#5351AF"/>
<g opacity="0.3">
<path opacity="0.3" d="M457.582 475.367C427.01 493.018 377.721 493.018 347.149 475.367C332.487 466.933 324.844 455.842 324.376 444.596C323.752 456.623 331.395 468.651 347.149 477.71C377.721 495.361 427.01 495.361 457.582 477.71C473.336 468.651 480.979 456.467 480.355 444.596C479.887 455.842 472.244 466.933 457.582 475.367Z" fill="white"/>
<path opacity="0.3" d="M433.562 425.071C415.936 414.919 387.548 414.919 369.922 425.071C360.563 430.382 356.196 437.567 356.82 444.596C357.288 438.348 361.655 432.257 369.922 427.414C387.548 417.262 415.936 417.262 433.562 427.414C441.828 432.257 446.196 438.348 446.664 444.596C447.288 437.567 442.92 430.382 433.562 425.071Z" fill="white"/>
</g>
<path opacity="0.3" d="M453.995 413.981C425.607 397.581 379.593 397.581 351.204 413.981C322.816 430.382 322.816 456.936 351.204 473.493C379.593 489.894 425.607 489.894 453.995 473.493C482.383 457.092 482.383 430.382 453.995 413.981ZM433.25 461.466C416.248 471.306 388.795 471.306 371.794 461.466C354.792 451.625 354.792 435.693 371.794 426.009C388.795 416.168 416.248 416.168 433.25 426.009C450.251 435.693 450.251 451.625 433.25 461.466Z" fill="url(#paint25_linear_139_1201)"/>
</g>
<path opacity="0.4" d="M468.813 422.26C465.693 419.292 461.95 416.481 457.582 413.981C450.719 410.076 442.92 406.952 434.497 404.766C450.563 414.919 450.095 430.695 433.094 440.691C415.468 450.844 387.08 450.844 369.454 440.691C352.92 431.163 351.984 416.168 366.334 405.859C359.471 407.89 352.92 410.701 347.149 413.981C342.782 416.481 339.038 419.292 335.919 422.26H324.376V446.002C324.376 457.561 332.019 469.119 347.305 477.866C377.877 495.517 427.166 495.517 457.738 477.866C473.024 469.119 480.667 457.561 480.667 446.002V422.26H468.813V422.26Z" fill="#42E8E0"/>
<g opacity="0.3">
<path opacity="0.3" d="M371.17 415.856C388.328 405.859 416.404 405.859 433.562 415.856C436.369 417.418 438.709 419.292 440.581 421.167C450.407 411.482 448.068 398.674 433.562 390.395C416.404 380.399 388.328 380.399 371.17 390.395C356.664 398.674 354.48 411.482 364.151 421.167C366.023 419.136 368.362 417.418 371.17 415.856Z" fill="#5351AF"/>
<path opacity="0.3" d="M468.813 408.358C465.693 405.391 461.95 402.579 457.582 400.08C450.719 396.175 442.92 393.051 434.497 390.864C450.563 401.017 450.095 416.793 433.094 426.79C415.468 436.942 387.08 436.942 369.454 426.79C352.92 417.262 351.984 402.267 366.334 391.957C359.471 393.988 352.92 396.8 347.149 400.08C342.782 402.579 339.038 405.391 335.919 408.358H324.376V432.1C324.376 443.659 332.019 455.218 347.305 463.965C377.877 481.615 427.166 481.615 457.738 463.965C473.024 455.218 480.667 443.659 480.667 432.1V408.358H468.813V408.358Z" fill="url(#paint26_linear_139_1201)"/>
<path opacity="0.3" d="M468.813 408.358C465.693 405.391 461.95 402.579 457.582 400.08C450.719 396.175 442.92 393.051 434.497 390.864C450.563 401.017 450.095 416.793 433.094 426.79C415.468 436.942 387.08 436.942 369.454 426.79C352.92 417.262 351.984 402.267 366.334 391.957C359.471 393.988 352.92 396.8 347.149 400.08C342.782 402.579 339.038 405.391 335.919 408.358H324.376V432.1C324.376 443.659 332.019 455.218 347.305 463.965C377.877 481.615 427.166 481.615 457.738 463.965C473.024 455.218 480.667 443.659 480.667 432.1V408.358H468.813V408.358Z" fill="url(#paint27_linear_139_1201)"/>
<path opacity="0.3" d="M457.582 400.236C450.719 396.331 442.92 393.207 434.497 391.02C450.563 401.173 450.095 416.949 433.094 426.946C424.671 431.788 413.596 434.443 402.366 434.6V477.398C422.331 477.398 442.296 473.024 457.582 464.121C472.868 455.374 480.511 443.815 480.511 432.257V408.514H468.969C465.693 405.547 461.95 402.735 457.582 400.236Z" fill="#0F054C"/>
<path opacity="0.5" d="M457.582 400.236C450.719 396.331 442.92 393.207 434.497 391.02C450.563 401.173 450.095 416.949 433.094 426.946C424.671 431.788 413.596 434.443 402.366 434.6V477.398C422.331 477.398 442.296 473.024 457.582 464.121C472.868 455.374 480.511 443.815 480.511 432.257V408.514H468.969C465.693 405.547 461.95 402.735 457.582 400.236Z" fill="url(#paint28_radial_139_1201)"/>
<path opacity="0.3" d="M457.582 378.524C427.01 360.874 377.721 360.874 347.149 378.524C316.577 396.175 316.577 424.759 347.149 442.409C377.721 460.06 427.01 460.06 457.582 442.409C487.998 424.603 487.998 396.019 457.582 378.524ZM433.562 428.82C415.936 438.973 387.548 438.973 369.922 428.82C352.296 418.667 352.296 402.267 369.922 392.114C387.548 381.961 415.936 381.961 433.562 392.114C451.031 402.11 451.031 418.667 433.562 428.82Z" fill="#5351AF"/>
<g opacity="0.3">
<path opacity="0.3" d="M457.582 439.91C427.01 457.561 377.721 457.561 347.149 439.91C332.487 431.476 324.844 420.386 324.376 409.139C323.752 421.167 331.395 433.194 347.149 442.253C377.721 459.904 427.01 459.904 457.582 442.253C473.336 433.194 480.979 421.01 480.355 409.139C479.887 420.386 472.244 431.319 457.582 439.91Z" fill="white"/>
<path opacity="0.3" d="M433.562 389.615C415.936 379.462 387.548 379.462 369.922 389.615C360.563 394.925 356.196 402.11 356.82 409.139C357.288 402.891 361.655 396.8 369.922 391.957C387.548 381.805 415.936 381.805 433.562 391.957C441.828 396.8 446.196 402.891 446.664 409.139C447.288 402.11 442.92 394.925 433.562 389.615Z" fill="white"/>
</g>
<path opacity="0.3" d="M453.995 378.368C425.607 361.967 379.593 361.967 351.204 378.368C322.816 394.769 322.816 421.323 351.204 437.88C379.593 454.28 425.607 454.28 453.995 437.88C482.383 421.479 482.383 394.925 453.995 378.368ZM433.25 425.852C416.248 435.693 388.795 435.693 371.794 425.852C354.792 416.012 354.792 400.08 371.794 390.395C388.795 380.555 416.248 380.555 433.25 390.395C450.251 400.236 450.251 416.168 433.25 425.852Z" fill="url(#paint29_linear_139_1201)"/>
</g>
</g>
</g>
<path opacity="0.5" d="M475.364 573.616L354.324 503.639C348.865 500.515 349.645 495.048 355.884 491.456L590.633 355.72C596.872 352.127 606.231 351.658 611.69 354.782L732.73 424.759C738.189 427.883 737.409 433.35 731.17 436.943L496.265 572.679C490.182 576.271 480.667 576.74 475.364 573.616Z" fill="url(#paint30_radial_139_1201)"/>
<path opacity="0.8" d="M484.411 576.115C480.979 576.115 477.548 575.334 475.052 573.928L354.012 503.951C351.516 502.546 350.113 500.515 350.113 498.328C350.113 495.673 352.14 493.018 355.416 491.143L590.321 355.407C596.716 351.815 606.231 351.346 611.846 354.47L732.886 424.447C735.381 425.852 736.785 427.883 736.785 430.07C736.785 432.725 734.757 435.381 731.482 437.255L496.577 572.991C493.146 575.022 488.622 576.115 484.411 576.115ZM475.52 573.303C480.823 576.427 490.026 575.959 496.265 572.366L731.014 436.63C734.133 434.756 736.005 432.413 736.005 430.07C736.005 428.195 734.757 426.477 732.574 425.071L611.534 355.095C606.231 351.971 597.028 352.439 590.789 356.032L356.04 491.768C352.92 493.642 351.049 495.985 351.049 498.328C351.049 500.203 352.296 501.921 354.48 503.327L475.52 573.303Z" fill="url(#paint31_linear_139_1201)"/>
<path d="M588.917 497.86C585.173 497.86 581.742 497.079 579.09 495.673L495.329 447.252C492.834 445.69 491.274 443.659 491.274 441.472C491.274 438.817 493.302 436.005 496.889 433.975C503.596 430.07 513.579 429.757 519.35 433.038L603.111 481.459C605.607 483.021 607.166 485.052 607.166 487.238C607.166 489.894 605.139 492.705 601.551 494.736C597.964 496.766 593.284 497.86 588.917 497.86ZM509.523 431.163C505.156 431.163 500.633 432.257 497.045 434.287C493.613 436.162 491.742 438.817 491.742 441.316C491.742 443.347 492.99 445.221 495.485 446.627L579.246 495.048C584.861 498.328 594.688 497.86 601.239 494.111C604.671 492.237 606.542 489.581 606.542 487.082C606.542 485.052 605.295 483.177 602.799 481.771L519.038 433.35C516.542 431.788 513.111 431.163 509.523 431.163Z" fill="#42E8E0"/>
<path opacity="0.4" d="M451.499 238.259C424.515 222.639 380.529 222.639 353.544 238.259C326.56 253.878 326.56 279.339 353.544 294.958C380.529 310.578 424.515 310.578 451.499 294.958C478.64 279.339 478.64 253.878 451.499 238.259Z" fill="#42E8E0"/>
<path opacity="0.4" d="M402.522 291.522C426.47 291.522 445.884 280.333 445.884 266.53C445.884 252.728 426.47 241.539 402.522 241.539C378.573 241.539 359.159 252.728 359.159 266.53C359.159 280.333 378.573 291.522 402.522 291.522Z" fill="#42E8E0"/>
<path d="M374.289 600.638C371.95 600.638 369.61 600.013 367.426 598.764L237.808 523.945C236.092 523.008 235 521.133 235 519.103C235 517.072 236.092 515.198 237.808 514.261L351.204 448.814L351.516 449.282L238.12 514.729C236.56 515.666 235.624 517.228 235.624 519.103C235.624 520.977 236.56 522.539 238.12 523.476L367.582 598.295C371.638 600.638 376.785 600.638 380.841 598.295L415 578.458L415.312 578.927L381.152 598.764C378.969 600.013 376.629 600.638 374.289 600.638Z" fill="#42E8E0"/>
<path opacity="0.4" d="M422.799 252.629C422.799 253.566 422.019 254.347 421.083 254.347C420.147 254.347 419.367 253.566 419.367 252.629C419.367 251.692 420.147 250.911 421.083 250.911C422.019 250.911 422.799 251.692 422.799 252.629Z" fill="#42E8E0"/>
<path opacity="0.4" d="M392.071 171.718C392.071 172.655 391.291 173.436 390.355 173.436C389.419 173.436 388.639 172.655 388.639 171.718C388.639 170.781 389.419 170 390.355 170C391.291 170 392.071 170.781 392.071 171.718Z" fill="#42E8E0"/>
<path opacity="0.4" d="M395.503 232.167C395.503 233.573 394.411 234.822 392.851 234.822C391.447 234.822 390.199 233.729 390.199 232.167C390.199 230.761 391.291 229.511 392.851 229.511C394.255 229.511 395.503 230.761 395.503 232.167Z" fill="#42E8E0"/>
<path opacity="0.8" d="M390.667 276.683C390.667 277.777 389.887 278.558 388.795 278.558C387.704 278.558 386.924 277.777 386.924 276.683C386.924 275.59 387.704 274.809 388.795 274.809C389.887 274.809 390.667 275.746 390.667 276.683Z" fill="#42E8E0"/>
<path opacity="0.8" d="M416.872 202.177C416.872 203.739 415.624 204.988 414.064 204.988C412.504 204.988 411.256 203.739 411.256 202.177C411.256 200.615 412.504 199.365 414.064 199.365C415.624 199.365 416.872 200.615 416.872 202.177Z" fill="#42E8E0"/>
<path opacity="0.8" d="M412.816 213.267C413.85 213.267 414.688 212.428 414.688 211.392C414.688 210.357 413.85 209.518 412.816 209.518C411.782 209.518 410.944 210.357 410.944 211.392C410.944 212.428 411.782 213.267 412.816 213.267Z" fill="#42E8E0"/>
<path opacity="0.5" d="M616.681 351.658L542.747 308.86L642.73 251.223L716.508 293.865L616.681 351.658Z" fill="url(#paint32_radial_139_1201)"/>
<path d="M616.681 344.161C615.121 344.161 613.405 343.692 612.002 342.911L557.409 311.359C556.629 310.891 556.005 309.953 556.005 309.016C556.005 308.079 556.473 307.142 557.409 306.673L638.206 259.97C641.014 258.252 644.601 258.252 647.409 259.97L702.002 291.522C702.782 291.991 703.405 292.928 703.405 293.865C703.405 294.802 702.938 295.739 702.002 296.208L621.204 342.911C619.801 343.692 618.241 344.161 616.681 344.161ZM642.73 259.189C641.17 259.189 639.766 259.501 638.362 260.282L557.565 306.986C556.941 307.298 556.473 308.079 556.473 308.86C556.473 309.641 556.941 310.266 557.565 310.734L612.158 342.286C614.809 343.848 618.241 343.848 620.892 342.286L701.69 295.583C702.314 295.271 702.782 294.49 702.782 293.709C702.782 292.928 702.314 292.303 701.69 291.834L647.097 260.282C645.849 259.658 644.289 259.189 642.73 259.189Z" fill="#42E8E0"/>
<path d="M629.783 291.054L621.204 286.055L623.232 284.806L631.811 289.804L629.783 291.054Z" fill="#42E8E0"/>
<path opacity="0.5" d="M636.958 295.271L632.747 292.772L634.931 291.522L639.142 294.021L636.958 295.271Z" fill="#42E8E0"/>
<path opacity="0.5" d="M624.792 293.865L616.213 289.023L618.241 287.773L626.82 292.772L624.792 293.865Z" fill="#42E8E0"/>
<path opacity="0.5" d="M631.967 298.082L627.756 295.739L629.939 294.49L634.151 296.989L631.967 298.082Z" fill="#42E8E0"/>
<path d="M619.801 296.833L611.222 291.834L613.25 290.585L621.828 295.583L619.801 296.833Z" fill="#42E8E0"/>
<path d="M626.976 301.05L622.764 298.551L624.948 297.301L629.159 299.801L626.976 301.05Z" fill="#42E8E0"/>
<path d="M614.809 299.644L606.23 294.802L608.258 293.553L616.837 298.395L614.809 299.644Z" fill="#42E8E0"/>
<path d="M621.984 303.862L617.773 301.519L619.957 300.269L624.168 302.768L621.984 303.862Z" fill="#42E8E0"/>
<path d="M609.818 302.612L601.239 297.614L603.267 296.364L611.846 301.363L609.818 302.612Z" fill="#42E8E0"/>
<path d="M616.993 306.83L612.782 304.33L614.965 303.081L619.177 305.58L616.993 306.83Z" fill="#42E8E0"/>
<path d="M604.827 305.424L596.248 300.582L598.276 299.332L606.854 304.174L604.827 305.424Z" fill="#42E8E0"/>
<path d="M612.002 309.641L607.79 307.298L609.974 306.049L614.185 308.548L612.002 309.641Z" fill="#42E8E0"/>
<path d="M599.835 308.391L591.256 303.393L593.284 302.144L601.863 307.142L599.835 308.391Z" fill="#42E8E0"/>
<path opacity="0.5" d="M607.01 312.609L602.799 310.11L604.983 308.86L609.194 311.359L607.01 312.609Z" fill="#42E8E0"/>
<path d="M594.844 311.203L586.265 306.361L588.293 305.111L596.872 309.953L594.844 311.203Z" fill="#42E8E0"/>
<path opacity="0.5" d="M602.019 315.42L597.808 312.921L599.991 311.828L604.203 314.171L602.019 315.42Z" fill="#42E8E0"/>
<path d="M648.813 302.144L640.234 297.145L642.262 295.896L650.841 300.894L648.813 302.144Z" fill="#42E8E0"/>
<path d="M655.988 306.361L651.776 303.862L653.96 302.612L658.172 305.111L655.988 306.361Z" fill="#42E8E0"/>
<path d="M643.822 305.111L635.243 300.113L637.27 298.863L645.849 303.862L643.822 305.111Z" fill="#42E8E0"/>
<path d="M650.997 309.329L646.785 306.83L648.969 305.58L653.18 308.079L650.997 309.329Z" fill="#42E8E0"/>
<path d="M638.83 307.923L630.251 302.925L632.279 301.675L640.858 306.673L638.83 307.923Z" fill="#42E8E0"/>
<path d="M646.005 312.14L641.794 309.641L643.978 308.391L648.189 310.891L646.005 312.14Z" fill="#42E8E0"/>
<path d="M644.601 282.463L636.023 277.464L638.206 276.215L646.785 281.213L644.601 282.463Z" fill="#42E8E0"/>
<path d="M651.932 286.68L647.565 284.181L649.749 282.931L654.116 285.43L651.932 286.68Z" fill="#42E8E0"/>
<path d="M639.61 285.274L631.031 280.432L633.215 279.182L641.794 284.025L639.61 285.274Z" fill="#42E8E0"/>
<path d="M646.941 289.492L642.574 286.992L644.757 285.899L649.125 288.242L646.941 289.492Z" fill="#42E8E0"/>
<path d="M634.619 288.242L626.04 283.244L628.224 281.994L636.802 286.992L634.619 288.242Z" fill="#42E8E0"/>
<path d="M641.95 292.459L637.582 289.96L639.766 288.711L644.134 291.21L641.95 292.459Z" fill="#42E8E0"/>
<path d="M663.631 293.553L655.052 288.554L657.236 287.305L665.815 292.303L663.631 293.553Z" fill="#42E8E0"/>
<path d="M670.962 297.77L666.594 295.271L668.778 294.021L673.146 296.52L670.962 297.77Z" fill="#42E8E0"/>
<path opacity="0.5" d="M658.64 296.364L650.061 291.522L652.244 290.273L660.823 295.271L658.64 296.364Z" fill="#42E8E0"/>
<path d="M665.971 300.582L661.603 298.239L663.787 296.989L668.154 299.488L665.971 300.582Z" fill="#42E8E0"/>
<path d="M653.648 299.332L645.069 294.334L647.253 293.084L655.832 298.082L653.648 299.332Z" fill="#42E8E0"/>
<path d="M660.979 303.549L656.612 301.05L658.796 299.801L663.163 302.3L660.979 303.549Z" fill="#42E8E0"/>
<path d="M633.839 310.734L625.26 305.892L627.288 304.643L635.867 309.641L633.839 310.734Z" fill="#42E8E0"/>
<path d="M641.014 315.108L636.802 312.609L638.986 311.359L643.198 313.858L641.014 315.108Z" fill="#42E8E0"/>
<path opacity="0.5" d="M628.848 313.702L620.269 308.704L622.296 307.454L630.875 312.453L628.848 313.702Z" fill="#42E8E0"/>
<path d="M636.023 317.92L631.811 315.42L633.995 314.171L638.206 316.67L636.023 317.92Z" fill="#42E8E0"/>
<path d="M623.856 316.514L615.277 311.672L617.305 310.422L625.884 315.42L623.856 316.514Z" fill="#42E8E0"/>
<path d="M631.031 320.887L626.82 318.388L629.004 317.139L633.215 319.638L631.031 320.887Z" fill="#42E8E0"/>
<path d="M618.865 319.482L610.286 314.483L612.314 313.234L620.893 318.232L618.865 319.482Z" fill="#42E8E0"/>
<path d="M626.04 323.699L621.828 321.2L624.012 319.95L628.224 322.449L626.04 323.699Z" fill="#42E8E0"/>
<path d="M613.874 322.293L605.295 317.295L607.478 316.045L616.057 321.044L613.874 322.293Z" fill="#42E8E0"/>
<path d="M621.205 326.51L616.993 324.011L619.021 322.762L623.388 325.261L621.205 326.51Z" fill="#42E8E0"/>
<path d="M415.936 553.466L409.229 549.561C408.605 549.249 408.137 548.156 408.137 547.375C408.137 546.594 408.605 546.125 409.229 546.594L415.936 550.499C416.56 550.811 417.028 551.904 417.028 552.685C417.028 553.31 416.56 553.779 415.936 553.466Z" fill="#24126A"/>
<path opacity="0.1" d="M675.017 640L601.239 597.358L701.066 539.565L775 582.363L675.017 640Z" fill="#42E8E0"/>
<path opacity="0.5" d="M675.017 623.755L601.239 581.113L701.066 523.32L775 566.118L675.017 623.755Z" fill="url(#paint33_radial_139_1201)"/>
<path d="M675.017 616.258C673.458 616.258 671.742 615.789 670.338 615.008L615.745 583.456C614.965 582.988 614.341 582.051 614.341 581.113C614.341 580.176 614.809 579.239 615.745 578.77L696.542 532.067C699.35 530.349 702.938 530.349 705.745 532.067L760.338 563.619C761.118 564.088 761.742 565.025 761.742 565.962C761.742 566.899 761.274 567.837 760.338 568.305L679.541 615.008C678.137 615.789 676.577 616.258 675.017 616.258ZM701.066 531.442C699.506 531.442 698.102 531.755 696.698 532.536L616.057 579.239C615.433 579.551 614.965 580.332 614.965 581.113C614.965 581.894 615.433 582.519 616.057 582.988L670.65 614.54C673.302 616.102 676.733 616.102 679.385 614.54L760.182 567.836C760.806 567.524 761.274 566.743 761.274 565.962C761.274 565.181 760.806 564.556 760.182 564.088L705.589 532.536C704.185 531.755 702.626 531.442 701.066 531.442Z" fill="#42E8E0"/>
<path d="M651.932 551.904L644.289 547.531C640.234 545.188 637.738 540.97 637.738 536.441V520.821C637.738 516.447 635.399 512.386 631.499 510.199L602.643 493.642L602.955 493.174L631.811 509.731C635.867 512.074 638.206 516.291 638.206 520.821V536.441C638.206 540.814 640.546 544.875 644.445 547.062L652.088 551.436L651.932 551.904Z" fill="#42E8E0"/>
<path d="M560.061 456.78L559.749 456.311L673.614 389.771C674.861 388.99 676.265 388.99 677.513 389.771C678.761 390.552 679.541 391.801 679.541 393.207H679.073C679.073 391.957 678.449 390.864 677.357 390.239C676.265 389.614 675.017 389.614 674.081 390.239L560.061 456.78Z" fill="#42E8E0"/>
<path d="M683.596 396.487L683.284 396.019L730.39 368.059C731.95 367.122 733.042 365.404 732.886 363.529C732.886 361.655 731.95 359.937 730.234 359L660.823 319.638L661.135 319.169L730.546 358.531C732.418 359.624 733.51 361.343 733.51 363.529C733.51 365.56 732.418 367.434 730.702 368.528L683.596 396.487Z" fill="#42E8E0"/>
<path d="M521.378 451.157L519.194 449.907L521.378 448.657L523.562 449.907L521.378 451.157Z" fill="#42E8E0"/>
<path d="M527.305 451.313L525.121 450.063L527.305 448.814L529.489 450.063L527.305 451.313Z" fill="#42E8E0"/>
<path d="M524.341 456.936L522.158 455.686L524.341 454.281L526.681 455.686L524.341 456.936Z" fill="#42E8E0"/>
<path d="M514.827 446.783L512.643 445.533L514.827 444.284L517.01 445.533L514.827 446.783Z" fill="#42E8E0"/>
<path d="M531.984 456.155L529.801 454.749L531.984 453.5L534.324 454.749L531.984 456.155Z" fill="#42E8E0"/>
<path d="M537.132 455.061L534.948 453.656L537.132 452.406L539.315 453.656L537.132 455.061Z" fill="#42E8E0"/>
<path d="M531.984 459.279L529.801 458.029L531.984 456.623L534.168 458.029L531.984 459.279Z" fill="#42E8E0"/>
<path d="M540.719 463.028L538.536 461.778L540.719 460.528L542.903 461.778L540.719 463.028Z" fill="#42E8E0"/>
<path d="M547.582 464.277L545.399 463.028L547.582 461.778L549.766 463.028L547.582 464.277Z" fill="#42E8E0"/>
<path d="M547.582 469.9L545.399 468.651L547.582 467.245L549.766 468.651L547.582 469.9Z" fill="#42E8E0"/>
<path d="M551.482 468.026L549.298 466.776L551.482 465.371L553.666 466.776L551.482 468.026Z" fill="#42E8E0"/>
<path d="M560.217 470.837L558.033 469.588L560.217 468.338L562.4 469.588L560.217 470.837Z" fill="#42E8E0"/>
<path d="M567.86 473.024L565.676 471.775L567.86 470.525L570.043 471.775L567.86 473.024Z" fill="#42E8E0"/>
<path d="M560.685 475.836L558.501 474.586L560.685 473.337L562.868 474.586L560.685 475.836Z" fill="#42E8E0"/>
<path d="M571.447 480.053L569.263 478.804L571.447 477.554L573.631 478.804L571.447 480.053Z" fill="#42E8E0"/>
<path d="M577.998 480.678L575.814 479.428L577.998 478.023L580.182 479.428L577.998 480.678Z" fill="#42E8E0"/>
<path d="M570.823 477.085L568.639 475.836L570.823 474.586L573.007 475.836L570.823 477.085Z" fill="#42E8E0"/>
<path d="M583.614 487.082L581.43 485.833L583.614 484.583L585.797 485.833L583.614 487.082Z" fill="#42E8E0"/>
<defs>
<filter id="filter0_i_139_1201" x="80.019" y="-16.9062" width="714.272" height="815.054" filterUnits="userSpaceOnUse" color-interpolation-filters="sRGB">
<feFlood flood-opacity="0" result="BackgroundImageFix"/>
<feBlend mode="normal" in="SourceGraphic" in2="BackgroundImageFix" result="shape"/>
<feColorMatrix in="SourceAlpha" type="matrix" values="0 0 0 0 0 0 0 0 0 0 0 0 0 0 0 0 0 0 127 0" result="hardAlpha"/>
<feOffset dx="12" dy="2"/>
<feGaussianBlur stdDeviation="9"/>
<feComposite in2="hardAlpha" operator="arithmetic" k2="-1" k3="1"/>
<feColorMatrix type="matrix" values="0 0 0 0 0 0 0 0 0 0 0 0 0 0 0 0 0 0 0.25 0"/>
<feBlend mode="normal" in2="shape" result="effect1_innerShadow_139_1201"/>
</filter>
<filter id="filter1_f_139_1201" x="215" y="104" width="348" height="282" filterUnits="userSpaceOnUse" color-interpolation-filters="sRGB">
<feFlood flood-opacity="0" result="BackgroundImageFix"/>
<feBlend mode="normal" in="SourceGraphic" in2="BackgroundImageFix" result="shape"/>
<feGaussianBlur stdDeviation="17" result="effect1_foregroundBlur_139_1201"/>
</filter>
<linearGradient id="paint0_linear_139_1201" x1="723.712" y1="29.1919" x2="160.092" y2="580.55" gradientUnits="userSpaceOnUse">
<stop stop-color="#444B8C"/>
<stop offset="1" stop-color="#2F356C"/>
</linearGradient>
<radialGradient id="paint1_radial_139_1201" cx="0" cy="0" r="1" gradientUnits="userSpaceOnUse" gradientTransform="translate(389 245) rotate(90) scale(107 140)">
<stop stop-color="#74DEE9"/>
<stop offset="1" stop-color="#74DEE9" stop-opacity="0"/>
</radialGradient>
<linearGradient id="paint2_linear_139_1201" x1="324.217" y1="397.395" x2="480.393" y2="397.395" gradientUnits="userSpaceOnUse">
<stop stop-color="#BCBEFF"/>
<stop offset="0.151" stop-color="#A3A7F5"/>
<stop offset="0.3866" stop-color="#8289E8"/>
<stop offset="0.6124" stop-color="#6A73DF"/>
<stop offset="0.8221" stop-color="#5C66D9"/>
<stop offset="1" stop-color="#5761D7"/>
</linearGradient>
<radialGradient id="paint3_radial_139_1201" cx="0" cy="0" r="1" gradientUnits="userSpaceOnUse" gradientTransform="translate(476.45 421.275) scale(90.7585 90.8859)">
<stop stop-color="#42E8E0"/>
<stop offset="0.0346929" stop-color="#3FDCD8"/>
<stop offset="0.2363" stop-color="#319CAE"/>
<stop offset="0.4286" stop-color="#25668B"/>
<stop offset="0.6062" stop-color="#1B3C70"/>
<stop offset="0.7662" stop-color="#151E5C"/>
<stop offset="0.9028" stop-color="#100C50"/>
<stop offset="1" stop-color="#0F054C"/>
</radialGradient>
<linearGradient id="paint4_linear_139_1201" x1="329.891" y1="371.452" x2="475.274" y2="371.452" gradientUnits="userSpaceOnUse">
<stop stop-color="#C0BFF6"/>
<stop offset="0.2938" stop-color="#C5C4F7"/>
<stop offset="0.6399" stop-color="#D3D2F9"/>
<stop offset="1" stop-color="#E9E9FD"/>
</linearGradient>
<linearGradient id="paint5_linear_139_1201" x1="324.217" y1="361.89" x2="480.393" y2="361.89" gradientUnits="userSpaceOnUse">
<stop stop-color="#BCBEFF"/>
<stop offset="0.151" stop-color="#A3A7F5"/>
<stop offset="0.3866" stop-color="#8289E8"/>
<stop offset="0.6124" stop-color="#6A73DF"/>
<stop offset="0.8221" stop-color="#5C66D9"/>
<stop offset="1" stop-color="#5761D7"/>
</linearGradient>
<radialGradient id="paint6_radial_139_1201" cx="0" cy="0" r="1" gradientUnits="userSpaceOnUse" gradientTransform="translate(476.45 385.769) scale(90.7585 90.8859)">
<stop stop-color="#42E8E0"/>
<stop offset="0.0346929" stop-color="#3FDCD8"/>
<stop offset="0.2363" stop-color="#319CAE"/>
<stop offset="0.4286" stop-color="#25668B"/>
<stop offset="0.6062" stop-color="#1B3C70"/>
<stop offset="0.7662" stop-color="#151E5C"/>
<stop offset="0.9028" stop-color="#100C50"/>
<stop offset="1" stop-color="#0F054C"/>
</radialGradient>
<linearGradient id="paint7_linear_139_1201" x1="329.891" y1="335.946" x2="475.274" y2="335.946" gradientUnits="userSpaceOnUse">
<stop stop-color="#C0BFF6"/>
<stop offset="0.2938" stop-color="#C5C4F7"/>
<stop offset="0.6399" stop-color="#D3D2F9"/>
<stop offset="1" stop-color="#E9E9FD"/>
</linearGradient>
<linearGradient id="paint8_linear_139_1201" x1="324.217" y1="326.384" x2="480.393" y2="326.384" gradientUnits="userSpaceOnUse">
<stop stop-color="#BCBEFF"/>
<stop offset="0.151" stop-color="#A3A7F5"/>
<stop offset="0.3866" stop-color="#8289E8"/>
<stop offset="0.6124" stop-color="#6A73DF"/>
<stop offset="0.8221" stop-color="#5C66D9"/>
<stop offset="1" stop-color="#5761D7"/>
</linearGradient>
<radialGradient id="paint9_radial_139_1201" cx="0" cy="0" r="1" gradientUnits="userSpaceOnUse" gradientTransform="translate(476.45 350.264) scale(90.7583 90.8857)">
<stop stop-color="#42E8E0"/>
<stop offset="0.0346929" stop-color="#3FDCD8"/>
<stop offset="0.2363" stop-color="#319CAE"/>
<stop offset="0.4286" stop-color="#25668B"/>
<stop offset="0.6062" stop-color="#1B3C70"/>
<stop offset="0.7662" stop-color="#151E5C"/>
<stop offset="0.9028" stop-color="#100C50"/>
<stop offset="1" stop-color="#0F054C"/>
</radialGradient>
<linearGradient id="paint10_linear_139_1201" x1="329.891" y1="300.441" x2="475.274" y2="300.441" gradientUnits="userSpaceOnUse">
<stop stop-color="#C0BFF6"/>
<stop offset="0.2938" stop-color="#C5C4F7"/>
<stop offset="0.6399" stop-color="#D3D2F9"/>
<stop offset="1" stop-color="#E9E9FD"/>
</linearGradient>
<linearGradient id="paint11_linear_139_1201" x1="324.217" y1="290.879" x2="480.393" y2="290.879" gradientUnits="userSpaceOnUse">
<stop stop-color="#BCBEFF"/>
<stop offset="0.151" stop-color="#A3A7F5"/>
<stop offset="0.3866" stop-color="#8289E8"/>
<stop offset="0.6124" stop-color="#6A73DF"/>
<stop offset="0.8221" stop-color="#5C66D9"/>
<stop offset="1" stop-color="#5761D7"/>
</linearGradient>
<linearGradient id="paint12_linear_139_1201" x1="324.217" y1="290.879" x2="480.393" y2="290.879" gradientUnits="userSpaceOnUse">
<stop stop-color="#BCBEFF"/>
<stop offset="0.151" stop-color="#A3A7F5"/>
<stop offset="0.3866" stop-color="#8289E8"/>
<stop offset="0.6124" stop-color="#6A73DF"/>
<stop offset="0.8221" stop-color="#5C66D9"/>
<stop offset="1" stop-color="#5761D7"/>
</linearGradient>
<radialGradient id="paint13_radial_139_1201" cx="0" cy="0" r="1" gradientUnits="userSpaceOnUse" gradientTransform="translate(476.45 314.758) scale(90.7583 90.8857)">
<stop stop-color="#42E8E0"/>
<stop offset="0.0346929" stop-color="#3FDCD8"/>
<stop offset="0.2363" stop-color="#319CAE"/>
<stop offset="0.4286" stop-color="#25668B"/>
<stop offset="0.6062" stop-color="#1B3C70"/>
<stop offset="0.7662" stop-color="#151E5C"/>
<stop offset="0.9028" stop-color="#100C50"/>
<stop offset="1" stop-color="#0F054C"/>
</radialGradient>
<linearGradient id="paint14_linear_139_1201" x1="324.217" y1="267.162" x2="480.393" y2="267.162" gradientUnits="userSpaceOnUse">
<stop stop-color="#C0BFF6"/>
<stop offset="0.2938" stop-color="#C5C4F7"/>
<stop offset="0.6399" stop-color="#D3D2F9"/>
<stop offset="1" stop-color="#E9E9FD"/>
</linearGradient>
<linearGradient id="paint15_linear_139_1201" x1="345.815" y1="481.512" x2="741.466" y2="481.512" gradientUnits="userSpaceOnUse">
<stop stop-color="#BCBEFF"/>
<stop offset="0.151" stop-color="#A3A7F5"/>
<stop offset="0.3866" stop-color="#8289E8"/>
<stop offset="0.6124" stop-color="#6A73DF"/>
<stop offset="0.8221" stop-color="#5C66D9"/>
<stop offset="1" stop-color="#5761D7"/>
</linearGradient>
<radialGradient id="paint16_radial_139_1201" cx="0" cy="0" r="1" gradientUnits="userSpaceOnUse" gradientTransform="translate(470.217 403.264) scale(253.967 254.323)">
<stop stop-color="#42E8E0"/>
<stop offset="0.1055" stop-color="#37B6BF"/>
<stop offset="0.2197" stop-color="#2C87A1"/>
<stop offset="0.338" stop-color="#235F87"/>
<stop offset="0.4587" stop-color="#1C3F72"/>
<stop offset="0.5824" stop-color="#162561"/>
<stop offset="0.7105" stop-color="#121355"/>
<stop offset="0.8458" stop-color="#10084E"/>
<stop offset="1" stop-color="#0F054C"/>
</radialGradient>
<linearGradient id="paint17_linear_139_1201" x1="324.217" y1="540.613" x2="480.393" y2="540.613" gradientUnits="userSpaceOnUse">
<stop stop-color="#BCBEFF"/>
<stop offset="0.151" stop-color="#A3A7F5"/>
<stop offset="0.3866" stop-color="#8289E8"/>
<stop offset="0.6124" stop-color="#6A73DF"/>
<stop offset="0.8221" stop-color="#5C66D9"/>
<stop offset="1" stop-color="#5761D7"/>
</linearGradient>
<radialGradient id="paint18_radial_139_1201" cx="0" cy="0" r="1" gradientUnits="userSpaceOnUse" gradientTransform="translate(476.45 564.493) scale(90.7585 90.8859)">
<stop stop-color="#42E8E0"/>
<stop offset="0.0346929" stop-color="#3FDCD8"/>
<stop offset="0.2363" stop-color="#319CAE"/>
<stop offset="0.4286" stop-color="#25668B"/>
<stop offset="0.6062" stop-color="#1B3C70"/>
<stop offset="0.7662" stop-color="#151E5C"/>
<stop offset="0.9028" stop-color="#100C50"/>
<stop offset="1" stop-color="#0F054C"/>
</radialGradient>
<linearGradient id="paint19_linear_139_1201" x1="329.891" y1="514.669" x2="475.274" y2="514.669" gradientUnits="userSpaceOnUse">
<stop stop-color="#C0BFF6"/>
<stop offset="0.2938" stop-color="#C5C4F7"/>
<stop offset="0.6399" stop-color="#D3D2F9"/>
<stop offset="1" stop-color="#E9E9FD"/>
</linearGradient>
<linearGradient id="paint20_linear_139_1201" x1="324.217" y1="505.108" x2="480.393" y2="505.108" gradientUnits="userSpaceOnUse">
<stop stop-color="#BCBEFF"/>
<stop offset="0.151" stop-color="#A3A7F5"/>
<stop offset="0.3866" stop-color="#8289E8"/>
<stop offset="0.6124" stop-color="#6A73DF"/>
<stop offset="0.8221" stop-color="#5C66D9"/>
<stop offset="1" stop-color="#5761D7"/>
</linearGradient>
<radialGradient id="paint21_radial_139_1201" cx="0" cy="0" r="1" gradientUnits="userSpaceOnUse" gradientTransform="translate(476.45 528.987) scale(90.7583 90.8857)">
<stop stop-color="#42E8E0"/>
<stop offset="0.0346929" stop-color="#3FDCD8"/>
<stop offset="0.2363" stop-color="#319CAE"/>
<stop offset="0.4286" stop-color="#25668B"/>
<stop offset="0.6062" stop-color="#1B3C70"/>
<stop offset="0.7662" stop-color="#151E5C"/>
<stop offset="0.9028" stop-color="#100C50"/>
<stop offset="1" stop-color="#0F054C"/>
</radialGradient>
<linearGradient id="paint22_linear_139_1201" x1="329.891" y1="479.164" x2="475.274" y2="479.164" gradientUnits="userSpaceOnUse">
<stop stop-color="#C0BFF6"/>
<stop offset="0.2938" stop-color="#C5C4F7"/>
<stop offset="0.6399" stop-color="#D3D2F9"/>
<stop offset="1" stop-color="#E9E9FD"/>
</linearGradient>
<linearGradient id="paint23_linear_139_1201" x1="324.217" y1="469.602" x2="480.393" y2="469.602" gradientUnits="userSpaceOnUse">
<stop stop-color="#BCBEFF"/>
<stop offset="0.151" stop-color="#A3A7F5"/>
<stop offset="0.3866" stop-color="#8289E8"/>
<stop offset="0.6124" stop-color="#6A73DF"/>
<stop offset="0.8221" stop-color="#5C66D9"/>
<stop offset="1" stop-color="#5761D7"/>
</linearGradient>
<radialGradient id="paint24_radial_139_1201" cx="0" cy="0" r="1" gradientUnits="userSpaceOnUse" gradientTransform="translate(476.45 493.482) scale(90.7583 90.8857)">
<stop stop-color="#42E8E0"/>
<stop offset="0.0346929" stop-color="#3FDCD8"/>
<stop offset="0.2363" stop-color="#319CAE"/>
<stop offset="0.4286" stop-color="#25668B"/>
<stop offset="0.6062" stop-color="#1B3C70"/>
<stop offset="0.7662" stop-color="#151E5C"/>
<stop offset="0.9028" stop-color="#100C50"/>
<stop offset="1" stop-color="#0F054C"/>
</radialGradient>
<linearGradient id="paint25_linear_139_1201" x1="329.891" y1="443.658" x2="475.274" y2="443.658" gradientUnits="userSpaceOnUse">
<stop stop-color="#C0BFF6"/>
<stop offset="0.2938" stop-color="#C5C4F7"/>
<stop offset="0.6399" stop-color="#D3D2F9"/>
<stop offset="1" stop-color="#E9E9FD"/>
</linearGradient>
<linearGradient id="paint26_linear_139_1201" x1="324.217" y1="434.096" x2="480.393" y2="434.096" gradientUnits="userSpaceOnUse">
<stop stop-color="#BCBEFF"/>
<stop offset="0.151" stop-color="#A3A7F5"/>
<stop offset="0.3866" stop-color="#8289E8"/>
<stop offset="0.6124" stop-color="#6A73DF"/>
<stop offset="0.8221" stop-color="#5C66D9"/>
<stop offset="1" stop-color="#5761D7"/>
</linearGradient>
<linearGradient id="paint27_linear_139_1201" x1="324.217" y1="434.096" x2="480.393" y2="434.096" gradientUnits="userSpaceOnUse">
<stop stop-color="#BCBEFF"/>
<stop offset="0.151" stop-color="#A3A7F5"/>
<stop offset="0.3866" stop-color="#8289E8"/>
<stop offset="0.6124" stop-color="#6A73DF"/>
<stop offset="0.8221" stop-color="#5C66D9"/>
<stop offset="1" stop-color="#5761D7"/>
</linearGradient>
<radialGradient id="paint28_radial_139_1201" cx="0" cy="0" r="1" gradientUnits="userSpaceOnUse" gradientTransform="translate(476.45 457.976) scale(90.7585 90.8859)">
<stop stop-color="#42E8E0"/>
<stop offset="0.0346929" stop-color="#3FDCD8"/>
<stop offset="0.2363" stop-color="#319CAE"/>
<stop offset="0.4286" stop-color="#25668B"/>
<stop offset="0.6062" stop-color="#1B3C70"/>
<stop offset="0.7662" stop-color="#151E5C"/>
<stop offset="0.9028" stop-color="#100C50"/>
<stop offset="1" stop-color="#0F054C"/>
</radialGradient>
<linearGradient id="paint29_linear_139_1201" x1="329.891" y1="408.153" x2="475.274" y2="408.153" gradientUnits="userSpaceOnUse">
<stop stop-color="#C0BFF6"/>
<stop offset="0.2938" stop-color="#C5C4F7"/>
<stop offset="0.6399" stop-color="#D3D2F9"/>
<stop offset="1" stop-color="#E9E9FD"/>
</linearGradient>
<radialGradient id="paint30_radial_139_1201" cx="0" cy="0" r="1" gradientUnits="userSpaceOnUse" gradientTransform="translate(470.217 400.14) scale(253.967 254.323)">
<stop stop-color="#42E8E0"/>
<stop offset="0.1055" stop-color="#37B6BF"/>
<stop offset="0.2197" stop-color="#2C87A1"/>
<stop offset="0.338" stop-color="#235F87"/>
<stop offset="0.4587" stop-color="#1C3F72"/>
<stop offset="0.5824" stop-color="#162561"/>
<stop offset="0.7105" stop-color="#121355"/>
<stop offset="0.8458" stop-color="#10084E"/>
<stop offset="1" stop-color="#0F054C"/>
</radialGradient>
<linearGradient id="paint31_linear_139_1201" x1="598.748" y1="537.564" x2="488.108" y2="390.945" gradientUnits="userSpaceOnUse">
<stop stop-color="#42E8E0"/>
<stop offset="0.1055" stop-color="#37B6BF"/>
<stop offset="0.2197" stop-color="#2C87A1"/>
<stop offset="0.338" stop-color="#235F87"/>
<stop offset="0.4587" stop-color="#1C3F72"/>
<stop offset="0.5824" stop-color="#162561"/>
<stop offset="0.7105" stop-color="#121355"/>
<stop offset="0.8458" stop-color="#10084E"/>
<stop offset="1" stop-color="#0F054C"/>
</linearGradient>
<radialGradient id="paint32_radial_139_1201" cx="0" cy="0" r="1" gradientUnits="userSpaceOnUse" gradientTransform="translate(561.324 340.704) scale(306.049 306.479)">
<stop stop-color="#42E8E0"/>
<stop offset="0.1055" stop-color="#37B6BF"/>
<stop offset="0.2197" stop-color="#2C87A1"/>
<stop offset="0.338" stop-color="#235F87"/>
<stop offset="0.4587" stop-color="#1C3F72"/>
<stop offset="0.5824" stop-color="#162561"/>
<stop offset="0.7105" stop-color="#121355"/>
<stop offset="0.8458" stop-color="#10084E"/>
<stop offset="1" stop-color="#0F054C"/>
</radialGradient>
<radialGradient id="paint33_radial_139_1201" cx="0" cy="0" r="1" gradientUnits="userSpaceOnUse" gradientTransform="translate(619.673 612.868) scale(306.049 306.479)">
<stop stop-color="#42E8E0"/>
<stop offset="0.1055" stop-color="#37B6BF"/>
<stop offset="0.2197" stop-color="#2C87A1"/>
<stop offset="0.338" stop-color="#235F87"/>
<stop offset="0.4587" stop-color="#1C3F72"/>
<stop offset="0.5824" stop-color="#162561"/>
<stop offset="0.7105" stop-color="#121355"/>
<stop offset="0.8458" stop-color="#10084E"/>
<stop offset="1" stop-color="#0F054C"/>
</radialGradient>
</defs>
</svg>
