<svg width="612" height="1105" viewBox="0 0 612 1105" fill="none" xmlns="http://www.w3.org/2000/svg">
<path d="M37.8701 198.754L120.062 37.2048C126.934 23.6968 141.505 16.643 157.184 19.2345L546.703 83.6164C568.094 87.1521 584.894 107.304 584.582 129.053L571.329 1052.29C570.95 1078.68 546.029 1094.47 521.041 1084.16L171.895 940.024C157.204 933.959 146.236 920.115 143.728 904.472L34.4165 222.534C33.0693 214.13 34.2764 205.818 37.8701 198.754Z" fill="#DD7432"/>
<g filter="url(#filter0_i_294_495)">
<path d="M77.497 240.952L90.4276 116.743C92.4598 97.222 108.354 82.0593 127.948 80.9484L481.463 60.9063C503.758 59.6423 522.77 76.8771 523.693 99.1884L561.246 1006.76C562.487 1036.75 531.477 1057.37 504.299 1044.63L193.024 898.672C180.909 892.992 172.437 881.629 170.449 868.397L77.7257 251.035C77.2244 247.697 77.1476 244.309 77.497 240.952Z" fill="url(#paint0_linear_294_495)"/>
</g>
<g filter="url(#filter1_f_294_495)">
<ellipse cx="311.809" cy="702.755" rx="94.3985" ry="72.1474" fill="url(#paint1_radial_294_495)" fill-opacity="0.4"/>
</g>
<g clip-path="url(#clip0_294_495)">
<path d="M526.224 904.111L520.545 900.846L521.807 900.108L527.486 903.373L526.224 904.111Z" fill="#42E8E0"/>
<path d="M531.062 906.954L528.222 905.269L529.484 904.532L532.324 906.217L531.062 906.954Z" fill="#42E8E0"/>
<path d="M524.962 906.744L522.543 905.374L523.805 904.637L526.224 906.112L524.962 906.744Z" fill="#42E8E0"/>
<path d="M529.064 909.166L526.224 907.481L527.486 906.744L530.326 908.429L529.064 909.166Z" fill="#42E8E0"/>
<path d="M530.852 913.589L519.598 907.06L520.86 906.322L532.114 912.852L530.852 913.589Z" fill="#42E8E0"/>
<path d="M498.774 926.439L487.626 919.909L488.888 919.171L500.036 925.701L498.774 926.439Z" fill="#42E8E0"/>
<path d="M503.191 928.861L500.246 927.281L501.508 926.544L504.348 928.229L503.191 928.861Z" fill="#42E8E0"/>
<path d="M519.177 910.219L516.758 908.745L517.915 908.007L520.439 909.482L519.177 910.219Z" fill="#42E8E0"/>
<path d="M523.279 912.536L520.334 910.851L521.596 910.114L524.436 911.799L523.279 912.536Z" fill="#42E8E0"/>
<path d="M519.914 914.011L513.814 910.43L515.076 909.693L521.176 913.274L519.914 914.011Z" fill="#42E8E0"/>
<path d="M524.121 916.433L521.281 914.748L522.438 914.011L525.383 915.696L524.121 916.433Z" fill="#42E8E0"/>
<path d="M528.222 918.855L525.383 917.17L526.645 916.433L529.484 918.118L528.222 918.855Z" fill="#42E8E0"/>
<path d="M534.953 922.647L529.589 919.593L530.746 918.855L536.215 921.91L534.953 922.647Z" fill="#42E8E0"/>
<path d="M525.908 924.227L522.964 922.542L524.226 921.805L527.065 923.49L525.908 924.227Z" fill="#42E8E0"/>
<path d="M532.534 928.018L527.171 924.964L528.433 924.227L533.796 927.386L532.534 928.018Z" fill="#42E8E0"/>
<path d="M510.764 915.485L507.924 913.8L509.186 913.063L512.026 914.748L510.764 915.485Z" fill="#42E8E0"/>
<path d="M514.97 917.908L512.131 916.222L513.393 915.485L516.233 917.17L514.97 917.908Z" fill="#42E8E0"/>
<path d="M521.701 921.805L516.233 918.645L517.495 917.908L522.858 921.067L521.701 921.805Z" fill="#42E8E0"/>
<path d="M532.85 924.859L530.01 923.174L531.272 922.436L534.112 924.122L532.85 924.859Z" fill="#42E8E0"/>
<path d="M536.952 927.281L534.112 925.596L535.374 924.859L538.214 926.544L536.952 927.281Z" fill="#42E8E0"/>
<path d="M507.608 931.494L504.769 929.809L506.031 929.072L508.87 930.757L507.608 931.494Z" fill="#42E8E0"/>
<path d="M514.339 935.391L508.87 932.231L510.132 931.494L515.602 934.654L514.339 935.391Z" fill="#42E8E0"/>
<path d="M504.979 918.855L502.139 917.17L503.401 916.433L506.241 918.118L504.979 918.855Z" fill="#42E8E0"/>
<path d="M511.71 922.752L506.241 919.593L507.503 918.855L512.867 922.015L511.71 922.752Z" fill="#42E8E0"/>
<path d="M508.345 935.285L505.505 933.6L506.662 932.863L509.607 934.548L508.345 935.285Z" fill="#42E8E0"/>
<path d="M515.076 939.182L509.607 936.023L510.869 935.285L516.233 938.445L515.076 939.182Z" fill="#42E8E0"/>
<path d="M539.371 918.54L536.531 916.854L537.793 916.117L540.633 917.802L539.371 918.54Z" fill="#42E8E0"/>
<path d="M535.058 916.012L532.219 914.327L533.481 913.589L536.321 915.275L535.058 916.012Z" fill="#42E8E0"/>
<path d="M546.102 922.331L540.738 919.277L541.895 918.539L547.364 921.699L546.102 922.331Z" fill="#42E8E0"/>
<path d="M513.498 913.589L510.869 912.115L512.131 911.378L514.655 912.958L513.498 913.589Z" fill="#42E8E0"/>
<path d="M521.07 918.013L514.865 914.432L516.022 913.695L522.333 917.276L521.07 918.013Z" fill="#42E8E0"/>
<path d="M528.748 922.436L522.438 918.855L523.7 918.118L530.01 921.699L528.748 922.436Z" fill="#42E8E0"/>
<path d="M511.395 919.171L505.084 915.591L506.346 914.853L512.551 918.434L511.395 919.171Z" fill="#42E8E0"/>
<path d="M514.655 921.067L512.762 920.014L514.024 919.277L515.917 920.33L514.655 921.067Z" fill="#42E8E0"/>
<path d="M517.915 922.963L516.022 921.91L517.284 921.173L519.177 922.226L517.915 922.963Z" fill="#42E8E0"/>
<path d="M524.121 926.544L519.388 923.806L520.545 923.068L525.277 925.807L524.121 926.544Z" fill="#42E8E0"/>
<path d="M525.383 927.281L520.65 924.543L521.912 923.806L526.645 926.544L525.383 927.281Z" fill="#42E8E0"/>
<path d="M538.108 924.543L536.215 923.384L537.477 922.647L539.371 923.806L538.108 924.543Z" fill="#42E8E0"/>
<path d="M492.884 929.703L486.679 926.123L487.941 925.491L494.146 928.966L492.884 929.703Z" fill="#42E8E0"/>
<path d="M496.986 932.126L494.146 930.441L495.408 929.703L498.248 931.389L496.986 932.126Z" fill="#42E8E0"/>
<path d="M501.193 934.548L498.353 932.863L499.615 932.126L502.455 933.811L501.193 934.548Z" fill="#42E8E0"/>
<path d="M507.924 938.445L502.455 935.285L503.717 934.548L509.081 937.708L507.924 938.445Z" fill="#42E8E0"/>
<path d="M498.669 939.814L495.829 938.129L497.091 937.497L499.931 939.077L498.669 939.814Z" fill="#42E8E0"/>
<path d="M505.4 943.711L499.931 940.551L501.193 939.814L506.557 942.974L505.4 943.711Z" fill="#42E8E0"/>
<path d="M483.734 931.178L480.894 929.493L482.157 928.861L484.996 930.441L483.734 931.178Z" fill="#42E8E0"/>
<path d="M487.941 933.6L484.996 931.915L486.258 931.178L489.098 932.863L487.941 933.6Z" fill="#42E8E0"/>
<path d="M494.567 937.497L489.203 934.338L490.465 933.6L495.829 936.76L494.567 937.497Z" fill="#42E8E0"/>
<path d="M486.363 929.388L483.839 927.808L484.996 927.176L487.626 928.65L486.363 929.388Z" fill="#42E8E0"/>
<path d="M494.041 933.811L487.731 930.125L488.993 929.388L495.303 933.074L494.041 933.811Z" fill="#42E8E0"/>
<path d="M501.614 938.129L495.408 934.548L496.67 933.811L502.876 937.497L501.614 938.129Z" fill="#42E8E0"/>
<path d="M479.212 931.915L473.006 928.334L474.163 927.597L480.474 931.283L479.212 931.915Z" fill="#42E8E0"/>
<path d="M482.577 933.916L480.579 932.758L481.841 932.021L483.734 933.179L482.577 933.916Z" fill="#42E8E0"/>
<path d="M485.838 935.812L483.944 934.654L485.207 933.916L487.1 935.075L485.838 935.812Z" fill="#42E8E0"/>
<path d="M491.938 939.288L487.205 936.549L488.467 935.917L493.2 938.656L491.938 939.288Z" fill="#42E8E0"/>
<path d="M493.2 940.025L488.467 937.287L489.729 936.655L494.462 939.393L493.2 940.025Z" fill="#42E8E0"/>
<path d="M491.622 925.596L489.729 924.543L490.991 923.806L492.884 924.964L491.622 925.596Z" fill="#42E8E0"/>
<path d="M497.722 929.177L492.989 926.439L494.251 925.701L498.984 928.44L497.722 929.177Z" fill="#42E8E0"/>
<path d="M504.032 932.758L499.3 930.019L500.562 929.282L505.295 932.021L504.032 932.758Z" fill="#42E8E0"/>
<path d="M496.25 917.17L494.251 916.012L495.513 915.38L497.407 916.433L496.25 917.17Z" fill="#42E8E0"/>
<path d="M502.35 920.751L497.617 918.013L498.879 917.276L503.612 920.014L502.35 920.751Z" fill="#42E8E0"/>
<path d="M508.555 924.332L503.822 921.594L505.084 920.857L509.817 923.595L508.555 924.332Z" fill="#42E8E0"/>
<path opacity="0.1" d="M465.329 785.625L415.477 756.767L482.893 717.904L532.64 746.657L465.329 785.625Z" fill="#42E8E0"/>
<path d="M320.821 847.764C307.254 847.764 293.582 844.815 283.275 838.812C273.178 833.019 267.604 825.226 267.604 817.011C267.604 808.796 273.178 801.002 283.275 795.209C303.994 783.203 337.754 783.203 358.473 795.209C368.57 801.002 374.144 808.796 374.144 817.011C374.144 825.226 368.57 833.019 358.578 838.812C347.956 844.815 334.389 847.764 320.821 847.764ZM320.821 786.468C307.254 786.468 293.687 789.417 283.38 795.42C273.388 801.213 267.919 808.796 267.919 816.905C267.919 825.015 273.388 832.703 283.38 838.391C303.994 850.292 337.544 850.292 358.158 838.391L358.263 838.601L358.158 838.391C368.149 832.598 373.618 825.015 373.618 816.905C373.618 808.796 368.149 801.107 358.158 795.42C347.851 789.522 334.283 786.468 320.821 786.468Z" fill="#42E8E0"/>
<path d="M442.915 757.35L353.234 805.37L353.383 805.648L443.064 757.628L442.915 757.35Z" fill="#42E8E0"/>
<path d="M299.787 793.208C311.356 786.468 330.287 786.468 341.856 793.208C343.749 794.261 345.327 795.525 346.589 796.789C353.215 790.259 351.637 781.623 341.856 776.041C330.287 769.3 311.356 769.3 299.787 776.041C290.006 781.623 288.533 790.259 295.054 796.789C296.316 795.42 297.894 794.261 299.787 793.208Z" fill="#5351AF"/>
<path d="M365.625 788.258C363.521 786.257 360.997 784.361 358.053 782.676C353.425 780.043 348.166 777.937 342.487 776.462C353.32 783.308 353.004 793.945 341.54 800.686C329.656 807.532 310.514 807.532 298.63 800.686C287.481 794.261 286.85 784.151 296.526 777.199C291.899 778.569 287.482 780.464 283.59 782.676C280.645 784.361 278.121 786.257 276.018 788.258H268.235V804.267C268.235 812.06 273.388 819.854 283.695 825.752C304.309 837.653 337.544 837.653 358.158 825.752C368.465 819.854 373.618 812.06 373.618 804.267V788.258H365.625V788.258Z" fill="url(#paint2_linear_294_495)"/>
<path opacity="0.3" d="M358.053 782.676C353.425 780.043 348.166 777.937 342.487 776.462C353.32 783.308 353.004 793.945 341.54 800.686C335.861 803.951 328.394 805.741 320.821 805.847V834.704C334.283 834.704 347.746 831.755 358.053 825.752C368.359 819.854 373.513 812.061 373.513 804.267V788.258H365.73C363.522 786.257 360.997 784.361 358.053 782.676Z" fill="#0F054C"/>
<path opacity="0.5" d="M358.053 782.676C353.425 780.043 348.166 777.937 342.487 776.462C353.32 783.308 353.004 793.945 341.54 800.686C335.861 803.951 328.394 805.741 320.821 805.847V834.704C334.283 834.704 347.746 831.755 358.053 825.752C368.359 819.854 373.513 812.061 373.513 804.267V788.258H365.73C363.522 786.257 360.997 784.361 358.053 782.676Z" fill="url(#paint3_radial_294_495)"/>
<path d="M358.052 768.037C337.439 756.135 304.204 756.135 283.59 768.037C262.976 779.938 262.976 799.211 283.59 811.113C304.204 823.014 337.439 823.014 358.052 811.113C378.561 799.106 378.561 779.832 358.052 768.037ZM341.856 801.95C329.971 808.796 310.83 808.796 298.945 801.95C287.061 795.104 287.061 784.045 298.945 777.199C310.83 770.354 329.971 770.354 341.856 777.199C353.635 783.94 353.635 795.104 341.856 801.95Z" fill="#5351AF"/>
<path d="M358.053 809.428C337.439 821.329 304.204 821.329 283.59 809.428C273.704 803.74 268.55 796.262 268.235 788.679C267.814 796.789 272.968 804.899 283.59 811.007C304.204 822.909 337.439 822.909 358.053 811.007C368.675 804.899 373.828 796.684 373.408 788.679C373.092 796.262 367.939 803.635 358.053 809.428Z" fill="white"/>
<path d="M341.856 775.514C329.971 768.668 310.83 768.668 298.945 775.514C292.635 779.095 289.69 783.94 290.111 788.679C290.426 784.467 293.371 780.359 298.945 777.094C310.83 770.248 329.971 770.248 341.856 777.094C347.43 780.359 350.375 784.467 350.69 788.679C351.111 783.94 348.166 779.095 341.856 775.514Z" fill="white"/>
<path d="M355.634 767.931C336.492 756.873 305.466 756.873 286.325 767.931C267.183 778.99 267.183 796.894 286.325 808.058C305.466 819.117 336.492 819.117 355.634 808.058C374.775 797 374.775 779.095 355.634 767.931ZM341.646 799.949C330.182 806.584 311.671 806.584 300.207 799.949C288.744 793.313 288.744 782.571 300.207 776.041C311.671 769.406 330.182 769.406 341.646 776.041C353.109 782.676 353.109 793.419 341.646 799.949Z" fill="url(#paint4_linear_294_495)"/>
<path opacity="0.4" d="M365.625 773.513C363.521 771.512 360.997 769.616 358.053 767.931C353.425 765.298 348.166 763.192 342.487 761.717C353.32 768.563 353.004 779.201 341.54 785.941C329.656 792.787 310.514 792.787 298.63 785.941C287.481 779.517 286.85 769.406 296.526 762.455C291.899 763.824 287.482 765.72 283.59 767.931C280.645 769.616 278.121 771.512 276.018 773.513H268.235V789.522C268.235 797.316 273.388 805.109 283.695 811.007C304.309 822.909 337.544 822.909 358.158 811.007C368.465 805.109 373.618 797.316 373.618 789.522V773.513H365.625Z" fill="#42E8E0"/>
<path d="M299.787 769.195C311.356 762.455 330.287 762.455 341.856 769.195C343.749 770.248 345.327 771.512 346.589 772.776C353.215 766.246 351.637 757.61 341.856 752.028C330.287 745.287 311.356 745.287 299.787 752.028C290.006 757.61 288.533 766.246 295.054 772.776C296.316 771.512 297.894 770.354 299.787 769.195Z" fill="#5351AF"/>
<path d="M365.625 764.245C363.521 762.244 360.997 760.348 358.053 758.663C353.425 756.03 348.166 753.924 342.487 752.449C353.32 759.295 353.004 769.932 341.54 776.673C329.656 783.519 310.514 783.519 298.63 776.673C287.481 770.248 286.85 760.138 296.526 753.186C291.899 754.556 287.482 756.451 283.59 758.663C280.645 760.348 278.121 762.244 276.018 764.245H268.235V780.254C268.235 788.048 273.388 795.841 283.695 801.739C304.309 813.64 337.544 813.64 358.158 801.739C368.465 795.841 373.618 788.048 373.618 780.254V764.245H365.625V764.245Z" fill="url(#paint5_linear_294_495)"/>
<path opacity="0.3" d="M358.053 758.663C353.425 756.03 348.166 753.924 342.487 752.449C353.32 759.295 353.004 769.932 341.54 776.673C335.861 779.938 328.394 781.728 320.821 781.834V810.691C334.283 810.691 347.746 807.742 358.053 801.739C368.359 795.841 373.513 788.047 373.513 780.254V764.245H365.73C363.522 762.244 360.997 760.454 358.053 758.663Z" fill="#0F054C"/>
<path opacity="0.5" d="M358.053 758.663C353.425 756.03 348.166 753.924 342.487 752.449C353.32 759.295 353.004 769.932 341.54 776.673C335.861 779.938 328.394 781.728 320.821 781.834V810.691C334.283 810.691 347.746 807.742 358.053 801.739C368.359 795.841 373.513 788.047 373.513 780.254V764.245H365.73C363.522 762.244 360.997 760.454 358.053 758.663Z" fill="url(#paint6_radial_294_495)"/>
<path d="M358.052 744.024C337.439 732.122 304.204 732.122 283.59 744.024C262.976 755.925 262.976 775.198 283.59 787.1C304.204 799.001 337.439 799.001 358.052 787.1C378.561 775.198 378.561 755.925 358.052 744.024ZM341.856 777.937C329.971 784.783 310.83 784.783 298.945 777.937C287.061 771.091 287.061 760.032 298.945 753.186C310.83 746.341 329.971 746.341 341.856 753.186C353.635 760.032 353.635 771.091 341.856 777.937Z" fill="#5351AF"/>
<path d="M358.053 785.414C337.439 797.316 304.204 797.316 283.59 785.414C273.704 779.727 268.55 772.249 268.235 764.666C267.814 772.776 272.968 780.886 283.59 786.994C304.204 798.895 337.439 798.895 358.053 786.994C368.675 780.886 373.828 772.671 373.408 764.666C373.092 772.249 367.939 779.727 358.053 785.414Z" fill="white"/>
<path d="M341.856 751.501C329.971 744.655 310.83 744.655 298.945 751.501C292.635 755.082 289.69 759.927 290.111 764.666C290.426 760.453 293.371 756.346 298.945 753.081C310.83 746.235 329.971 746.235 341.856 753.081C347.43 756.346 350.375 760.453 350.69 764.666C351.111 760.032 348.166 755.187 341.856 751.501Z" fill="white"/>
<path d="M355.634 744.024C336.492 732.965 305.466 732.965 286.325 744.024C267.183 755.082 267.183 772.987 286.325 784.151C305.466 795.209 336.492 795.209 355.634 784.151C374.775 773.092 374.775 755.082 355.634 744.024ZM341.646 776.041C330.182 782.676 311.671 782.676 300.207 776.041C288.744 769.406 288.744 758.663 300.207 752.133C311.671 745.498 330.182 745.498 341.646 752.133C353.109 758.768 353.109 769.406 341.646 776.041Z" fill="url(#paint7_linear_294_495)"/>
<path opacity="0.4" d="M365.625 749.605C363.521 747.604 360.997 745.709 358.053 744.024C353.425 741.39 348.166 739.284 342.487 737.81C353.32 744.655 353.004 755.293 341.54 762.033C329.656 768.879 310.514 768.879 298.63 762.033C287.481 755.609 286.85 745.393 296.526 738.547C291.899 739.916 287.482 741.812 283.59 744.024C280.645 745.709 278.121 747.604 276.018 749.605H268.235V765.614C268.235 773.408 273.388 781.202 283.695 787.1C304.309 799.001 337.544 799.001 358.158 787.1C368.465 781.202 373.618 773.408 373.618 765.614V749.605H365.625Z" fill="#42E8E0"/>
<path d="M299.787 745.287C311.356 738.547 330.287 738.547 341.856 745.287C343.749 746.341 345.327 747.604 346.589 748.868C353.215 742.338 351.637 733.702 341.856 728.12C330.287 721.38 311.356 721.38 299.787 728.12C290.006 733.702 288.533 742.338 295.054 748.868C296.316 747.604 297.894 746.341 299.787 745.287Z" fill="#5351AF"/>
<path d="M365.625 740.337C363.521 738.336 360.997 736.44 358.053 734.755C353.425 732.122 348.166 730.016 342.487 728.541C353.32 735.387 353.004 746.025 341.54 752.765C329.656 759.611 310.514 759.611 298.63 752.765C287.481 746.341 286.85 736.23 296.526 729.279C291.899 730.648 287.482 732.544 283.59 734.755C280.645 736.44 278.121 738.336 276.018 740.337H268.235V756.346C268.235 764.14 273.388 771.933 283.695 777.831C304.309 789.733 337.544 789.733 358.158 777.831C368.465 771.933 373.618 764.14 373.618 756.346V740.337H365.625Z" fill="url(#paint8_linear_294_495)"/>
<path opacity="0.3" d="M358.053 734.755C353.425 732.122 348.166 730.016 342.487 728.541C353.32 735.387 353.004 746.025 341.54 752.765C335.861 756.03 328.394 757.82 320.821 757.926V786.784C334.283 786.784 347.746 783.835 358.053 777.831C368.359 771.933 373.513 764.14 373.513 756.346V740.337H365.73C363.522 738.336 360.997 736.44 358.053 734.755Z" fill="#0F054C"/>
<path opacity="0.5" d="M358.053 734.755C353.425 732.122 348.166 730.016 342.487 728.541C353.32 735.387 353.004 746.025 341.54 752.765C335.861 756.03 328.394 757.82 320.821 757.926V786.784C334.283 786.784 347.746 783.835 358.053 777.831C368.359 771.933 373.513 764.14 373.513 756.346V740.337H365.73C363.522 738.336 360.997 736.44 358.053 734.755Z" fill="url(#paint9_radial_294_495)"/>
<path d="M358.052 720.116C337.439 708.215 304.204 708.215 283.59 720.116C262.976 732.017 262.976 751.291 283.59 763.192C304.204 775.093 337.439 775.093 358.052 763.192C378.561 751.291 378.561 732.017 358.052 720.116ZM341.856 754.029C329.971 760.875 310.83 760.875 298.945 754.029C287.061 747.183 287.061 736.124 298.945 729.279C310.83 722.433 329.971 722.433 341.856 729.279C353.635 736.124 353.635 747.183 341.856 754.029Z" fill="#5351AF"/>
<path d="M358.053 761.507C337.439 773.408 304.204 773.408 283.59 761.507C273.704 755.819 268.55 748.342 268.235 740.759C267.814 748.868 272.968 756.978 283.59 763.087C304.204 774.988 337.439 774.988 358.053 763.087C368.675 756.978 373.828 748.763 373.408 740.759C373.092 748.342 367.939 755.819 358.053 761.507Z" fill="white"/>
<path d="M341.856 727.594C329.971 720.748 310.83 720.748 298.945 727.594C292.635 731.174 289.69 736.019 290.111 740.759C290.426 736.546 293.371 732.438 298.945 729.173C310.83 722.327 329.971 722.327 341.856 729.173C347.43 732.438 350.375 736.546 350.69 740.759C351.111 736.019 348.166 731.28 341.856 727.594Z" fill="white"/>
<path d="M355.634 720.116C336.492 709.057 305.466 709.057 286.325 720.116C267.183 731.174 267.183 749.079 286.325 760.243C305.466 771.301 336.492 771.301 355.634 760.243C374.775 749.079 374.775 731.174 355.634 720.116ZM341.646 752.133C330.182 758.768 311.671 758.768 300.207 752.133C288.744 745.498 288.744 734.755 300.207 728.225C311.671 721.59 330.182 721.59 341.646 728.225C353.109 734.755 353.109 745.498 341.646 752.133Z" fill="url(#paint10_linear_294_495)"/>
<path opacity="0.4" d="M365.625 725.698C363.521 723.697 360.997 721.801 358.053 720.116C353.425 717.483 348.166 715.376 342.487 713.902C353.32 720.748 353.004 731.385 341.54 738.126C329.656 744.971 310.514 744.971 298.63 738.126C287.481 731.701 286.85 721.59 296.526 714.639C291.899 716.008 287.482 717.904 283.59 720.116C280.645 721.801 278.121 723.697 276.018 725.698H268.235V741.706C268.235 749.5 273.388 757.294 283.695 763.192C304.309 775.093 337.544 775.093 358.158 763.192C368.465 757.294 373.618 749.5 373.618 741.706V725.698H365.625Z" fill="#42E8E0"/>
<path d="M299.787 721.38C311.356 714.639 330.287 714.639 341.856 721.38C343.749 722.433 345.327 723.697 346.589 724.96C353.215 718.431 351.637 709.794 341.856 704.212C330.287 697.472 311.356 697.472 299.787 704.212C290.006 709.794 288.428 718.325 295.054 724.855C296.316 723.591 297.894 722.433 299.787 721.38Z" fill="#5351AF"/>
<path d="M365.625 716.43C363.521 714.428 360.997 712.533 358.053 710.848C353.425 708.215 348.166 706.108 342.487 704.634C353.32 711.479 353.004 722.117 341.54 728.857C329.656 735.703 310.514 735.703 298.63 728.857C287.481 722.327 286.85 712.217 296.526 705.266C291.899 706.635 287.482 708.53 283.59 710.742C280.645 712.427 278.121 714.323 276.018 716.324H268.235V732.333C268.235 740.127 273.388 747.92 283.695 753.818C304.309 765.72 337.544 765.72 358.158 753.818C368.465 747.92 373.618 740.127 373.618 732.333V716.43H365.625Z" fill="url(#paint11_linear_294_495)"/>
<path d="M365.625 716.43C363.521 714.428 360.997 712.533 358.053 710.848C353.425 708.215 348.166 706.108 342.487 704.634C353.32 711.479 353.004 722.117 341.54 728.857C329.656 735.703 310.514 735.703 298.63 728.857C287.481 722.327 286.85 712.217 296.526 705.266C291.899 706.635 287.482 708.53 283.59 710.742C280.645 712.427 278.121 714.323 276.018 716.324H268.235V732.333C268.235 740.127 273.388 747.92 283.695 753.818C304.309 765.72 337.544 765.72 358.158 753.818C368.465 747.92 373.618 740.127 373.618 732.333V716.43H365.625Z" fill="url(#paint12_linear_294_495)"/>
<path opacity="0.3" d="M358.053 710.848C353.425 708.215 348.166 706.108 342.487 704.634C353.32 711.479 353.004 722.117 341.54 728.857C335.861 732.122 328.394 733.913 320.821 734.018V762.771C334.283 762.771 347.746 759.822 358.053 753.818C368.359 747.92 373.513 740.127 373.513 732.333V716.43H365.73C363.522 714.428 360.997 712.533 358.053 710.848Z" fill="#0F054C"/>
<path opacity="0.5" d="M358.053 710.848C353.425 708.215 348.166 706.108 342.487 704.634C353.32 711.479 353.004 722.117 341.54 728.857C335.861 732.122 328.394 733.913 320.821 734.018V762.771C334.283 762.771 347.746 759.822 358.053 753.818C368.359 747.92 373.513 740.127 373.513 732.333V716.43H365.73C363.522 714.428 360.997 712.533 358.053 710.848Z" fill="url(#paint13_radial_294_495)"/>
<path d="M358.052 696.208C337.439 684.307 304.204 684.307 283.59 696.208C262.976 708.109 262.976 727.383 283.59 739.284C304.204 751.185 337.439 751.185 358.052 739.284C378.561 727.383 378.561 708.109 358.052 696.208ZM341.856 730.121C329.971 736.967 310.83 736.967 298.945 730.121C287.061 723.275 287.061 712.217 298.945 705.371C310.83 698.525 329.971 698.525 341.856 705.371C353.635 712.111 353.635 723.275 341.856 730.121Z" fill="url(#paint14_linear_294_495)"/>
<path d="M358.053 737.599C337.439 749.5 304.204 749.5 283.59 737.599C273.704 731.912 268.55 724.434 268.235 716.851C267.814 724.961 272.968 733.07 283.59 739.179C304.204 751.08 337.439 751.08 358.053 739.179C368.675 733.07 373.828 724.855 373.408 716.851C373.092 724.434 367.939 731.806 358.053 737.599Z" fill="white"/>
<path d="M355.634 697.261C336.492 686.203 305.466 686.203 286.325 697.261C267.183 708.32 267.183 726.224 286.325 737.388C305.466 748.447 336.492 748.447 355.634 737.388C374.775 726.33 374.775 708.32 355.634 697.261ZM341.646 729.279C330.182 735.914 311.671 735.914 300.207 729.279C288.744 722.643 288.744 711.901 300.207 705.371C311.671 698.736 330.182 698.736 341.646 705.371C353.109 712.006 353.109 722.643 341.646 729.279Z" fill="#24126A"/>
<path d="M376.247 952.663C373.828 952.663 371.515 952.137 369.832 951.189L285.273 902.32C283.59 901.372 282.644 900.003 282.644 898.423C282.644 896.633 284.011 894.842 286.325 893.473L447.66 800.159C452.077 797.632 458.703 797.316 462.489 799.527L547.048 848.396C548.731 849.344 549.678 850.713 549.678 852.293C549.678 854.083 548.31 855.874 545.996 857.243L384.661 950.557C382.242 951.926 379.087 952.663 376.247 952.663ZM455.968 798.474C453.129 798.474 450.079 799.211 447.765 800.581L286.325 893.789C284.116 895.053 282.854 896.738 282.854 898.423C282.854 899.792 283.695 901.056 285.273 901.899L369.832 950.768C373.513 952.874 380.034 952.663 384.346 950.136L545.681 856.822C547.89 855.558 549.152 853.873 549.152 852.188C549.152 850.818 548.31 849.555 546.733 848.712L462.174 799.843C460.596 798.895 458.282 798.474 455.968 798.474Z" fill="#42E8E0"/>
<path d="M549.467 829.754L537.267 831.861L462.279 788.469C458.493 786.257 451.972 786.573 447.555 789.101L304.204 871.988L282.644 875.779V883.362C282.644 884.732 283.485 886.101 285.168 887.049L369.727 935.917C373.513 938.129 380.034 937.813 384.451 935.285L545.786 841.972C548.1 840.602 549.362 838.917 549.362 837.232V829.754H549.467Z" fill="url(#paint15_linear_294_495)"/>
<path d="M369.832 928.334L285.273 879.466C281.487 877.254 282.013 873.462 286.325 870.935L447.66 777.621C451.972 775.093 458.598 774.882 462.384 776.989L546.943 825.857C550.729 828.069 550.203 831.861 545.891 834.388L384.556 927.702C380.139 930.23 373.618 930.441 369.832 928.334Z" fill="#24126A"/>
<path d="M545.891 834.388L384.556 927.702C380.244 930.23 373.618 930.441 369.832 928.334L285.273 879.466C283.8 878.623 282.959 877.465 282.749 876.201C282.538 877.78 283.38 879.255 285.273 880.413L369.832 929.282C373.618 931.494 380.139 931.178 384.556 928.65L545.891 835.442C548.521 833.967 549.678 831.966 549.467 830.176C549.152 831.65 547.995 833.125 545.891 834.388Z" fill="white"/>
<path opacity="0.51" d="M370.042 926.439L288.428 879.255C284.747 877.149 285.273 873.462 289.48 871.04L447.765 779.517C451.972 777.094 458.282 776.778 461.963 778.885L543.578 826.068C547.259 828.175 546.733 831.861 542.526 834.283L384.135 925.807C380.034 928.229 373.618 928.545 370.042 926.439Z" fill="#453C9E"/>
<g opacity="0.3">
<path opacity="0.5" d="M370.042 926.439L288.428 879.255C284.747 877.149 285.273 873.462 289.48 871.04L447.765 779.517C451.972 777.094 458.282 776.778 461.963 778.885L543.578 826.068C547.259 828.175 546.733 831.861 542.526 834.283L384.135 925.807C380.034 928.229 373.618 928.545 370.042 926.439Z" fill="url(#paint16_radial_294_495)"/>
<g opacity="0.3">
<g opacity="0.3">
<path opacity="0.3" d="M299.787 889.682C311.356 882.941 330.287 882.941 341.856 889.682C343.749 890.735 345.327 891.999 346.589 893.263C353.215 886.733 351.637 878.096 341.856 872.514C330.287 865.774 311.356 865.774 299.787 872.514C290.006 878.096 288.533 886.733 295.054 893.263C296.316 891.999 297.894 890.84 299.787 889.682Z" fill="#5351AF"/>
<path opacity="0.3" d="M365.625 884.732C363.521 882.731 360.997 880.835 358.053 879.15C353.425 876.517 348.166 874.41 342.487 872.936C353.32 879.782 353.004 890.419 341.54 897.159C329.656 904.005 310.514 904.005 298.63 897.159C287.481 890.735 286.85 880.624 296.526 873.673C291.899 875.042 287.482 876.938 283.59 879.15C280.645 880.835 278.121 882.731 276.018 884.732H268.235V900.74C268.235 908.534 273.388 916.328 283.695 922.226C304.309 934.127 337.544 934.127 358.158 922.226C368.465 916.328 373.618 908.534 373.618 900.74V884.732H365.625V884.732Z" fill="url(#paint17_linear_294_495)"/>
<path opacity="0.3" d="M358.053 879.255C353.425 876.622 348.166 874.516 342.487 873.041C353.32 879.887 353.004 890.524 341.54 897.265C335.861 900.53 328.394 902.32 320.821 902.426V931.283C334.283 931.283 347.746 928.334 358.053 922.331C368.359 916.433 373.513 908.639 373.513 900.846V884.837H365.73C363.522 882.836 360.997 880.94 358.053 879.255Z" fill="#0F054C"/>
<path opacity="0.5" d="M358.053 879.255C353.425 876.622 348.166 874.516 342.487 873.041C353.32 879.887 353.004 890.524 341.54 897.265C335.861 900.53 328.394 902.32 320.821 902.426V931.283C334.283 931.283 347.746 928.334 358.053 922.331C368.359 916.433 373.513 908.639 373.513 900.846V884.837H365.73C363.522 882.836 360.997 880.94 358.053 879.255Z" fill="url(#paint18_radial_294_495)"/>
<path opacity="0.3" d="M358.052 864.51C337.439 852.609 304.204 852.609 283.59 864.51C262.976 876.411 262.976 895.685 283.59 907.586C304.204 919.487 337.439 919.487 358.052 907.586C378.561 895.685 378.561 876.411 358.052 864.51ZM341.856 898.529C329.971 905.374 310.83 905.374 298.945 898.529C287.061 891.683 287.061 880.624 298.945 873.778C310.83 866.932 329.971 866.932 341.856 873.778C353.635 880.519 353.635 891.683 341.856 898.529Z" fill="#5351AF"/>
<g opacity="0.3">
<path opacity="0.3" d="M358.053 906.006C337.439 917.908 304.204 917.908 283.59 906.006C273.704 900.319 268.55 892.841 268.235 885.258C267.814 893.368 272.968 901.478 283.59 907.586C304.204 919.487 337.439 919.487 358.053 907.586C368.675 901.478 373.828 893.263 373.408 885.258C373.092 892.736 367.939 900.214 358.053 906.006Z" fill="white"/>
<path opacity="0.3" d="M341.856 872.093C329.971 865.247 310.83 865.247 298.945 872.093C292.635 875.674 289.69 880.519 290.111 885.258C290.426 881.045 293.371 876.938 298.945 873.673C310.83 866.827 329.971 866.827 341.856 873.673C347.43 876.938 350.375 881.045 350.69 885.258C351.111 880.519 348.166 875.674 341.856 872.093Z" fill="white"/>
</g>
<path opacity="0.3" d="M355.634 864.51C336.492 853.451 305.466 853.451 286.325 864.51C267.183 875.569 267.183 893.473 286.325 904.637C305.466 915.696 336.492 915.696 355.634 904.637C374.775 893.579 374.775 875.569 355.634 864.51ZM341.646 896.528C330.182 903.163 311.671 903.163 300.207 896.528C288.744 889.892 288.744 879.15 300.207 872.62C311.671 865.985 330.182 865.985 341.646 872.62C353.109 879.255 353.109 889.892 341.646 896.528Z" fill="url(#paint19_linear_294_495)"/>
</g>
<path opacity="0.4" d="M365.625 870.092C363.521 868.091 360.997 866.195 358.053 864.51C353.425 861.877 348.166 859.771 342.487 858.296C353.32 865.142 353.004 875.779 341.54 882.52C329.656 889.366 310.514 889.366 298.63 882.52C287.481 876.095 286.85 865.985 296.526 859.033C291.899 860.403 287.482 862.298 283.59 864.51C280.645 866.195 278.121 868.091 276.018 870.092H268.235V886.101C268.235 893.895 273.388 901.688 283.695 907.586C304.309 919.487 337.544 919.487 358.158 907.586C368.465 901.688 373.618 893.895 373.618 886.101V870.092H365.625V870.092Z" fill="#42E8E0"/>
<g opacity="0.3">
<path opacity="0.3" d="M299.787 865.774C311.356 859.033 330.287 859.033 341.856 865.774C343.749 866.827 345.327 868.091 346.589 869.355C353.215 862.825 351.637 854.189 341.856 848.607C330.287 841.866 311.356 841.866 299.787 848.607C290.006 854.189 288.533 862.825 295.054 869.355C296.316 868.091 297.894 866.827 299.787 865.774Z" fill="#5351AF"/>
<path opacity="0.3" d="M365.625 860.824C363.521 858.823 360.997 856.927 358.053 855.242C353.425 852.609 348.166 850.503 342.487 849.028C353.32 855.874 353.004 866.511 341.54 873.252C329.656 880.098 310.514 880.098 298.63 873.252C287.481 866.827 286.85 856.716 296.526 849.765C291.899 851.134 287.482 853.03 283.59 855.242C280.645 856.927 278.121 858.823 276.018 860.824H268.235V876.833C268.235 884.626 273.388 892.42 283.695 898.318C304.309 910.219 337.544 910.219 358.158 898.318C368.465 892.42 373.618 884.626 373.618 876.833V860.824H365.625V860.824Z" fill="url(#paint20_linear_294_495)"/>
<path opacity="0.3" d="M358.053 855.242C353.425 852.609 348.166 850.503 342.487 849.028C353.32 855.874 353.004 866.511 341.54 873.252C335.861 876.517 328.394 878.307 320.821 878.412V907.27C334.283 907.27 347.746 904.321 358.053 898.318C368.359 892.42 373.513 884.626 373.513 876.833V860.824H365.73C363.522 858.823 360.997 857.032 358.053 855.242Z" fill="#0F054C"/>
<path opacity="0.5" d="M358.053 855.242C353.425 852.609 348.166 850.503 342.487 849.028C353.32 855.874 353.004 866.511 341.54 873.252C335.861 876.517 328.394 878.307 320.821 878.412V907.27C334.283 907.27 347.746 904.321 358.053 898.318C368.359 892.42 373.513 884.626 373.513 876.833V860.824H365.73C363.522 858.823 360.997 857.032 358.053 855.242Z" fill="url(#paint21_radial_294_495)"/>
<path opacity="0.3" d="M358.052 840.602C337.439 828.701 304.204 828.701 283.59 840.602C262.976 852.504 262.976 871.777 283.59 883.678C304.204 895.58 337.439 895.58 358.052 883.678C378.561 871.777 378.561 852.504 358.052 840.602ZM341.856 874.516C329.971 881.361 310.83 881.361 298.945 874.516C287.061 867.67 287.061 856.611 298.945 849.765C310.83 842.919 329.971 842.919 341.856 849.765C353.635 856.611 353.635 867.67 341.856 874.516Z" fill="#5351AF"/>
<g opacity="0.3">
<path opacity="0.3" d="M358.053 881.993C337.439 893.895 304.204 893.895 283.59 881.993C273.704 876.306 268.55 868.828 268.235 861.245C267.814 869.355 272.968 877.465 283.59 883.573C304.204 895.474 337.439 895.474 358.053 883.573C368.675 877.465 373.828 869.25 373.408 861.245C373.092 868.828 367.939 876.306 358.053 881.993Z" fill="white"/>
<path opacity="0.3" d="M341.856 848.08C329.971 841.234 310.83 841.234 298.945 848.08C292.635 851.661 289.69 856.506 290.111 861.245C290.426 857.032 293.371 852.925 298.945 849.66C310.83 842.814 329.971 842.814 341.856 849.66C347.43 852.925 350.375 857.032 350.69 861.245C351.111 856.611 348.166 851.766 341.856 848.08Z" fill="white"/>
</g>
<path opacity="0.3" d="M355.634 840.602C336.492 829.544 305.466 829.544 286.325 840.602C267.183 851.661 267.183 869.566 286.325 880.729C305.466 891.788 336.492 891.788 355.634 880.729C374.775 869.566 374.775 851.661 355.634 840.602ZM341.646 872.62C330.182 879.255 311.671 879.255 300.207 872.62C288.744 865.985 288.744 855.242 300.207 848.712C311.671 842.077 330.182 842.077 341.646 848.712C353.109 855.242 353.109 865.985 341.646 872.62Z" fill="url(#paint22_linear_294_495)"/>
</g>
<path opacity="0.4" d="M365.625 846.184C363.521 844.183 360.997 842.288 358.053 840.602C353.425 837.969 348.166 835.863 342.487 834.388C353.32 841.234 353.004 851.872 341.54 858.612C329.656 865.458 310.514 865.458 298.63 858.612C287.481 852.188 286.85 842.077 296.526 835.126C291.899 836.495 287.482 838.391 283.59 840.602C280.645 842.288 278.121 844.183 276.018 846.184H268.235V862.193C268.235 869.987 273.388 877.781 283.695 883.678C304.309 895.58 337.544 895.58 358.158 883.678C368.465 877.781 373.618 869.987 373.618 862.193V846.184H365.625V846.184Z" fill="#42E8E0"/>
<g opacity="0.3">
<path opacity="0.3" d="M299.787 841.866C311.356 835.126 330.287 835.126 341.856 841.866C343.749 842.919 345.327 844.183 346.589 845.447C353.215 838.917 351.637 830.281 341.856 824.699C330.287 817.958 311.356 817.958 299.787 824.699C290.006 830.281 288.533 838.917 295.054 845.447C296.316 844.183 297.894 842.919 299.787 841.866Z" fill="#5351AF"/>
<path opacity="0.3" d="M365.625 836.916C363.521 834.915 360.997 833.019 358.053 831.334C353.425 828.701 348.166 826.595 342.487 825.12C353.32 831.966 353.004 842.603 341.54 849.344C329.656 856.19 310.514 856.19 298.63 849.344C287.481 842.919 286.85 832.809 296.526 825.858C291.899 827.227 287.482 829.122 283.59 831.334C280.645 833.019 278.121 834.915 276.018 836.916H268.235V852.925C268.235 860.719 273.388 868.512 283.695 874.41C304.309 886.311 337.544 886.311 358.158 874.41C368.465 868.512 373.618 860.719 373.618 852.925V836.916H365.625V836.916Z" fill="url(#paint23_linear_294_495)"/>
<path opacity="0.3" d="M358.053 831.334C353.425 828.701 348.166 826.595 342.487 825.12C353.32 831.966 353.004 842.603 341.54 849.344C335.861 852.609 328.394 854.399 320.821 854.505V883.363C334.283 883.363 347.746 880.414 358.053 874.41C368.359 868.512 373.513 860.719 373.513 852.925V836.916H365.73C363.522 834.915 360.997 833.019 358.053 831.334Z" fill="#0F054C"/>
<path opacity="0.5" d="M358.053 831.334C353.425 828.701 348.166 826.595 342.487 825.12C353.32 831.966 353.004 842.603 341.54 849.344C335.861 852.609 328.394 854.399 320.821 854.505V883.363C334.283 883.363 347.746 880.414 358.053 874.41C368.359 868.512 373.513 860.719 373.513 852.925V836.916H365.73C363.522 834.915 360.997 833.019 358.053 831.334Z" fill="url(#paint24_radial_294_495)"/>
<path opacity="0.3" d="M358.052 816.695C337.439 804.793 304.204 804.793 283.59 816.695C262.976 828.596 262.976 847.869 283.59 859.771C304.204 871.672 337.439 871.672 358.052 859.771C378.561 847.869 378.561 828.596 358.052 816.695ZM341.856 850.608C329.971 857.454 310.83 857.454 298.945 850.608C287.061 843.762 287.061 832.703 298.945 825.857C310.83 819.012 329.971 819.012 341.856 825.857C353.635 832.703 353.635 843.762 341.856 850.608Z" fill="#5351AF"/>
<g opacity="0.3">
<path opacity="0.3" d="M358.053 858.086C337.439 869.987 304.204 869.987 283.59 858.086C273.704 852.398 268.55 844.921 268.235 837.337C267.814 845.447 272.968 853.557 283.59 859.665C304.204 871.567 337.439 871.567 358.053 859.665C368.675 853.557 373.828 845.342 373.408 837.337C373.092 844.921 367.939 852.398 358.053 858.086Z" fill="white"/>
<path opacity="0.3" d="M341.856 824.172C329.971 817.327 310.83 817.327 298.945 824.172C292.635 827.753 289.69 832.598 290.111 837.337C290.426 833.125 293.371 829.017 298.945 825.752C310.83 818.906 329.971 818.906 341.856 825.752C347.43 829.017 350.375 833.125 350.69 837.337C351.111 832.598 348.166 827.753 341.856 824.172Z" fill="white"/>
</g>
<path opacity="0.3" d="M355.634 816.695C336.492 805.636 305.466 805.636 286.325 816.695C267.183 827.753 267.183 845.658 286.325 856.822C305.466 867.88 336.492 867.88 355.634 856.822C374.775 845.763 374.775 827.753 355.634 816.695ZM341.646 848.712C330.182 855.347 311.671 855.347 300.207 848.712C288.744 842.077 288.744 831.334 300.207 824.804C311.671 818.169 330.182 818.169 341.646 824.804C353.109 831.334 353.109 842.077 341.646 848.712Z" fill="url(#paint25_linear_294_495)"/>
</g>
<path opacity="0.4" d="M365.625 822.277C363.521 820.276 360.997 818.38 358.053 816.695C353.425 814.062 348.166 811.955 342.487 810.481C353.32 817.327 353.004 827.964 341.54 834.704C329.656 841.55 310.514 841.55 298.63 834.704C287.481 828.28 286.85 818.169 296.526 811.218C291.899 812.587 287.482 814.483 283.59 816.695C280.645 818.38 278.121 820.276 276.018 822.277H268.235V838.285C268.235 846.079 273.388 853.873 283.695 859.771C304.309 871.672 337.544 871.672 358.158 859.771C368.465 853.873 373.618 846.079 373.618 838.285V822.277H365.625V822.277Z" fill="#42E8E0"/>
<g opacity="0.3">
<path opacity="0.3" d="M299.787 817.958C311.356 811.218 330.287 811.218 341.856 817.958C343.749 819.012 345.327 820.276 346.589 821.539C353.215 815.01 351.637 806.373 341.856 800.791C330.287 794.051 311.356 794.051 299.787 800.791C290.006 806.373 288.533 815.01 295.054 821.539C296.316 820.17 297.894 819.012 299.787 817.958Z" fill="#5351AF"/>
<path opacity="0.3" d="M365.625 812.903C363.521 810.902 360.997 809.006 358.053 807.321C353.425 804.688 348.166 802.582 342.487 801.107C353.32 807.953 353.004 818.59 341.54 825.331C329.656 832.177 310.514 832.177 298.63 825.331C287.481 818.906 286.85 808.796 296.526 801.844C291.899 803.214 287.482 805.109 283.59 807.321C280.645 809.006 278.121 810.902 276.018 812.903H268.235V828.912C268.235 836.706 273.388 844.499 283.695 850.397C304.309 862.298 337.544 862.298 358.158 850.397C368.465 844.499 373.618 836.706 373.618 828.912V812.903H365.625V812.903Z" fill="url(#paint26_linear_294_495)"/>
<path opacity="0.3" d="M365.625 812.903C363.521 810.902 360.997 809.006 358.053 807.321C353.425 804.688 348.166 802.582 342.487 801.107C353.32 807.953 353.004 818.59 341.54 825.331C329.656 832.177 310.514 832.177 298.63 825.331C287.481 818.906 286.85 808.796 296.526 801.844C291.899 803.214 287.482 805.109 283.59 807.321C280.645 809.006 278.121 810.902 276.018 812.903H268.235V828.912C268.235 836.706 273.388 844.499 283.695 850.397C304.309 862.298 337.544 862.298 358.158 850.397C368.465 844.499 373.618 836.706 373.618 828.912V812.903H365.625V812.903Z" fill="url(#paint27_linear_294_495)"/>
<path opacity="0.3" d="M358.053 807.426C353.425 804.793 348.166 802.687 342.487 801.213C353.32 808.058 353.004 818.696 341.54 825.436C335.861 828.701 328.394 830.492 320.821 830.597V859.455C334.283 859.455 347.746 856.506 358.053 850.503C368.359 844.605 373.513 836.811 373.513 829.017V813.008H365.73C363.522 811.007 360.997 809.112 358.053 807.426Z" fill="#0F054C"/>
<path opacity="0.5" d="M358.053 807.426C353.425 804.793 348.166 802.687 342.487 801.213C353.32 808.058 353.004 818.696 341.54 825.436C335.861 828.701 328.394 830.492 320.821 830.597V859.455C334.283 859.455 347.746 856.506 358.053 850.503C368.359 844.605 373.513 836.811 373.513 829.017V813.008H365.73C363.522 811.007 360.997 809.112 358.053 807.426Z" fill="url(#paint28_radial_294_495)"/>
<path opacity="0.3" d="M358.052 792.787C337.439 780.886 304.204 780.886 283.59 792.787C262.976 804.688 262.976 823.962 283.59 835.863C304.204 847.764 337.439 847.764 358.052 835.863C378.561 823.856 378.561 804.583 358.052 792.787ZM341.856 826.7C329.971 833.546 310.83 833.546 298.945 826.7C287.061 819.854 287.061 808.796 298.945 801.95C310.83 795.104 329.971 795.104 341.856 801.95C353.635 808.69 353.635 819.854 341.856 826.7Z" fill="#5351AF"/>
<g opacity="0.3">
<path opacity="0.3" d="M358.053 834.178C337.439 846.079 304.204 846.079 283.59 834.178C273.704 828.491 268.55 821.013 268.235 813.43C267.814 821.539 272.968 829.649 283.59 835.758C304.204 847.659 337.439 847.659 358.053 835.758C368.675 829.649 373.828 821.434 373.408 813.43C373.092 821.013 367.939 828.385 358.053 834.178Z" fill="white"/>
<path opacity="0.3" d="M341.856 800.265C329.971 793.419 310.83 793.419 298.945 800.265C292.635 803.846 289.69 808.69 290.111 813.43C290.426 809.217 293.371 805.109 298.945 801.844C310.83 794.999 329.971 794.999 341.856 801.844C347.43 805.109 350.375 809.217 350.69 813.43C351.111 808.69 348.166 803.846 341.856 800.265Z" fill="white"/>
</g>
<path opacity="0.3" d="M355.634 792.682C336.492 781.623 305.466 781.623 286.325 792.682C267.183 803.74 267.183 821.645 286.325 832.809C305.466 843.867 336.492 843.867 355.634 832.809C374.775 821.75 374.775 803.846 355.634 792.682ZM341.646 824.699C330.182 831.334 311.671 831.334 300.207 824.699C288.744 818.064 288.744 807.321 300.207 800.791C311.671 794.156 330.182 794.156 341.646 800.791C353.109 807.426 353.109 818.169 341.646 824.699Z" fill="url(#paint29_linear_294_495)"/>
</g>
</g>
</g>
<path opacity="0.5" d="M370.042 924.332L288.428 877.149C284.747 875.042 285.273 871.356 289.48 868.934L447.765 777.41C451.972 774.988 458.282 774.672 461.963 776.778L543.578 823.962C547.259 826.068 546.733 829.754 542.526 832.177L384.135 923.7C380.034 926.123 373.618 926.439 370.042 924.332Z" fill="url(#paint30_radial_294_495)"/>
<path opacity="0.8" d="M376.142 926.017C373.828 926.017 371.515 925.491 369.832 924.543L288.218 877.359C286.535 876.411 285.588 875.042 285.588 873.568C285.588 871.777 286.956 869.987 289.164 868.723L447.555 777.199C451.867 774.777 458.282 774.461 462.068 776.568L543.683 823.751C545.365 824.699 546.312 826.068 546.312 827.543C546.312 829.333 544.945 831.124 542.736 832.387L384.346 923.911C382.032 925.28 378.982 926.017 376.142 926.017ZM370.147 924.122C373.723 926.228 379.928 925.912 384.135 923.49L542.421 831.966C544.524 830.702 545.786 829.122 545.786 827.543C545.786 826.279 544.945 825.12 543.472 824.172L461.858 776.989C458.282 774.882 452.077 775.198 447.87 777.621L289.585 869.144C287.482 870.408 286.219 871.988 286.219 873.568C286.219 874.832 287.061 875.99 288.533 876.938L370.147 924.122Z" fill="url(#paint31_linear_294_495)"/>
<path d="M446.608 873.252C444.084 873.252 441.77 872.725 439.982 871.777L383.504 839.128C381.822 838.075 380.77 836.706 380.77 835.231C380.77 833.441 382.137 831.545 384.556 830.176C389.079 827.543 395.81 827.332 399.701 829.544L456.179 862.193C457.862 863.246 458.913 864.615 458.913 866.09C458.913 867.88 457.546 869.776 455.127 871.145C452.708 872.514 449.553 873.252 446.608 873.252ZM393.075 828.28C390.13 828.28 387.08 829.017 384.661 830.386C382.347 831.65 381.085 833.441 381.085 835.126C381.085 836.495 381.927 837.759 383.61 838.707L440.087 871.356C443.874 873.568 450.5 873.252 454.917 870.724C457.231 869.46 458.493 867.67 458.493 865.985C458.493 864.615 457.651 863.352 455.969 862.404L399.491 829.754C397.808 828.701 395.494 828.28 393.075 828.28Z" fill="#42E8E0"/>
<path opacity="0.4" d="M353.951 698.209C335.756 687.677 306.097 687.677 287.902 698.209C269.707 708.741 269.707 725.908 287.902 736.44C306.097 746.972 335.756 746.972 353.951 736.44C372.251 725.908 372.251 708.741 353.951 698.209Z" fill="#42E8E0"/>
<path opacity="0.4" d="M320.927 734.123C337.074 734.123 350.165 726.579 350.165 717.272C350.165 707.965 337.074 700.421 320.927 700.421C304.779 700.421 291.688 707.965 291.688 717.272C291.688 726.579 304.779 734.123 320.927 734.123Z" fill="#42E8E0"/>
<path d="M301.89 942.553C300.313 942.553 298.735 942.131 297.263 941.289L209.864 890.84C208.707 890.208 207.971 888.944 207.971 887.575C207.971 886.206 208.707 884.942 209.864 884.31L286.325 840.181L286.535 840.497L210.074 884.626C209.023 885.258 208.392 886.311 208.392 887.575C208.392 888.839 209.023 889.892 210.074 890.524L297.368 940.973C300.102 942.553 303.573 942.553 306.307 940.973L329.34 927.597L329.551 927.913L306.518 941.289C305.045 942.131 303.468 942.553 301.89 942.553Z" fill="#42E8E0"/>
<path opacity="0.4" d="M334.599 707.899C334.599 708.531 334.073 709.057 333.442 709.057C332.811 709.057 332.285 708.531 332.285 707.899C332.285 707.267 332.811 706.74 333.442 706.74C334.073 706.74 334.599 707.267 334.599 707.899Z" fill="#42E8E0"/>
<path opacity="0.4" d="M313.88 653.343C313.88 653.974 313.354 654.501 312.723 654.501C312.092 654.501 311.566 653.974 311.566 653.343C311.566 652.711 312.092 652.184 312.723 652.184C313.354 652.184 313.88 652.711 313.88 653.343Z" fill="#42E8E0"/>
<path opacity="0.4" d="M316.194 694.102C316.194 695.049 315.457 695.892 314.406 695.892C313.459 695.892 312.618 695.155 312.618 694.102C312.618 693.154 313.354 692.311 314.406 692.311C315.352 692.311 316.194 693.154 316.194 694.102Z" fill="#42E8E0"/>
<path opacity="0.8" d="M312.933 724.118C312.933 724.855 312.407 725.382 311.671 725.382C310.935 725.382 310.409 724.855 310.409 724.118C310.409 723.381 310.935 722.854 311.671 722.854C312.407 722.854 312.933 723.486 312.933 724.118Z" fill="#42E8E0"/>
<path opacity="0.8" d="M330.602 673.88C330.602 674.933 329.761 675.776 328.709 675.776C327.658 675.776 326.816 674.933 326.816 673.88C326.816 672.827 327.658 671.984 328.709 671.984C329.761 671.984 330.602 672.827 330.602 673.88Z" fill="#42E8E0"/>
<path opacity="0.8" d="M327.868 681.358C328.565 681.358 329.13 680.792 329.13 680.094C329.13 679.396 328.565 678.83 327.868 678.83C327.171 678.83 326.606 679.396 326.606 680.094C326.606 680.792 327.171 681.358 327.868 681.358Z" fill="#42E8E0"/>
<path opacity="0.5" d="M465.329 774.672L415.477 745.814L482.893 706.951L532.64 735.703L465.329 774.672Z" fill="url(#paint32_radial_294_495)"/>
<path d="M465.329 769.616C464.277 769.616 463.12 769.3 462.174 768.774L425.363 747.499C424.837 747.183 424.417 746.551 424.417 745.919C424.417 745.287 424.732 744.655 425.363 744.339L479.843 712.849C481.736 711.69 484.155 711.69 486.048 712.849L522.858 734.123C523.384 734.439 523.805 735.071 523.805 735.703C523.805 736.335 523.489 736.967 522.858 737.283L468.379 768.774C467.432 769.3 466.381 769.616 465.329 769.616ZM482.893 712.322C481.841 712.322 480.894 712.533 479.948 713.059L425.468 744.55C425.048 744.761 424.732 745.287 424.732 745.814C424.732 746.341 425.048 746.762 425.468 747.078L462.279 768.353C464.067 769.406 466.381 769.406 468.169 768.353L522.648 736.862C523.069 736.651 523.384 736.124 523.384 735.598C523.384 735.071 523.069 734.65 522.648 734.334L485.838 713.059C484.996 712.638 483.944 712.322 482.893 712.322Z" fill="#42E8E0"/>
<path d="M474.163 733.807L468.379 730.437L469.746 729.595L475.531 732.965L474.163 733.807Z" fill="#42E8E0"/>
<path opacity="0.5" d="M479.001 736.651L476.162 734.966L477.634 734.123L480.474 735.809L479.001 736.651Z" fill="#42E8E0"/>
<path opacity="0.5" d="M470.798 735.703L465.013 732.438L466.381 731.596L472.165 734.966L470.798 735.703Z" fill="#42E8E0"/>
<path opacity="0.5" d="M475.636 738.547L472.796 736.967L474.269 736.124L477.108 737.81L475.636 738.547Z" fill="#42E8E0"/>
<path d="M467.432 737.704L461.648 734.334L463.015 733.491L468.8 736.862L467.432 737.704Z" fill="#42E8E0"/>
<path d="M472.27 740.548L469.431 738.863L470.903 738.02L473.743 739.705L472.27 740.548Z" fill="#42E8E0"/>
<path d="M464.067 739.6L458.282 736.335L459.65 735.493L465.434 738.757L464.067 739.6Z" fill="#42E8E0"/>
<path d="M468.905 742.444L466.065 740.864L467.537 740.021L470.377 741.706L468.905 742.444Z" fill="#42E8E0"/>
<path d="M460.701 741.601L454.917 738.231L456.284 737.388L462.068 740.759L460.701 741.601Z" fill="#42E8E0"/>
<path d="M465.539 744.445L462.7 742.76L464.172 741.917L467.012 743.602L465.539 744.445Z" fill="#42E8E0"/>
<path d="M457.336 743.497L451.551 740.232L452.918 739.389L458.703 742.654L457.336 743.497Z" fill="#42E8E0"/>
<path d="M462.174 746.341L459.334 744.761L460.806 743.918L463.646 745.603L462.174 746.341Z" fill="#42E8E0"/>
<path d="M453.97 745.498L448.186 742.128L449.553 741.285L455.337 744.655L453.97 745.498Z" fill="#42E8E0"/>
<path opacity="0.5" d="M458.808 748.342L455.968 746.657L457.441 745.814L460.281 747.499L458.808 748.342Z" fill="#42E8E0"/>
<path d="M450.605 747.394L444.82 744.129L446.187 743.286L451.972 746.551L450.605 747.394Z" fill="#42E8E0"/>
<path opacity="0.5" d="M455.443 750.237L452.603 748.552L454.075 747.815L456.915 749.395L455.443 750.237Z" fill="#42E8E0"/>
<path d="M486.994 741.285L481.21 737.915L482.577 737.072L488.362 740.443L486.994 741.285Z" fill="#42E8E0"/>
<path d="M491.832 744.129L488.993 742.444L490.465 741.601L493.305 743.286L491.832 744.129Z" fill="#42E8E0"/>
<path d="M483.629 743.286L477.844 739.916L479.212 739.073L484.996 742.444L483.629 743.286Z" fill="#42E8E0"/>
<path d="M488.467 746.13L485.627 744.445L487.1 743.602L489.939 745.287L488.467 746.13Z" fill="#42E8E0"/>
<path d="M480.263 745.182L474.479 741.812L475.846 740.969L481.631 744.339L480.263 745.182Z" fill="#42E8E0"/>
<path d="M485.101 748.026L482.262 746.341L483.734 745.498L486.574 747.183L485.101 748.026Z" fill="#42E8E0"/>
<path d="M484.155 728.015L478.37 724.645L479.843 723.802L485.627 727.172L484.155 728.015Z" fill="#42E8E0"/>
<path d="M489.098 730.858L486.153 729.173L487.625 728.331L490.57 730.016L489.098 730.858Z" fill="#42E8E0"/>
<path d="M480.789 729.911L475.005 726.646L476.477 725.803L482.262 729.068L480.789 729.911Z" fill="#42E8E0"/>
<path d="M485.732 732.754L482.788 731.069L484.26 730.332L487.205 731.912L485.732 732.754Z" fill="#42E8E0"/>
<path d="M477.424 731.912L471.639 728.541L473.112 727.699L478.896 731.069L477.424 731.912Z" fill="#42E8E0"/>
<path d="M482.367 734.755L479.422 733.07L480.894 732.228L483.839 733.913L482.367 734.755Z" fill="#42E8E0"/>
<path d="M496.986 735.493L491.201 732.122L492.674 731.28L498.458 734.65L496.986 735.493Z" fill="#42E8E0"/>
<path d="M501.929 738.336L498.984 736.651L500.457 735.809L503.401 737.494L501.929 738.336Z" fill="#42E8E0"/>
<path opacity="0.5" d="M493.62 737.388L487.836 734.123L489.308 733.281L495.093 736.651L493.62 737.388Z" fill="#42E8E0"/>
<path d="M498.563 740.232L495.619 738.652L497.091 737.81L500.036 739.495L498.563 740.232Z" fill="#42E8E0"/>
<path d="M490.255 739.389L484.47 736.019L485.943 735.177L491.727 738.547L490.255 739.389Z" fill="#42E8E0"/>
<path d="M495.198 742.233L492.253 740.548L493.726 739.705L496.67 741.39L495.198 742.233Z" fill="#42E8E0"/>
<path d="M476.898 747.078L471.113 743.813L472.481 742.97L478.265 746.341L476.898 747.078Z" fill="#42E8E0"/>
<path d="M481.736 750.027L478.896 748.342L480.369 747.499L483.208 749.184L481.736 750.027Z" fill="#42E8E0"/>
<path opacity="0.5" d="M473.532 749.079L467.748 745.709L469.115 744.866L474.9 748.236L473.532 749.079Z" fill="#42E8E0"/>
<path d="M478.37 751.923L475.531 750.237L477.003 749.395L479.843 751.08L478.37 751.923Z" fill="#42E8E0"/>
<path d="M470.167 750.975L464.382 747.71L465.75 746.867L471.534 750.237L470.167 750.975Z" fill="#42E8E0"/>
<path d="M475.005 753.924L472.165 752.239L473.638 751.396L476.477 753.081L475.005 753.924Z" fill="#42E8E0"/>
<path d="M466.801 752.976L461.017 749.605L462.384 748.763L468.169 752.133L466.801 752.976Z" fill="#42E8E0"/>
<path d="M471.639 755.819L468.8 754.134L470.272 753.292L473.112 754.977L471.639 755.819Z" fill="#42E8E0"/>
<path d="M463.436 754.872L457.651 751.501L459.124 750.659L464.908 754.029L463.436 754.872Z" fill="#42E8E0"/>
<path d="M468.379 757.715L465.539 756.03L466.906 755.187L469.851 756.873L468.379 757.715Z" fill="#42E8E0"/>
<path d="M329.971 910.746L325.449 908.113C325.028 907.902 324.713 907.165 324.713 906.638C324.713 906.112 325.028 905.796 325.449 906.112L329.971 908.745C330.392 908.955 330.708 909.693 330.708 910.219C330.708 910.64 330.392 910.956 329.971 910.746Z" fill="#24126A"/>
<path opacity="0.1" d="M504.664 969.093L454.917 940.341L522.227 901.372L572.079 930.23L504.664 969.093Z" fill="#42E8E0"/>
<path opacity="0.5" d="M504.664 958.14L454.917 929.388L522.227 890.419L572.079 919.277L504.664 958.14Z" fill="url(#paint33_radial_294_495)"/>
<path d="M504.664 953.085C503.612 953.085 502.455 952.769 501.508 952.242L464.698 930.967C464.172 930.651 463.751 930.019 463.751 929.388C463.751 928.756 464.067 928.124 464.698 927.808L519.177 896.317C521.07 895.158 523.489 895.158 525.383 896.317L562.193 917.592C562.719 917.908 563.14 918.54 563.14 919.171C563.14 919.803 562.824 920.435 562.193 920.751L507.714 952.242C506.767 952.769 505.715 953.085 504.664 953.085ZM522.227 895.896C521.176 895.896 520.229 896.106 519.283 896.633L464.908 928.124C464.487 928.334 464.172 928.861 464.172 929.388C464.172 929.914 464.487 930.335 464.908 930.651L501.719 951.926C503.507 952.979 505.82 952.979 507.608 951.926L562.088 920.435C562.509 920.225 562.824 919.698 562.824 919.171C562.824 918.645 562.509 918.224 562.088 917.908L525.277 896.633C524.331 896.106 523.279 895.896 522.227 895.896Z" fill="#42E8E0"/>
<path d="M489.098 909.693L483.944 906.744C481.21 905.164 479.527 902.32 479.527 899.266V888.734C479.527 885.785 477.95 883.047 475.32 881.572L455.863 870.408L456.074 870.092L475.531 881.256C478.265 882.836 479.843 885.68 479.843 888.734V899.266C479.843 902.215 481.42 904.953 484.05 906.428L489.203 909.377L489.098 909.693Z" fill="#42E8E0"/>
<path d="M427.151 845.552L426.941 845.236L503.717 800.37C504.558 799.843 505.505 799.843 506.346 800.37C507.188 800.897 507.713 801.739 507.713 802.687H507.398C507.398 801.844 506.977 801.107 506.241 800.686C505.505 800.265 504.663 800.265 504.032 800.686L427.151 845.552Z" fill="#42E8E0"/>
<path d="M510.448 804.899L510.238 804.583L542 785.73C543.052 785.098 543.788 783.94 543.683 782.676C543.683 781.412 543.052 780.254 541.895 779.622L495.093 753.081L495.303 752.765L542.105 779.306C543.367 780.043 544.103 781.202 544.103 782.676C544.103 784.045 543.367 785.309 542.21 786.046L510.448 804.899Z" fill="#42E8E0"/>
<path d="M401.068 841.761L399.596 840.918L401.068 840.076L402.541 840.918L401.068 841.761Z" fill="#42E8E0"/>
<path d="M405.065 841.866L403.592 841.024L405.065 840.181L406.537 841.024L405.065 841.866Z" fill="#42E8E0"/>
<path d="M403.067 845.658L401.594 844.815L403.067 843.867L404.644 844.815L403.067 845.658Z" fill="#42E8E0"/>
<path d="M396.651 838.812L395.179 837.969L396.651 837.127L398.123 837.969L396.651 838.812Z" fill="#42E8E0"/>
<path d="M408.22 845.131L406.748 844.183L408.22 843.341L409.798 844.183L408.22 845.131Z" fill="#42E8E0"/>
<path d="M411.691 844.394L410.218 843.446L411.691 842.603L413.163 843.446L411.691 844.394Z" fill="#42E8E0"/>
<path d="M408.22 847.238L406.748 846.395L408.22 845.447L409.692 846.395L408.22 847.238Z" fill="#42E8E0"/>
<path d="M414.11 849.765L412.637 848.923L414.11 848.08L415.582 848.923L414.11 849.765Z" fill="#42E8E0"/>
<path d="M418.737 850.608L417.265 849.765L418.737 848.923L420.21 849.765L418.737 850.608Z" fill="#42E8E0"/>
<path d="M418.737 854.399L417.265 853.557L418.737 852.609L420.21 853.557L418.737 854.399Z" fill="#42E8E0"/>
<path d="M421.367 853.135L419.894 852.293L421.367 851.345L422.839 852.293L421.367 853.135Z" fill="#42E8E0"/>
<path d="M427.256 855.031L425.784 854.189L427.256 853.346L428.729 854.189L427.256 855.031Z" fill="#42E8E0"/>
<path d="M432.41 856.506L430.937 855.663L432.41 854.821L433.882 855.663L432.41 856.506Z" fill="#42E8E0"/>
<path d="M427.572 858.402L426.099 857.559L427.572 856.716L429.044 857.559L427.572 858.402Z" fill="#42E8E0"/>
<path d="M434.829 861.245L433.356 860.403L434.829 859.56L436.301 860.403L434.829 861.245Z" fill="#42E8E0"/>
<path d="M439.246 861.666L437.774 860.824L439.246 859.876L440.718 860.824L439.246 861.666Z" fill="#42E8E0"/>
<path d="M434.408 859.244L432.936 858.402L434.408 857.559L435.88 858.402L434.408 859.244Z" fill="#42E8E0"/>
<path d="M443.032 865.985L441.56 865.142L443.032 864.299L444.505 865.142L443.032 865.985Z" fill="#42E8E0"/>
</g>
<defs>
<filter id="filter0_i_294_495" x="77.282" y="60.8409" width="496" height="989.624" filterUnits="userSpaceOnUse" color-interpolation-filters="sRGB">
<feFlood flood-opacity="0" result="BackgroundImageFix"/>
<feBlend mode="normal" in="SourceGraphic" in2="BackgroundImageFix" result="shape"/>
<feColorMatrix in="SourceAlpha" type="matrix" values="0 0 0 0 0 0 0 0 0 0 0 0 0 0 0 0 0 0 127 0" result="hardAlpha"/>
<feOffset dx="12" dy="2"/>
<feGaussianBlur stdDeviation="9"/>
<feComposite in2="hardAlpha" operator="arithmetic" k2="-1" k3="1"/>
<feColorMatrix type="matrix" values="0 0 0 0 0 0 0 0 0 0 0 0 0 0 0 0 0 0 0.25 0"/>
<feBlend mode="normal" in2="shape" result="effect1_innerShadow_294_495"/>
</filter>
<filter id="filter1_f_294_495" x="183.411" y="596.607" width="256.797" height="212.295" filterUnits="userSpaceOnUse" color-interpolation-filters="sRGB">
<feFlood flood-opacity="0" result="BackgroundImageFix"/>
<feBlend mode="normal" in="SourceGraphic" in2="BackgroundImageFix" result="shape"/>
<feGaussianBlur stdDeviation="17" result="effect1_foregroundBlur_294_495"/>
</filter>
<linearGradient id="paint0_linear_294_495" x1="458.079" y1="174.146" x2="-41.197" y2="428.031" gradientUnits="userSpaceOnUse">
<stop stop-color="#444B8C"/>
<stop offset="1" stop-color="#2F356C"/>
</linearGradient>
<radialGradient id="paint1_radial_294_495" cx="0" cy="0" r="1" gradientUnits="userSpaceOnUse" gradientTransform="translate(311.809 702.755) rotate(90) scale(72.1474 94.3985)">
<stop stop-color="#74DEE9"/>
<stop offset="1" stop-color="#74DEE9" stop-opacity="0"/>
</radialGradient>
<linearGradient id="paint2_linear_294_495" x1="268.127" y1="805.511" x2="373.433" y2="805.511" gradientUnits="userSpaceOnUse">
<stop stop-color="#BCBEFF"/>
<stop offset="0.151" stop-color="#A3A7F5"/>
<stop offset="0.3866" stop-color="#8289E8"/>
<stop offset="0.6124" stop-color="#6A73DF"/>
<stop offset="0.8221" stop-color="#5C66D9"/>
<stop offset="1" stop-color="#5761D7"/>
</linearGradient>
<radialGradient id="paint3_radial_294_495" cx="0" cy="0" r="1" gradientUnits="userSpaceOnUse" gradientTransform="translate(370.775 821.612) scale(61.1962 61.2821)">
<stop stop-color="#42E8E0"/>
<stop offset="0.0346929" stop-color="#3FDCD8"/>
<stop offset="0.2363" stop-color="#319CAE"/>
<stop offset="0.4286" stop-color="#25668B"/>
<stop offset="0.6062" stop-color="#1B3C70"/>
<stop offset="0.7662" stop-color="#151E5C"/>
<stop offset="0.9028" stop-color="#100C50"/>
<stop offset="1" stop-color="#0F054C"/>
</radialGradient>
<linearGradient id="paint4_linear_294_495" x1="271.954" y1="788.018" x2="369.982" y2="788.018" gradientUnits="userSpaceOnUse">
<stop stop-color="#C0BFF6"/>
<stop offset="0.2938" stop-color="#C5C4F7"/>
<stop offset="0.6399" stop-color="#D3D2F9"/>
<stop offset="1" stop-color="#E9E9FD"/>
</linearGradient>
<linearGradient id="paint5_linear_294_495" x1="268.127" y1="781.571" x2="373.433" y2="781.571" gradientUnits="userSpaceOnUse">
<stop stop-color="#BCBEFF"/>
<stop offset="0.151" stop-color="#A3A7F5"/>
<stop offset="0.3866" stop-color="#8289E8"/>
<stop offset="0.6124" stop-color="#6A73DF"/>
<stop offset="0.8221" stop-color="#5C66D9"/>
<stop offset="1" stop-color="#5761D7"/>
</linearGradient>
<radialGradient id="paint6_radial_294_495" cx="0" cy="0" r="1" gradientUnits="userSpaceOnUse" gradientTransform="translate(370.775 797.672) scale(61.1962 61.2821)">
<stop stop-color="#42E8E0"/>
<stop offset="0.0346929" stop-color="#3FDCD8"/>
<stop offset="0.2363" stop-color="#319CAE"/>
<stop offset="0.4286" stop-color="#25668B"/>
<stop offset="0.6062" stop-color="#1B3C70"/>
<stop offset="0.7662" stop-color="#151E5C"/>
<stop offset="0.9028" stop-color="#100C50"/>
<stop offset="1" stop-color="#0F054C"/>
</radialGradient>
<linearGradient id="paint7_linear_294_495" x1="271.954" y1="764.077" x2="369.982" y2="764.077" gradientUnits="userSpaceOnUse">
<stop stop-color="#C0BFF6"/>
<stop offset="0.2938" stop-color="#C5C4F7"/>
<stop offset="0.6399" stop-color="#D3D2F9"/>
<stop offset="1" stop-color="#E9E9FD"/>
</linearGradient>
<linearGradient id="paint8_linear_294_495" x1="268.127" y1="757.63" x2="373.433" y2="757.63" gradientUnits="userSpaceOnUse">
<stop stop-color="#BCBEFF"/>
<stop offset="0.151" stop-color="#A3A7F5"/>
<stop offset="0.3866" stop-color="#8289E8"/>
<stop offset="0.6124" stop-color="#6A73DF"/>
<stop offset="0.8221" stop-color="#5C66D9"/>
<stop offset="1" stop-color="#5761D7"/>
</linearGradient>
<radialGradient id="paint9_radial_294_495" cx="0" cy="0" r="1" gradientUnits="userSpaceOnUse" gradientTransform="translate(370.775 773.731) scale(61.1961 61.282)">
<stop stop-color="#42E8E0"/>
<stop offset="0.0346929" stop-color="#3FDCD8"/>
<stop offset="0.2363" stop-color="#319CAE"/>
<stop offset="0.4286" stop-color="#25668B"/>
<stop offset="0.6062" stop-color="#1B3C70"/>
<stop offset="0.7662" stop-color="#151E5C"/>
<stop offset="0.9028" stop-color="#100C50"/>
<stop offset="1" stop-color="#0F054C"/>
</radialGradient>
<linearGradient id="paint10_linear_294_495" x1="271.954" y1="740.137" x2="369.982" y2="740.137" gradientUnits="userSpaceOnUse">
<stop stop-color="#C0BFF6"/>
<stop offset="0.2938" stop-color="#C5C4F7"/>
<stop offset="0.6399" stop-color="#D3D2F9"/>
<stop offset="1" stop-color="#E9E9FD"/>
</linearGradient>
<linearGradient id="paint11_linear_294_495" x1="268.127" y1="733.69" x2="373.433" y2="733.69" gradientUnits="userSpaceOnUse">
<stop stop-color="#BCBEFF"/>
<stop offset="0.151" stop-color="#A3A7F5"/>
<stop offset="0.3866" stop-color="#8289E8"/>
<stop offset="0.6124" stop-color="#6A73DF"/>
<stop offset="0.8221" stop-color="#5C66D9"/>
<stop offset="1" stop-color="#5761D7"/>
</linearGradient>
<linearGradient id="paint12_linear_294_495" x1="268.127" y1="733.69" x2="373.433" y2="733.69" gradientUnits="userSpaceOnUse">
<stop stop-color="#BCBEFF"/>
<stop offset="0.151" stop-color="#A3A7F5"/>
<stop offset="0.3866" stop-color="#8289E8"/>
<stop offset="0.6124" stop-color="#6A73DF"/>
<stop offset="0.8221" stop-color="#5C66D9"/>
<stop offset="1" stop-color="#5761D7"/>
</linearGradient>
<radialGradient id="paint13_radial_294_495" cx="0" cy="0" r="1" gradientUnits="userSpaceOnUse" gradientTransform="translate(370.775 749.791) scale(61.1961 61.282)">
<stop stop-color="#42E8E0"/>
<stop offset="0.0346929" stop-color="#3FDCD8"/>
<stop offset="0.2363" stop-color="#319CAE"/>
<stop offset="0.4286" stop-color="#25668B"/>
<stop offset="0.6062" stop-color="#1B3C70"/>
<stop offset="0.7662" stop-color="#151E5C"/>
<stop offset="0.9028" stop-color="#100C50"/>
<stop offset="1" stop-color="#0F054C"/>
</radialGradient>
<linearGradient id="paint14_linear_294_495" x1="268.127" y1="717.698" x2="373.433" y2="717.698" gradientUnits="userSpaceOnUse">
<stop stop-color="#C0BFF6"/>
<stop offset="0.2938" stop-color="#C5C4F7"/>
<stop offset="0.6399" stop-color="#D3D2F9"/>
<stop offset="1" stop-color="#E9E9FD"/>
</linearGradient>
<linearGradient id="paint15_linear_294_495" x1="282.69" y1="862.229" x2="549.468" y2="862.229" gradientUnits="userSpaceOnUse">
<stop stop-color="#BCBEFF"/>
<stop offset="0.151" stop-color="#A3A7F5"/>
<stop offset="0.3866" stop-color="#8289E8"/>
<stop offset="0.6124" stop-color="#6A73DF"/>
<stop offset="0.8221" stop-color="#5C66D9"/>
<stop offset="1" stop-color="#5761D7"/>
</linearGradient>
<radialGradient id="paint16_radial_294_495" cx="0" cy="0" r="1" gradientUnits="userSpaceOnUse" gradientTransform="translate(366.572 809.468) scale(171.244 171.484)">
<stop stop-color="#42E8E0"/>
<stop offset="0.1055" stop-color="#37B6BF"/>
<stop offset="0.2197" stop-color="#2C87A1"/>
<stop offset="0.338" stop-color="#235F87"/>
<stop offset="0.4587" stop-color="#1C3F72"/>
<stop offset="0.5824" stop-color="#162561"/>
<stop offset="0.7105" stop-color="#121355"/>
<stop offset="0.8458" stop-color="#10084E"/>
<stop offset="1" stop-color="#0F054C"/>
</radialGradient>
<linearGradient id="paint17_linear_294_495" x1="268.127" y1="902.079" x2="373.433" y2="902.079" gradientUnits="userSpaceOnUse">
<stop stop-color="#BCBEFF"/>
<stop offset="0.151" stop-color="#A3A7F5"/>
<stop offset="0.3866" stop-color="#8289E8"/>
<stop offset="0.6124" stop-color="#6A73DF"/>
<stop offset="0.8221" stop-color="#5C66D9"/>
<stop offset="1" stop-color="#5761D7"/>
</linearGradient>
<radialGradient id="paint18_radial_294_495" cx="0" cy="0" r="1" gradientUnits="userSpaceOnUse" gradientTransform="translate(370.775 918.181) scale(61.1962 61.282)">
<stop stop-color="#42E8E0"/>
<stop offset="0.0346929" stop-color="#3FDCD8"/>
<stop offset="0.2363" stop-color="#319CAE"/>
<stop offset="0.4286" stop-color="#25668B"/>
<stop offset="0.6062" stop-color="#1B3C70"/>
<stop offset="0.7662" stop-color="#151E5C"/>
<stop offset="0.9028" stop-color="#100C50"/>
<stop offset="1" stop-color="#0F054C"/>
</radialGradient>
<linearGradient id="paint19_linear_294_495" x1="271.954" y1="884.586" x2="369.982" y2="884.586" gradientUnits="userSpaceOnUse">
<stop stop-color="#C0BFF6"/>
<stop offset="0.2938" stop-color="#C5C4F7"/>
<stop offset="0.6399" stop-color="#D3D2F9"/>
<stop offset="1" stop-color="#E9E9FD"/>
</linearGradient>
<linearGradient id="paint20_linear_294_495" x1="268.127" y1="878.139" x2="373.433" y2="878.139" gradientUnits="userSpaceOnUse">
<stop stop-color="#BCBEFF"/>
<stop offset="0.151" stop-color="#A3A7F5"/>
<stop offset="0.3866" stop-color="#8289E8"/>
<stop offset="0.6124" stop-color="#6A73DF"/>
<stop offset="0.8221" stop-color="#5C66D9"/>
<stop offset="1" stop-color="#5761D7"/>
</linearGradient>
<radialGradient id="paint21_radial_294_495" cx="0" cy="0" r="1" gradientUnits="userSpaceOnUse" gradientTransform="translate(370.775 894.24) scale(61.1961 61.282)">
<stop stop-color="#42E8E0"/>
<stop offset="0.0346929" stop-color="#3FDCD8"/>
<stop offset="0.2363" stop-color="#319CAE"/>
<stop offset="0.4286" stop-color="#25668B"/>
<stop offset="0.6062" stop-color="#1B3C70"/>
<stop offset="0.7662" stop-color="#151E5C"/>
<stop offset="0.9028" stop-color="#100C50"/>
<stop offset="1" stop-color="#0F054C"/>
</radialGradient>
<linearGradient id="paint22_linear_294_495" x1="271.954" y1="860.646" x2="369.982" y2="860.646" gradientUnits="userSpaceOnUse">
<stop stop-color="#C0BFF6"/>
<stop offset="0.2938" stop-color="#C5C4F7"/>
<stop offset="0.6399" stop-color="#D3D2F9"/>
<stop offset="1" stop-color="#E9E9FD"/>
</linearGradient>
<linearGradient id="paint23_linear_294_495" x1="268.127" y1="854.198" x2="373.433" y2="854.198" gradientUnits="userSpaceOnUse">
<stop stop-color="#BCBEFF"/>
<stop offset="0.151" stop-color="#A3A7F5"/>
<stop offset="0.3866" stop-color="#8289E8"/>
<stop offset="0.6124" stop-color="#6A73DF"/>
<stop offset="0.8221" stop-color="#5C66D9"/>
<stop offset="1" stop-color="#5761D7"/>
</linearGradient>
<radialGradient id="paint24_radial_294_495" cx="0" cy="0" r="1" gradientUnits="userSpaceOnUse" gradientTransform="translate(370.775 870.3) scale(61.1961 61.282)">
<stop stop-color="#42E8E0"/>
<stop offset="0.0346929" stop-color="#3FDCD8"/>
<stop offset="0.2363" stop-color="#319CAE"/>
<stop offset="0.4286" stop-color="#25668B"/>
<stop offset="0.6062" stop-color="#1B3C70"/>
<stop offset="0.7662" stop-color="#151E5C"/>
<stop offset="0.9028" stop-color="#100C50"/>
<stop offset="1" stop-color="#0F054C"/>
</radialGradient>
<linearGradient id="paint25_linear_294_495" x1="271.954" y1="836.705" x2="369.982" y2="836.705" gradientUnits="userSpaceOnUse">
<stop stop-color="#C0BFF6"/>
<stop offset="0.2938" stop-color="#C5C4F7"/>
<stop offset="0.6399" stop-color="#D3D2F9"/>
<stop offset="1" stop-color="#E9E9FD"/>
</linearGradient>
<linearGradient id="paint26_linear_294_495" x1="268.127" y1="830.258" x2="373.433" y2="830.258" gradientUnits="userSpaceOnUse">
<stop stop-color="#BCBEFF"/>
<stop offset="0.151" stop-color="#A3A7F5"/>
<stop offset="0.3866" stop-color="#8289E8"/>
<stop offset="0.6124" stop-color="#6A73DF"/>
<stop offset="0.8221" stop-color="#5C66D9"/>
<stop offset="1" stop-color="#5761D7"/>
</linearGradient>
<linearGradient id="paint27_linear_294_495" x1="268.127" y1="830.258" x2="373.433" y2="830.258" gradientUnits="userSpaceOnUse">
<stop stop-color="#BCBEFF"/>
<stop offset="0.151" stop-color="#A3A7F5"/>
<stop offset="0.3866" stop-color="#8289E8"/>
<stop offset="0.6124" stop-color="#6A73DF"/>
<stop offset="0.8221" stop-color="#5C66D9"/>
<stop offset="1" stop-color="#5761D7"/>
</linearGradient>
<radialGradient id="paint28_radial_294_495" cx="0" cy="0" r="1" gradientUnits="userSpaceOnUse" gradientTransform="translate(370.775 846.359) scale(61.1962 61.2821)">
<stop stop-color="#42E8E0"/>
<stop offset="0.0346929" stop-color="#3FDCD8"/>
<stop offset="0.2363" stop-color="#319CAE"/>
<stop offset="0.4286" stop-color="#25668B"/>
<stop offset="0.6062" stop-color="#1B3C70"/>
<stop offset="0.7662" stop-color="#151E5C"/>
<stop offset="0.9028" stop-color="#100C50"/>
<stop offset="1" stop-color="#0F054C"/>
</radialGradient>
<linearGradient id="paint29_linear_294_495" x1="271.954" y1="812.764" x2="369.982" y2="812.764" gradientUnits="userSpaceOnUse">
<stop stop-color="#C0BFF6"/>
<stop offset="0.2938" stop-color="#C5C4F7"/>
<stop offset="0.6399" stop-color="#D3D2F9"/>
<stop offset="1" stop-color="#E9E9FD"/>
</linearGradient>
<radialGradient id="paint30_radial_294_495" cx="0" cy="0" r="1" gradientUnits="userSpaceOnUse" gradientTransform="translate(366.572 807.361) scale(171.244 171.484)">
<stop stop-color="#42E8E0"/>
<stop offset="0.1055" stop-color="#37B6BF"/>
<stop offset="0.2197" stop-color="#2C87A1"/>
<stop offset="0.338" stop-color="#235F87"/>
<stop offset="0.4587" stop-color="#1C3F72"/>
<stop offset="0.5824" stop-color="#162561"/>
<stop offset="0.7105" stop-color="#121355"/>
<stop offset="0.8458" stop-color="#10084E"/>
<stop offset="1" stop-color="#0F054C"/>
</radialGradient>
<linearGradient id="paint31_linear_294_495" x1="453.237" y1="900.023" x2="378.635" y2="801.162" gradientUnits="userSpaceOnUse">
<stop stop-color="#42E8E0"/>
<stop offset="0.1055" stop-color="#37B6BF"/>
<stop offset="0.2197" stop-color="#2C87A1"/>
<stop offset="0.338" stop-color="#235F87"/>
<stop offset="0.4587" stop-color="#1C3F72"/>
<stop offset="0.5824" stop-color="#162561"/>
<stop offset="0.7105" stop-color="#121355"/>
<stop offset="0.8458" stop-color="#10084E"/>
<stop offset="1" stop-color="#0F054C"/>
</linearGradient>
<radialGradient id="paint32_radial_294_495" cx="0" cy="0" r="1" gradientUnits="userSpaceOnUse" gradientTransform="translate(428.003 767.286) scale(206.361 206.651)">
<stop stop-color="#42E8E0"/>
<stop offset="0.1055" stop-color="#37B6BF"/>
<stop offset="0.2197" stop-color="#2C87A1"/>
<stop offset="0.338" stop-color="#235F87"/>
<stop offset="0.4587" stop-color="#1C3F72"/>
<stop offset="0.5824" stop-color="#162561"/>
<stop offset="0.7105" stop-color="#121355"/>
<stop offset="0.8458" stop-color="#10084E"/>
<stop offset="1" stop-color="#0F054C"/>
</radialGradient>
<radialGradient id="paint33_radial_294_495" cx="0" cy="0" r="1" gradientUnits="userSpaceOnUse" gradientTransform="translate(467.346 950.799) scale(206.361 206.651)">
<stop stop-color="#42E8E0"/>
<stop offset="0.1055" stop-color="#37B6BF"/>
<stop offset="0.2197" stop-color="#2C87A1"/>
<stop offset="0.338" stop-color="#235F87"/>
<stop offset="0.4587" stop-color="#1C3F72"/>
<stop offset="0.5824" stop-color="#162561"/>
<stop offset="0.7105" stop-color="#121355"/>
<stop offset="0.8458" stop-color="#10084E"/>
<stop offset="1" stop-color="#0F054C"/>
</radialGradient>
<clipPath id="clip0_294_495">
<rect width="364.109" height="316.909" fill="white" transform="translate(207.971 652.184)"/>
</clipPath>
</defs>
</svg>
